<svg xmlns="http://www.w3.org/2000/svg" xmlns:xlink="http://www.w3.org/1999/xlink" width="500" zoomAndPan="magnify" viewBox="0 0 375 374.999991" height="500" preserveAspectRatio="xMidYMid meet" version="1.2"><defs><clipPath id="995e1b7d01"><path d="M 1.40625 0 L 373.40625 0 L 373.40625 375 L 1.40625 375 Z M 1.40625 0 "/></clipPath></defs><g id="83738d644b"><g clip-rule="nonzero" clip-path="url(#995e1b7d01)"><path style=" stroke:none;fill-rule:nonzero;fill:#eab308;fill-opacity:1;" d="M 363.308594 274.074219 C 364.113281 268.796875 362.871094 264.28125 359.578125 261.460938 L 333.417969 239.09375 C 332.070312 237.945312 328.375 235.570312 323.035156 238.238281 C 320.027344 239.742188 316.648438 243.054688 313.464844 247.214844 C 311.757812 247.09375 310.003906 247.027344 308.160156 247.027344 L 304.867188 247.027344 C 317.796875 236.78125 326.109375 220.957031 326.109375 203.222656 L 326.109375 193.835938 C 326.109375 163.035156 301.035156 137.96875 270.21875 137.96875 C 239.402344 137.96875 214.351562 163.027344 214.351562 193.835938 L 214.351562 203.222656 C 214.351562 220.957031 222.664062 236.78125 235.585938 247.027344 L 139.277344 247.027344 C 152.207031 236.78125 160.519531 220.957031 160.519531 203.222656 L 160.519531 193.835938 C 160.519531 163.035156 135.445312 137.96875 104.628906 137.96875 C 73.8125 137.96875 48.765625 163.027344 48.765625 193.835938 L 48.765625 203.222656 C 48.765625 220.957031 57.078125 236.78125 70 247.027344 L 66.710938 247.027344 C 30.777344 247.027344 1.550781 272.910156 1.550781 304.714844 L 1.550781 368.765625 C 1.550781 372.105469 4.253906 374.804688 7.585938 374.804688 L 367.261719 374.804688 C 370.601562 374.804688 373.300781 372.097656 373.300781 368.765625 L 373.300781 304.714844 C 373.300781 293.8125 369.847656 283.277344 363.289062 274.074219 Z M 327.339844 249.800781 L 351.460938 270.429688 C 351.574219 270.980469 351.5 272.101562 351.082031 273.597656 C 351.054688 273.6875 351.03125 273.785156 351 273.875 C 350.601562 275.222656 349.941406 276.847656 348.914062 278.628906 C 346.640625 282.566406 344.125 284.578125 343.097656 284.910156 L 313.171875 274.335938 C 313.566406 272.023438 315.054688 267.394531 318.65625 261.152344 C 319.503906 259.683594 320.335938 258.363281 321.128906 257.183594 C 321.226562 257.046875 321.324219 256.902344 321.417969 256.761719 C 323.878906 253.164062 326.003906 250.910156 327.332031 249.808594 Z M 226.4375 203.230469 L 226.4375 193.84375 C 226.4375 169.699219 246.078125 150.058594 270.21875 150.058594 C 294.363281 150.058594 314.027344 169.699219 314.027344 193.84375 L 314.027344 203.230469 C 314.027344 227.378906 294.378906 247.035156 270.21875 247.035156 C 246.0625 247.035156 226.4375 227.386719 226.4375 203.230469 Z M 60.855469 203.230469 L 60.855469 193.84375 C 60.855469 169.699219 80.496094 150.058594 104.636719 150.058594 C 128.78125 150.058594 148.445312 169.699219 148.445312 193.84375 L 148.445312 203.230469 C 148.445312 227.378906 128.796875 247.035156 104.636719 247.035156 C 80.480469 247.035156 60.855469 227.386719 60.855469 203.230469 Z M 13.640625 304.722656 C 13.640625 279.574219 37.453125 259.117188 66.71875 259.117188 L 192.460938 259.117188 C 177.070312 269.683594 167.132812 286.1875 167.132812 304.722656 L 167.132812 362.726562 L 52.699219 362.726562 L 52.699219 341.992188 C 52.699219 338.652344 49.996094 335.953125 46.664062 335.953125 C 43.332031 335.953125 40.625 338.660156 40.625 341.992188 L 40.625 362.726562 L 13.648438 362.726562 L 13.648438 304.722656 Z M 361.234375 362.726562 L 338.289062 362.726562 L 338.289062 341.992188 C 338.289062 338.652344 335.585938 335.953125 332.253906 335.953125 C 328.921875 335.953125 326.214844 338.660156 326.214844 341.992188 L 326.214844 362.726562 L 219.347656 362.726562 L 219.347656 341.992188 C 219.347656 338.652344 216.644531 335.953125 213.3125 335.953125 C 209.976562 335.953125 207.273438 338.660156 207.273438 341.992188 L 207.273438 362.726562 L 179.238281 362.726562 L 179.238281 304.722656 C 179.238281 279.574219 203.046875 259.117188 232.316406 259.117188 L 306.078125 259.117188 C 302.855469 265.542969 300.757812 272.019531 301.027344 276.394531 C 301.398438 282.355469 305.304688 284.359375 306.96875 284.945312 L 339.386719 296.402344 C 340.550781 296.820312 341.742188 297.015625 342.960938 297.015625 C 347.910156 297.015625 353.140625 293.675781 357.394531 287.75 C 359.925781 293.125 361.246094 298.859375 361.246094 304.714844 L 361.246094 362.71875 Z M 187.4375 146.09375 C 227.714844 146.09375 260.480469 113.328125 260.480469 73.050781 C 260.480469 32.773438 227.714844 0.0078125 187.4375 0.0078125 C 147.160156 0.0078125 114.417969 32.773438 114.417969 73.050781 C 114.417969 113.328125 147.175781 146.09375 187.4375 146.09375 Z M 187.4375 12.082031 C 221.046875 12.082031 248.394531 39.429688 248.394531 73.042969 C 248.394531 106.65625 221.046875 134.003906 187.4375 134.003906 C 153.824219 134.003906 126.492188 106.65625 126.492188 73.042969 C 126.492188 39.429688 153.832031 12.089844 187.4375 12.089844 Z M 145.785156 83.675781 L 156.992188 98.09375 C 162.558594 105.257812 170.042969 109.179688 178.625 109.441406 C 178.933594 109.449219 179.246094 109.457031 179.546875 109.457031 C 188.046875 109.457031 195.679688 105.839844 201.113281 99.195312 C 201.136719 99.167969 201.160156 99.144531 201.183594 99.113281 L 228.726562 64.203125 C 232.625 59.257812 233.609375 53.265625 231.417969 47.757812 C 229.117188 42 223.671875 37.699219 217.535156 36.808594 C 211.769531 35.96875 206.289062 38.238281 202.511719 43.027344 L 179.488281 72.242188 L 172.828125 63.574219 C 166.164062 54.875 155.964844 55.300781 149.328125 60.203125 C 142.722656 65.09375 139.339844 74.660156 145.640625 83.484375 C 145.6875 83.554688 145.738281 83.613281 145.785156 83.683594 Z M 156.515625 69.914062 C 157.40625 69.257812 160.527344 67.382812 163.246094 70.925781 L 173.789062 84.648438 C 175.125 86.410156 177.152344 87.429688 179.367188 87.460938 C 181.542969 87.507812 183.597656 86.523438 184.996094 84.777344 L 212.003906 50.507812 C 213.113281 49.101562 214.324219 48.542969 215.804688 48.761719 C 217.65625 49.035156 219.5 50.484375 220.195312 52.230469 C 220.777344 53.699219 220.464844 55.164062 219.242188 56.710938 L 191.730469 91.585938 C 188.488281 95.523438 184.082031 97.535156 178.988281 97.367188 C 174.046875 97.214844 169.851562 94.964844 166.519531 90.679688 L 155.402344 76.375 C 153 72.921875 155.636719 70.558594 156.507812 69.914062 Z M 156.515625 69.914062 "/></g></g></svg>