<svg xmlns="http://www.w3.org/2000/svg" xmlns:xlink="http://www.w3.org/1999/xlink" width="500" zoomAndPan="magnify" viewBox="0 0 375 374.999991" height="500" preserveAspectRatio="xMidYMid meet" version="1.2"><defs><clipPath id="e1f31dda42"><path d="M 222 168 L 375 168 L 375 344.367188 L 222 344.367188 Z M 222 168 "/></clipPath><clipPath id="38c7864cf3"><path d="M 0 168 L 205 168 L 205 344.367188 L 0 344.367188 Z M 0 168 "/></clipPath><clipPath id="1fafbeaa4b"><path d="M 128 75.117188 L 258 75.117188 L 258 204 L 128 204 Z M 128 75.117188 "/></clipPath></defs><g id="c9edb51187"><g clip-rule="nonzero" clip-path="url(#e1f31dda42)"><path style=" stroke:none;fill-rule:nonzero;fill:#eab308;fill-opacity:1;" d="M 322.542969 242.902344 C 332.800781 235.445312 339.488281 223.367188 339.488281 209.742188 C 339.488281 187.148438 321.109375 168.769531 298.515625 168.769531 C 275.921875 168.769531 257.542969 187.148438 257.542969 209.742188 C 257.542969 223.367188 264.230469 235.445312 274.488281 242.902344 C 244.269531 252.984375 222.425781 281.539062 222.425781 315.101562 L 222.425781 326.808594 C 222.425781 336.488281 230.304688 344.367188 239.984375 344.367188 L 357.050781 344.367188 C 366.730469 344.367188 374.609375 336.488281 374.609375 326.808594 L 374.609375 315.101562 C 374.609375 281.539062 352.761719 252.984375 322.542969 242.902344 Z M 269.25 209.742188 C 269.25 193.601562 282.375 180.476562 298.515625 180.476562 C 314.65625 180.476562 327.78125 193.601562 327.78125 209.742188 C 327.78125 225.882812 314.65625 239.007812 298.515625 239.007812 C 282.375 239.007812 269.25 225.882812 269.25 209.742188 Z M 362.902344 326.808594 C 362.902344 330.035156 360.277344 332.660156 357.050781 332.660156 L 345.34375 332.660156 L 345.34375 303.394531 C 345.34375 300.160156 342.722656 297.542969 339.488281 297.542969 C 336.253906 297.542969 333.636719 300.160156 333.636719 303.394531 L 333.636719 332.660156 L 263.398438 332.660156 L 263.398438 303.394531 C 263.398438 300.160156 260.777344 297.542969 257.542969 297.542969 C 254.308594 297.542969 251.691406 300.160156 251.691406 303.394531 L 251.691406 332.660156 L 239.984375 332.660156 C 236.757812 332.660156 234.128906 330.035156 234.128906 326.808594 L 234.128906 315.101562 C 234.128906 281.570312 259.890625 253.949219 292.664062 250.988281 L 292.664062 279.980469 C 292.664062 283.214844 295.28125 285.835938 298.515625 285.835938 C 301.75 285.835938 304.371094 283.214844 304.371094 279.980469 L 304.371094 250.988281 C 337.140625 253.957031 362.902344 281.578125 362.902344 315.101562 Z M 362.902344 326.808594 "/></g><g clip-rule="nonzero" clip-path="url(#38c7864cf3)"><path style=" stroke:none;fill-rule:nonzero;fill:#eab308;fill-opacity:1;" d="M 202.875 254.34375 C 200.570312 249.734375 196.414062 246.230469 191.476562 244.738281 C 186.652344 243.28125 181.390625 243.824219 176.980469 246.238281 L 141.269531 261.574219 C 135.203125 257.257812 120.144531 247.554688 100.816406 242.398438 C 110.679688 234.90625 117.066406 223.058594 117.066406 209.75 C 117.066406 187.15625 98.6875 168.777344 76.09375 168.777344 C 53.5 168.777344 35.121094 187.15625 35.121094 209.75 C 35.121094 222.753906 41.214844 234.355469 50.6875 241.863281 C 39.621094 244.578125 30.21875 249.222656 22.601562 255.800781 C 7.601562 268.742188 0 288.695312 0 315.101562 L 0 326.808594 C 0 336.488281 7.878906 344.367188 17.558594 344.367188 L 99.503906 344.367188 C 109.183594 344.367188 117.066406 336.488281 117.066406 326.808594 L 117.066406 296.042969 C 123.730469 299.523438 132.847656 303.394531 140.476562 303.394531 C 155.792969 303.394531 190.800781 281.964844 195.300781 279.171875 C 204.042969 274.21875 207.375 263.34375 202.867188 254.34375 Z M 46.824219 209.742188 C 46.824219 193.601562 59.953125 180.476562 76.09375 180.476562 C 92.234375 180.476562 105.359375 193.601562 105.359375 209.742188 C 105.359375 225.882812 92.234375 239.007812 76.09375 239.007812 C 59.953125 239.007812 46.824219 225.882812 46.824219 209.742188 Z M 189.484375 269.015625 C 189.398438 269.058594 189.316406 269.109375 189.234375 269.160156 C 175.230469 277.875 149.617188 291.6875 140.476562 291.6875 C 132.363281 291.6875 118.9375 283.949219 114.460938 280.960938 C 112.660156 279.761719 110.355469 279.652344 108.453125 280.671875 C 106.550781 281.6875 105.359375 283.671875 105.359375 285.828125 L 105.359375 326.800781 C 105.359375 330.027344 102.730469 332.65625 99.503906 332.65625 L 40.972656 332.65625 L 40.972656 303.386719 C 40.972656 300.152344 38.351562 297.535156 35.121094 297.535156 C 31.886719 297.535156 29.265625 300.152344 29.265625 303.386719 L 29.265625 332.65625 L 17.558594 332.65625 C 14.332031 332.65625 11.707031 330.027344 11.707031 326.800781 L 11.707031 315.09375 C 11.707031 274.371094 31.402344 252.800781 70.238281 250.871094 L 70.238281 279.976562 C 70.238281 283.207031 72.859375 285.828125 76.09375 285.828125 C 79.328125 285.828125 81.945312 283.207031 81.945312 279.976562 L 81.945312 250.941406 C 111.929688 253.285156 136.5625 272.636719 136.820312 272.839844 C 138.511719 274.195312 140.800781 274.503906 142.78125 273.644531 L 181.875 256.863281 C 182.082031 256.773438 182.277344 256.679688 182.46875 256.5625 C 184.1875 255.582031 186.175781 255.355469 188.078125 255.925781 C 189.976562 256.503906 191.511719 257.792969 192.398438 259.570312 C 194.109375 263 192.828125 267.140625 189.476562 269.007812 Z M 189.484375 269.015625 "/></g><g clip-rule="nonzero" clip-path="url(#1fafbeaa4b)"><path style=" stroke:none;fill-rule:nonzero;fill:#eab308;fill-opacity:1;" d="M 129.246094 195.730469 C 128.304688 197.933594 128.792969 200.488281 130.492188 202.179688 C 131.609375 203.296875 133.109375 203.890625 134.632812 203.890625 C 135.40625 203.890625 136.191406 203.734375 136.9375 203.414062 L 158.878906 194.011719 C 169.136719 200.488281 180.925781 203.890625 193.164062 203.890625 C 228.664062 203.890625 257.550781 175.003906 257.550781 139.503906 C 257.550781 104.003906 228.664062 75.117188 193.164062 75.117188 C 157.664062 75.117188 128.777344 104.003906 128.777344 139.503906 C 128.777344 151.746094 132.179688 163.523438 138.65625 173.789062 L 129.253906 195.730469 Z M 193.15625 86.824219 C 222.203125 86.824219 245.835938 110.457031 245.835938 139.503906 C 245.835938 168.550781 222.203125 192.183594 193.15625 192.183594 C 182.234375 192.183594 171.757812 188.867188 162.851562 182.597656 C 161.851562 181.894531 160.671875 181.53125 159.480469 181.53125 C 158.695312 181.53125 157.914062 181.683594 157.175781 182.007812 L 145.769531 186.894531 L 150.65625 175.488281 C 151.453125 173.621094 151.234375 171.46875 150.0625 169.808594 C 143.792969 160.914062 140.476562 150.433594 140.476562 139.503906 C 140.476562 110.457031 164.109375 86.824219 193.15625 86.824219 Z M 193.15625 86.824219 "/></g><path style=" stroke:none;fill-rule:nonzero;fill:#eab308;fill-opacity:1;" d="M 183.164062 161.203125 C 184.261719 162.300781 185.753906 162.917969 187.304688 162.917969 C 187.414062 162.917969 187.515625 162.917969 187.625 162.910156 C 189.289062 162.820312 190.832031 162.023438 191.871094 160.722656 L 215.28125 131.457031 C 217.300781 128.933594 216.890625 125.25 214.367188 123.230469 C 211.84375 121.210938 208.164062 121.621094 206.144531 124.148438 L 186.8125 148.304688 L 179.730469 141.222656 C 177.449219 138.941406 173.738281 138.941406 171.457031 141.222656 C 169.175781 143.507812 169.175781 147.214844 171.457031 149.5 Z M 183.164062 161.203125 "/></g></svg>