<svg xmlns="http://www.w3.org/2000/svg" xmlns:xlink="http://www.w3.org/1999/xlink" width="500" zoomAndPan="magnify" viewBox="0 0 375 374.999991" height="500" preserveAspectRatio="xMidYMid meet" version="1.2"><defs><clipPath id="885f2f7251"><path d="M 39 0 L 339.75 0 L 339.75 372.75 L 39 372.75 Z M 39 0 "/></clipPath></defs><g id="ff205d6f4a"><g clip-rule="nonzero" clip-path="url(#885f2f7251)"><path style=" stroke:none;fill-rule:nonzero;fill:#eab308;fill-opacity:1;" d="M 300.183594 31.019531 L 293.601562 31.019531 L 293.964844 54.5625 C 294.003906 57.121094 291.964844 59.230469 289.398438 59.269531 C 289.375 59.269531 289.351562 59.269531 289.328125 59.269531 C 286.804688 59.269531 284.734375 57.238281 284.695312 54.703125 L 284.332031 31.019531 L 277.613281 31.019531 C 275.054688 31.019531 272.976562 28.941406 272.976562 26.386719 C 272.976562 23.828125 275.054688 21.75 277.613281 21.75 L 300.183594 21.75 C 302.738281 21.75 304.816406 23.828125 304.816406 26.386719 C 304.816406 28.941406 302.738281 31.019531 300.183594 31.019531 Z M 156.234375 59.585938 C 153.902344 58.527344 152.875 55.777344 153.941406 53.445312 L 167.335938 24.027344 C 168.078125 22.398438 169.683594 21.347656 171.476562 21.316406 C 173.246094 21.277344 174.90625 22.28125 175.699219 23.890625 L 189.96875 52.578125 C 191.113281 54.875 190.175781 57.652344 187.882812 58.789062 C 185.589844 59.933594 182.808594 59 181.671875 56.703125 L 179.277344 51.882812 L 164.980469 51.558594 L 162.367188 57.285156 C 161.589844 58.992188 159.902344 59.996094 158.152344 59.996094 C 157.507812 60.003906 156.859375 59.863281 156.234375 59.585938 Z M 169.164062 42.382812 L 174.621094 42.507812 L 171.746094 36.726562 Z M 196.90625 21.640625 C 194.347656 21.640625 192.269531 23.71875 192.269531 26.277344 L 192.269531 43.648438 C 192.269531 52.261719 199.277344 59.277344 207.898438 59.277344 C 216.519531 59.277344 223.523438 52.269531 223.523438 43.648438 L 223.523438 26.277344 C 223.523438 23.71875 221.445312 21.640625 218.890625 21.640625 C 216.332031 21.640625 214.253906 23.71875 214.253906 26.277344 L 214.253906 43.648438 C 214.253906 47.15625 211.402344 50.007812 207.898438 50.007812 C 204.390625 50.007812 201.539062 47.15625 201.539062 43.648438 L 201.539062 26.277344 C 201.539062 23.71875 199.460938 21.640625 196.90625 21.640625 Z M 231.558594 59.269531 C 229 59.269531 226.921875 57.191406 226.921875 54.632812 L 226.921875 25.644531 C 226.921875 23.085938 229 21.007812 231.558594 21.007812 L 241.863281 21.007812 C 250.097656 21.007812 256.800781 27.714844 256.800781 35.949219 L 256.800781 44.335938 C 256.800781 52.570312 250.097656 59.277344 241.863281 59.277344 L 231.558594 59.277344 Z M 236.191406 50 L 241.863281 50 C 244.992188 50 247.53125 47.457031 247.53125 44.328125 L 247.53125 35.949219 C 247.53125 32.820312 244.992188 30.277344 241.863281 30.277344 L 236.191406 30.277344 Z M 269.492188 54.632812 L 269.492188 25.21875 C 269.492188 22.660156 267.414062 20.582031 264.859375 20.582031 C 262.300781 20.582031 260.222656 22.660156 260.222656 25.21875 L 260.222656 54.640625 C 260.222656 57.199219 262.300781 59.277344 264.859375 59.277344 C 267.414062 59.277344 269.492188 57.199219 269.492188 54.632812 Z M 320.207031 0.0351562 L 138.136719 0.0351562 C 127.4375 0.0351562 118.738281 8.734375 118.738281 19.433594 L 118.738281 173.152344 C 118.738281 175.710938 120.816406 177.785156 123.375 177.785156 C 125.929688 177.785156 128.007812 175.710938 128.007812 173.152344 L 128.007812 19.433594 C 128.007812 13.847656 132.550781 9.304688 138.136719 9.304688 L 320.207031 9.304688 C 325.789062 9.304688 330.332031 13.847656 330.332031 19.433594 L 330.332031 267.113281 C 330.332031 272.699219 325.789062 277.242188 320.207031 277.242188 L 236.269531 277.242188 C 233.710938 277.242188 231.636719 279.320312 231.636719 281.875 C 231.636719 284.433594 233.710938 286.511719 236.269531 286.511719 L 320.207031 286.511719 C 330.902344 286.511719 339.601562 277.8125 339.601562 267.113281 L 339.601562 19.433594 C 339.601562 8.734375 330.894531 0.0351562 320.207031 0.0351562 Z M 216.132812 98.78125 C 216.132812 101.335938 218.210938 103.414062 220.765625 103.414062 L 308.519531 103.414062 C 311.074219 103.414062 313.152344 101.335938 313.152344 98.78125 C 313.152344 96.222656 311.074219 94.144531 308.519531 94.144531 L 220.765625 94.144531 C 218.210938 94.144531 216.132812 96.222656 216.132812 98.78125 Z M 308.519531 143.761719 L 220.765625 143.761719 C 218.210938 143.761719 216.132812 145.839844 216.132812 148.394531 C 216.132812 150.953125 218.210938 153.03125 220.765625 153.03125 L 308.519531 153.03125 C 311.074219 153.03125 313.152344 150.953125 313.152344 148.394531 C 313.152344 145.839844 311.082031 143.761719 308.519531 143.761719 Z M 308.519531 193.382812 L 245.492188 193.382812 C 242.9375 193.382812 240.859375 195.460938 240.859375 198.019531 C 240.859375 200.574219 242.9375 202.652344 245.492188 202.652344 L 308.519531 202.652344 C 311.074219 202.652344 313.152344 200.574219 313.152344 198.019531 C 313.152344 195.460938 311.082031 193.382812 308.519531 193.382812 Z M 308.519531 243 L 247.332031 243 C 244.773438 243 242.695312 245.074219 242.695312 247.632812 C 242.695312 250.191406 244.773438 252.269531 247.332031 252.269531 L 308.519531 252.269531 C 311.074219 252.269531 313.152344 250.191406 313.152344 247.632812 C 313.152344 245.074219 311.082031 243 308.519531 243 Z M 221.261719 279.140625 C 208.949219 292.082031 192.332031 299.457031 174.472656 299.90625 C 173.902344 299.921875 173.328125 299.929688 172.757812 299.929688 C 160.460938 299.929688 148.65625 296.597656 138.34375 290.375 L 117.195312 312.605469 C 117.378906 313.5 117.496094 314.414062 117.519531 315.347656 C 117.621094 319.480469 116.121094 323.386719 113.285156 326.371094 L 74.082031 367.574219 C 71.25 370.554688 67.417969 372.246094 63.285156 372.355469 C 63.152344 372.355469 63.023438 372.363281 62.882812 372.363281 C 58.898438 372.363281 55.144531 370.863281 52.261719 368.121094 L 43.910156 360.179688 C 37.746094 354.316406 37.5 344.53125 43.363281 338.367188 L 82.566406 297.15625 C 85.398438 294.179688 89.230469 292.480469 93.363281 292.375 C 94.300781 292.351562 95.21875 292.421875 96.121094 292.558594 L 117.273438 270.328125 C 110.226562 259.875 106.265625 247.625 105.949219 234.726562 C 105.5 216.867188 112.035156 199.902344 124.347656 186.964844 C 149.761719 160.246094 192.175781 159.1875 218.898438 184.601562 C 245.617188 210.015625 246.675781 252.429688 221.261719 279.140625 Z M 108.25 315.585938 C 108.210938 313.933594 107.53125 312.402344 106.347656 311.277344 L 98 303.335938 C 96.855469 302.246094 95.347656 301.652344 93.757812 301.652344 C 93.703125 301.652344 93.648438 301.652344 93.597656 301.652344 C 91.941406 301.691406 90.414062 302.371094 89.285156 303.550781 L 50.082031 344.761719 C 47.742188 347.226562 47.84375 351.136719 50.300781 353.476562 L 58.648438 361.417969 C 59.832031 362.542969 61.398438 363.15625 63.054688 363.101562 C 64.707031 363.0625 66.234375 362.382812 67.363281 361.199219 L 106.566406 319.988281 C 107.695312 318.800781 108.289062 317.238281 108.25 315.585938 Z M 130.683594 284.980469 C 129.324219 283.875 127.992188 282.726562 126.710938 281.503906 C 125.429688 280.285156 124.214844 279.011719 123.042969 277.710938 L 104.742188 296.953125 L 112.382812 304.222656 Z M 212.507812 191.3125 C 201.378906 180.722656 187.085938 175.46875 172.820312 175.46875 C 157.578125 175.46875 142.378906 181.457031 131.066406 193.34375 C 120.460938 204.492188 114.832031 219.105469 115.21875 234.484375 C 115.601562 249.867188 121.953125 264.179688 133.101562 274.785156 C 144.246094 285.390625 158.847656 291.023438 174.242188 290.636719 C 189.621094 290.25 203.933594 283.898438 214.539062 272.753906 C 236.441406 249.742188 235.527344 213.203125 212.507812 191.3125 Z M 207.25 265.808594 C 198.496094 275.007812 186.683594 280.246094 173.992188 280.5625 C 173.585938 280.570312 173.183594 280.578125 172.773438 280.578125 C 160.53125 280.578125 148.949219 275.960938 140.042969 267.484375 C 130.84375 258.734375 125.605469 246.921875 125.289062 234.230469 C 124.972656 221.539062 129.617188 209.480469 138.367188 200.28125 C 147.121094 191.082031 158.929688 185.84375 171.621094 185.527344 C 184.328125 185.210938 196.371094 189.851562 205.570312 198.605469 C 214.773438 207.355469 220.007812 219.167969 220.324219 231.859375 C 220.644531 244.558594 215.992188 256.617188 207.25 265.808594 Z M 211.054688 232.097656 C 210.800781 221.878906 206.582031 212.378906 199.175781 205.332031 C 192.007812 198.511719 182.683594 194.789062 172.828125 194.789062 C 172.503906 194.789062 172.179688 194.796875 171.847656 194.804688 C 161.625 195.058594 152.125 199.277344 145.082031 206.683594 C 138.035156 214.09375 134.296875 223.792969 134.550781 234.015625 C 134.808594 244.234375 139.023438 253.734375 146.433594 260.78125 C 153.839844 267.824219 163.542969 271.5625 173.761719 271.308594 C 183.980469 271.054688 193.484375 266.835938 200.527344 259.429688 C 207.574219 252.019531 211.3125 242.3125 211.054688 232.097656 Z M 152.921875 95.035156 L 167.359375 109.46875 C 168.222656 110.335938 169.40625 110.832031 170.632812 110.832031 C 171.863281 110.832031 173.042969 110.34375 173.910156 109.46875 L 199.230469 84.148438 C 201.039062 82.34375 201.039062 79.40625 199.230469 77.589844 C 197.421875 75.785156 194.488281 75.785156 192.671875 77.589844 L 170.632812 99.628906 L 159.472656 88.46875 C 157.664062 86.660156 154.730469 86.660156 152.914062 88.46875 C 151.097656 90.273438 151.113281 93.21875 152.921875 95.035156 Z M 188.539062 217.199219 L 166.230469 239.507812 L 154.914062 228.191406 C 153.105469 226.382812 150.171875 226.382812 148.355469 228.191406 C 146.546875 229.996094 146.546875 232.933594 148.355469 234.75 L 162.949219 249.339844 C 163.820312 250.207031 164.996094 250.699219 166.222656 250.699219 C 167.449219 250.699219 168.632812 250.214844 169.5 249.339844 L 195.082031 223.757812 C 196.890625 221.949219 196.890625 219.011719 195.082031 217.199219 C 193.28125 215.390625 190.347656 215.390625 188.539062 217.199219 Z M 152.921875 141.480469 L 167.359375 155.917969 C 168.222656 156.785156 169.40625 157.277344 170.632812 157.277344 C 171.863281 157.277344 173.042969 156.792969 173.910156 155.917969 L 199.230469 130.597656 C 201.039062 128.789062 201.039062 125.855469 199.230469 124.039062 C 197.421875 122.230469 194.488281 122.230469 192.671875 124.039062 L 170.632812 146.078125 L 159.472656 134.914062 C 157.664062 133.109375 154.730469 133.109375 152.914062 134.914062 C 151.097656 136.722656 151.113281 139.675781 152.921875 141.480469 Z M 152.921875 141.480469 "/></g></g></svg>