<svg xmlns="http://www.w3.org/2000/svg" xmlns:xlink="http://www.w3.org/1999/xlink" width="500" zoomAndPan="magnify" viewBox="0 0 375 374.999991" height="500" preserveAspectRatio="xMidYMid meet" version="1.2"><g id="1dafed0cf5"><path style=" stroke:none;fill-rule:nonzero;fill:#eab308;fill-opacity:1;" d="M 142.46875 204.554688 C 142.894531 204.546875 143.3125 204.5 143.726562 204.410156 C 144.140625 204.320312 144.542969 204.191406 144.929688 204.023438 C 145.320312 203.855469 145.6875 203.652344 146.039062 203.414062 C 146.386719 203.175781 146.710938 202.902344 147.007812 202.601562 C 147.304688 202.296875 147.570312 201.96875 147.800781 201.617188 C 148.035156 201.261719 148.230469 200.890625 148.390625 200.496094 C 148.550781 200.105469 148.671875 199.703125 148.753906 199.285156 C 148.835938 198.871094 148.875 198.449219 148.875 198.027344 C 148.875 197.601562 148.835938 197.183594 148.753906 196.769531 C 148.671875 196.351562 148.550781 195.949219 148.390625 195.554688 C 148.230469 195.164062 148.035156 194.792969 147.800781 194.4375 C 147.570312 194.082031 147.304688 193.753906 147.007812 193.453125 C 146.710938 193.152344 146.386719 192.878906 146.039062 192.640625 C 145.6875 192.402344 145.320312 192.199219 144.929688 192.03125 C 144.542969 191.863281 144.140625 191.734375 143.726562 191.644531 C 143.3125 191.554688 142.894531 191.503906 142.46875 191.496094 L 30.632812 191.496094 C 29.089844 191.46875 27.609375 191.140625 26.199219 190.507812 C 24.785156 189.878906 23.550781 188.996094 22.5 187.867188 C 19.210938 184.960938 16.402344 175.492188 22.640625 174.679688 L 152.5625 174.679688 C 152.988281 174.679688 153.414062 174.636719 153.835938 174.554688 C 154.253906 174.472656 154.664062 174.347656 155.058594 174.183594 C 155.457031 174.019531 155.832031 173.816406 156.1875 173.578125 C 156.542969 173.339844 156.875 173.070312 157.175781 172.769531 C 157.480469 172.464844 157.75 172.136719 157.988281 171.777344 C 158.226562 171.421875 158.429688 171.046875 158.59375 170.648438 C 158.757812 170.253906 158.878906 169.84375 158.964844 169.425781 C 159.046875 169.003906 159.089844 168.578125 159.089844 168.152344 C 159.089844 167.722656 159.046875 167.296875 158.964844 166.878906 C 158.878906 166.457031 158.757812 166.046875 158.59375 165.652344 C 158.429688 165.257812 158.226562 164.878906 157.988281 164.523438 C 157.75 164.167969 157.480469 163.835938 157.175781 163.535156 C 156.875 163.230469 156.542969 162.960938 156.1875 162.722656 C 155.832031 162.484375 155.457031 162.28125 155.058594 162.117188 C 154.664062 161.953125 154.253906 161.832031 153.835938 161.746094 C 153.414062 161.664062 152.988281 161.621094 152.5625 161.621094 L 28.257812 161.621094 C 28.484375 157.347656 28.898438 153.09375 29.492188 148.859375 C 30.085938 144.621094 30.863281 140.417969 31.824219 136.25 C 32.78125 132.078125 33.917969 127.957031 35.234375 123.886719 C 36.546875 119.816406 38.035156 115.808594 39.695312 111.867188 C 41.355469 107.921875 43.183594 104.058594 45.179688 100.273438 C 47.171875 96.488281 49.328125 92.796875 51.640625 89.199219 C 53.953125 85.597656 56.417969 82.105469 59.035156 78.71875 C 61.648438 75.332031 64.40625 72.066406 67.300781 68.917969 L 83.730469 110.859375 C 84.085938 111.738281 84.527344 112.570312 85.050781 113.359375 C 85.570312 114.148438 86.167969 114.878906 86.832031 115.550781 C 87.5 116.222656 88.226562 116.820312 89.011719 117.347656 C 89.796875 117.875 90.625 118.320312 91.5 118.6875 C 92.375 119.050781 93.273438 119.324219 94.203125 119.511719 C 95.128906 119.695312 96.066406 119.789062 97.015625 119.789062 C 97.960938 119.789062 98.898438 119.695312 99.824219 119.511719 C 100.753906 119.328125 101.65625 119.050781 102.527344 118.6875 C 103.402344 118.324219 104.230469 117.878906 105.019531 117.351562 C 105.804688 116.824219 106.53125 116.226562 107.199219 115.554688 C 107.863281 114.882812 108.460938 114.152344 108.980469 113.363281 C 109.503906 112.574219 109.945312 111.742188 110.304688 110.867188 C 110.660156 109.992188 110.929688 109.089844 111.109375 108.160156 C 111.289062 107.230469 111.375 106.292969 111.371094 105.347656 C 111.363281 104.398438 111.265625 103.464844 111.074219 102.535156 C 110.882812 101.609375 110.605469 100.710938 110.234375 99.839844 L 90.585938 49.675781 C 99.308594 44.140625 108.636719 39.960938 118.574219 37.132812 L 126.726562 113.75 C 126.902344 114.910156 127.175781 116.046875 127.554688 117.15625 C 127.933594 118.269531 128.402344 119.339844 128.972656 120.367188 C 129.539062 121.394531 130.191406 122.363281 130.933594 123.273438 C 131.671875 124.183594 132.488281 125.023438 133.378906 125.789062 C 134.265625 126.554688 135.21875 127.234375 136.226562 127.832031 C 137.238281 128.425781 138.292969 128.929688 139.394531 129.339844 C 140.496094 129.746094 141.625 130.054688 142.777344 130.261719 C 143.933594 130.46875 145.097656 130.574219 146.273438 130.574219 C 147.445312 130.574219 148.609375 130.46875 149.765625 130.261719 C 150.921875 130.054688 152.046875 129.746094 153.148438 129.339844 C 154.25 128.929688 155.304688 128.425781 156.316406 127.832031 C 157.328125 127.234375 158.277344 126.554688 159.164062 125.789062 C 160.054688 125.023438 160.871094 124.183594 161.609375 123.273438 C 162.351562 122.363281 163.003906 121.394531 163.570312 120.367188 C 164.140625 119.339844 164.613281 118.269531 164.988281 117.15625 C 165.367188 116.046875 165.640625 114.910156 165.816406 113.75 L 173.972656 37.117188 C 183.898438 39.949219 193.210938 44.136719 201.917969 49.679688 L 182.265625 99.84375 C 181.894531 100.714844 181.613281 101.613281 181.417969 102.542969 C 181.222656 103.472656 181.125 104.410156 181.117188 105.359375 C 181.105469 106.304688 181.191406 107.246094 181.371094 108.175781 C 181.550781 109.109375 181.816406 110.011719 182.175781 110.890625 C 182.53125 111.769531 182.972656 112.605469 183.496094 113.394531 C 184.019531 114.1875 184.613281 114.917969 185.28125 115.589844 C 185.949219 116.261719 186.679688 116.863281 187.464844 117.394531 C 188.253906 117.921875 189.085938 118.367188 189.960938 118.730469 C 190.835938 119.09375 191.738281 119.371094 192.667969 119.554688 C 193.597656 119.738281 194.539062 119.832031 195.484375 119.832031 C 196.433594 119.828125 197.371094 119.734375 198.300781 119.546875 C 199.230469 119.359375 200.132812 119.082031 201.007812 118.71875 C 201.882812 118.351562 202.714844 117.902344 203.5 117.371094 C 204.285156 116.839844 205.011719 116.238281 205.675781 115.5625 C 206.34375 114.890625 206.9375 114.15625 207.457031 113.363281 C 207.980469 112.570312 208.417969 111.738281 208.773438 110.855469 L 225.261719 68.761719 C 233.808594 77.75 240.976562 87.722656 246.773438 98.683594 C 246.972656 99.066406 247.207031 99.429688 247.476562 99.765625 C 247.746094 100.101562 248.046875 100.40625 248.375 100.683594 C 248.707031 100.960938 249.0625 101.203125 249.441406 101.410156 C 249.816406 101.617188 250.214844 101.785156 250.625 101.910156 C 251.035156 102.039062 251.457031 102.125 251.886719 102.171875 C 252.316406 102.21875 252.742188 102.21875 253.171875 102.179688 C 253.601562 102.140625 254.023438 102.058594 254.4375 101.933594 C 254.851562 101.8125 255.246094 101.648438 255.628906 101.445312 C 256.007812 101.242188 256.367188 101.007812 256.699219 100.734375 C 257.035156 100.460938 257.339844 100.15625 257.613281 99.824219 C 257.886719 99.492188 258.125 99.132812 258.328125 98.753906 C 258.53125 98.371094 258.695312 97.976562 258.820312 97.5625 C 258.945312 97.148438 259.027344 96.730469 259.066406 96.300781 C 259.109375 95.871094 259.105469 95.441406 259.0625 95.011719 C 259.019531 94.582031 258.933594 94.164062 258.804688 93.75 C 258.679688 93.339844 258.511719 92.941406 258.308594 92.5625 C 250.949219 78.652344 241.597656 66.25 230.246094 55.351562 C 230.417969 54.53125 230.519531 53.703125 230.550781 52.867188 C 230.582031 52.027344 230.542969 51.195312 230.433594 50.363281 C 230.328125 49.53125 230.148438 48.714844 229.902344 47.914062 C 229.65625 47.113281 229.34375 46.339844 228.964844 45.589844 C 228.585938 44.839844 228.148438 44.128906 227.652344 43.457031 C 227.15625 42.78125 226.605469 42.152344 226 41.570312 C 225.394531 40.988281 224.75 40.460938 224.054688 39.992188 C 223.363281 39.519531 222.636719 39.109375 221.875 38.757812 C 220.921875 38.328125 219.929688 38.015625 218.90625 37.816406 C 217.878906 37.621094 216.84375 37.542969 215.800781 37.585938 C 214.753906 37.628906 213.730469 37.792969 212.722656 38.074219 C 211.71875 38.355469 210.757812 38.75 209.84375 39.257812 C 197.960938 31.53125 185.109375 26.113281 171.28125 23 C 162.195312 3.324219 130.335938 3.292969 121.257812 23.007812 C 107.425781 26.128906 94.558594 31.546875 82.65625 39.257812 C 82.285156 39.0625 81.945312 38.824219 81.550781 38.660156 C 79.800781 37.925781 77.980469 37.566406 76.082031 37.585938 C 74.183594 37.601562 72.367188 37.992188 70.632812 38.757812 C 69.871094 39.105469 69.144531 39.515625 68.453125 39.988281 C 67.761719 40.457031 67.113281 40.984375 66.507812 41.5625 C 65.90625 42.140625 65.355469 42.769531 64.859375 43.441406 C 64.359375 44.113281 63.921875 44.824219 63.542969 45.570312 C 63.164062 46.316406 62.851562 47.089844 62.605469 47.890625 C 62.355469 48.6875 62.179688 49.503906 62.066406 50.332031 C 61.957031 51.164062 61.917969 51.996094 61.949219 52.832031 C 61.976562 53.667969 62.078125 54.496094 62.246094 55.316406 C 58.671875 58.878906 55.269531 62.597656 52.046875 66.480469 C 48.820312 70.363281 45.78125 74.386719 42.933594 78.554688 C 40.085938 82.722656 37.441406 87.011719 34.996094 91.429688 C 32.550781 95.84375 30.316406 100.363281 28.296875 104.988281 C 26.277344 109.613281 24.476562 114.324219 22.902344 119.117188 C 21.324219 123.914062 19.972656 128.769531 18.851562 133.691406 C 17.730469 138.613281 16.84375 143.574219 16.1875 148.582031 C 15.535156 153.585938 15.113281 158.609375 14.929688 163.652344 C 2.65625 169.808594 4.027344 188.226562 13.035156 196.867188 C 14.164062 198.070312 15.40625 199.148438 16.753906 200.101562 C 18.101562 201.054688 19.53125 201.859375 21.046875 202.519531 C 22.558594 203.179688 24.121094 203.683594 25.734375 204.027344 C 27.351562 204.367188 28.984375 204.546875 30.632812 204.558594 Z M 217.390625 53.058594 L 196.613281 106.097656 C 195.699219 108.152344 193.71875 106.296875 194.425781 104.601562 L 215.203125 51.5625 C 216.121094 49.503906 218.097656 51.359375 217.390625 53.058594 Z M 146.269531 21.109375 C 146.753906 21.085938 147.238281 21.085938 147.722656 21.109375 C 148.210938 21.136719 148.691406 21.1875 149.171875 21.261719 C 149.648438 21.335938 150.125 21.4375 150.59375 21.5625 C 151.0625 21.6875 151.523438 21.835938 151.976562 22.007812 C 152.429688 22.183594 152.875 22.378906 153.308594 22.597656 C 153.742188 22.816406 154.160156 23.054688 154.570312 23.316406 C 154.976562 23.582031 155.371094 23.863281 155.75 24.167969 C 156.128906 24.46875 156.492188 24.792969 156.835938 25.132812 C 157.183594 25.472656 157.507812 25.832031 157.816406 26.207031 C 158.125 26.582031 158.414062 26.972656 158.679688 27.378906 C 158.949219 27.78125 159.195312 28.199219 159.417969 28.628906 C 159.644531 29.058594 159.84375 29.5 160.023438 29.953125 C 160.203125 30.402344 160.355469 30.863281 160.488281 31.332031 C 160.617188 31.796875 160.722656 32.269531 160.804688 32.75 C 160.886719 33.226562 160.945312 33.707031 160.976562 34.191406 C 161.007812 34.675781 161.015625 35.160156 160.996094 35.648438 L 152.828125 112.367188 C 152.144531 119.0625 140.40625 119.117188 139.714844 112.367188 L 131.546875 35.648438 C 131.527344 35.160156 131.535156 34.675781 131.566406 34.191406 C 131.597656 33.707031 131.65625 33.226562 131.738281 32.75 C 131.820312 32.269531 131.925781 31.796875 132.054688 31.332031 C 132.1875 30.863281 132.34375 30.402344 132.519531 29.953125 C 132.699219 29.5 132.902344 29.0625 133.125 28.628906 C 133.347656 28.199219 133.59375 27.78125 133.863281 27.378906 C 134.128906 26.972656 134.417969 26.582031 134.726562 26.207031 C 135.035156 25.832031 135.359375 25.476562 135.707031 25.136719 C 136.050781 24.792969 136.414062 24.472656 136.792969 24.167969 C 137.171875 23.863281 137.566406 23.582031 137.972656 23.320312 C 138.382812 23.058594 138.800781 22.816406 139.234375 22.597656 C 139.667969 22.378906 140.109375 22.183594 140.566406 22.011719 C 141.019531 21.835938 141.480469 21.6875 141.949219 21.5625 C 142.417969 21.4375 142.890625 21.339844 143.371094 21.261719 C 143.851562 21.1875 144.332031 21.136719 144.816406 21.109375 C 145.300781 21.085938 145.785156 21.085938 146.269531 21.109375 Z M 75.855469 50.726562 C 76.480469 50.523438 76.921875 50.753906 77.300781 51.566406 L 98.074219 104.605469 C 98.164062 104.8125 98.214844 105.027344 98.226562 105.25 C 98.238281 105.476562 98.210938 105.695312 98.144531 105.910156 C 98.074219 106.121094 97.972656 106.316406 97.832031 106.492188 C 97.695312 106.671875 97.527344 106.816406 97.335938 106.933594 C 96.792969 107.128906 96.238281 106.914062 95.886719 106.09375 L 75.113281 53.054688 C 75.023438 52.847656 74.972656 52.632812 74.964844 52.410156 C 74.953125 52.183594 74.980469 51.964844 75.046875 51.75 C 75.117188 51.539062 75.21875 51.34375 75.359375 51.164062 C 75.496094 50.988281 75.664062 50.84375 75.855469 50.726562 Z M 75.855469 50.726562 "/><path style=" stroke:none;fill-rule:nonzero;fill:#eab308;fill-opacity:1;" d="M 75.007812 267.21875 C 37.421875 294.144531 74.890625 349.925781 114.046875 325.265625 C 151.589844 298.261719 114.164062 242.628906 75.007812 267.21875 Z M 106.761719 314.433594 C 106.164062 314.824219 105.550781 315.1875 104.917969 315.519531 C 104.289062 315.851562 103.640625 316.152344 102.980469 316.417969 C 102.320312 316.6875 101.648438 316.921875 100.964844 317.125 C 100.28125 317.328125 99.589844 317.5 98.890625 317.632812 C 98.191406 317.769531 97.484375 317.871094 96.773438 317.9375 C 96.066406 318.003906 95.351562 318.035156 94.640625 318.035156 C 93.925781 318.03125 93.214844 317.992188 92.507812 317.921875 C 91.796875 317.847656 91.09375 317.742188 90.394531 317.601562 C 89.695312 317.460938 89.003906 317.285156 88.324219 317.078125 C 87.640625 316.871094 86.96875 316.628906 86.3125 316.355469 C 85.652344 316.082031 85.011719 315.777344 84.382812 315.441406 C 83.753906 315.105469 83.140625 314.738281 82.550781 314.339844 C 81.957031 313.945312 81.382812 313.523438 80.832031 313.070312 C 80.28125 312.617188 79.753906 312.140625 79.246094 311.636719 C 78.742188 311.132812 78.261719 310.605469 77.808594 310.054688 C 77.355469 309.507812 76.929688 308.933594 76.53125 308.34375 C 76.132812 307.753906 75.765625 307.140625 75.425781 306.515625 C 75.089844 305.886719 74.78125 305.246094 74.507812 304.585938 C 74.230469 303.929688 73.988281 303.261719 73.777344 302.578125 C 73.566406 301.898438 73.390625 301.207031 73.246094 300.507812 C 73.105469 299.808594 72.996094 299.105469 72.921875 298.398438 C 72.847656 297.6875 72.808594 296.976562 72.800781 296.265625 C 72.796875 295.550781 72.828125 294.839844 72.890625 294.128906 C 72.957031 293.417969 73.054688 292.714844 73.1875 292.011719 C 73.320312 291.3125 73.488281 290.621094 73.6875 289.9375 C 73.890625 289.253906 74.125 288.578125 74.390625 287.917969 C 74.65625 287.257812 74.953125 286.609375 75.285156 285.976562 C 75.613281 285.34375 75.972656 284.730469 76.363281 284.132812 C 76.753906 283.535156 77.167969 282.957031 77.617188 282.402344 C 78.0625 281.847656 78.535156 281.3125 79.03125 280.800781 C 79.527344 280.292969 80.050781 279.808594 80.597656 279.347656 C 81.140625 278.886719 81.707031 278.457031 82.292969 278.050781 C 82.890625 277.660156 83.503906 277.296875 84.136719 276.96875 C 84.765625 276.636719 85.414062 276.335938 86.074219 276.066406 C 86.734375 275.796875 87.40625 275.5625 88.089844 275.359375 C 88.773438 275.15625 89.464844 274.988281 90.164062 274.851562 C 90.863281 274.714844 91.570312 274.613281 92.28125 274.546875 C 92.988281 274.480469 93.703125 274.449219 94.414062 274.453125 C 95.128906 274.457031 95.839844 274.492188 96.546875 274.566406 C 97.257812 274.636719 97.960938 274.742188 98.660156 274.882812 C 99.359375 275.023438 100.050781 275.199219 100.730469 275.40625 C 101.414062 275.617188 102.085938 275.855469 102.742188 276.128906 C 103.402344 276.40625 104.042969 276.710938 104.671875 277.046875 C 105.300781 277.382812 105.914062 277.75 106.507812 278.144531 C 107.097656 278.539062 107.671875 278.964844 108.222656 279.417969 C 108.773438 279.867188 109.300781 280.347656 109.808594 280.847656 C 110.3125 281.351562 110.792969 281.878906 111.246094 282.429688 C 111.699219 282.980469 112.125 283.550781 112.523438 284.140625 C 112.921875 284.734375 113.289062 285.34375 113.628906 285.972656 C 113.964844 286.597656 114.273438 287.242188 114.546875 287.898438 C 114.824219 288.558594 115.066406 289.226562 115.277344 289.90625 C 115.488281 290.589844 115.664062 291.277344 115.808594 291.976562 C 115.949219 292.675781 116.058594 293.378906 116.132812 294.089844 C 116.207031 294.796875 116.246094 295.507812 116.253906 296.222656 C 116.257812 296.933594 116.226562 297.648438 116.164062 298.355469 C 116.097656 299.066406 116 299.773438 115.867188 300.472656 C 115.734375 301.171875 115.566406 301.867188 115.367188 302.550781 C 115.164062 303.234375 114.929688 303.90625 114.664062 304.566406 C 114.398438 305.230469 114.101562 305.875 113.769531 306.507812 C 113.441406 307.140625 113.082031 307.757812 112.691406 308.351562 C 112.300781 308.949219 111.886719 309.527344 111.4375 310.082031 C 110.992188 310.640625 110.519531 311.171875 110.023438 311.683594 C 109.527344 312.195312 109.003906 312.679688 108.457031 313.140625 C 107.914062 313.597656 107.347656 314.03125 106.761719 314.433594 Z M 106.761719 314.433594 "/><path style=" stroke:none;fill-rule:nonzero;fill:#eab308;fill-opacity:1;" d="M 162.460938 295.316406 L 148.648438 289.769531 C 148.359375 287.347656 147.914062 284.953125 147.308594 282.589844 L 158.132812 271.875 C 158.578125 271.4375 158.980469 270.960938 159.339844 270.449219 C 159.703125 269.9375 160.019531 269.402344 160.289062 268.835938 C 160.554688 268.269531 160.773438 267.6875 160.941406 267.085938 C 161.109375 266.480469 161.222656 265.867188 161.285156 265.246094 C 161.347656 264.625 161.355469 264 161.308594 263.375 C 161.261719 262.753906 161.164062 262.136719 161.011719 261.53125 C 160.859375 260.921875 160.65625 260.335938 160.398438 259.761719 C 160.144531 259.191406 159.84375 258.644531 159.496094 258.125 L 155.203125 251.742188 C 154.851562 251.222656 154.460938 250.734375 154.027344 250.285156 C 153.59375 249.832031 153.121094 249.421875 152.617188 249.050781 C 152.113281 248.679688 151.578125 248.355469 151.015625 248.078125 C 150.453125 247.800781 149.875 247.570312 149.273438 247.394531 C 148.671875 247.21875 148.058594 247.09375 147.4375 247.023438 C 146.8125 246.949219 146.191406 246.933594 145.5625 246.96875 C 144.9375 247.007812 144.320312 247.097656 143.710938 247.242188 C 143.101562 247.382812 142.507812 247.578125 141.929688 247.824219 L 128.488281 253.617188 C 126.511719 252.039062 124.429688 250.605469 122.25 249.320312 L 122.339844 234.328125 C 122.34375 233.703125 122.289062 233.082031 122.183594 232.464844 C 122.082031 231.851562 121.921875 231.246094 121.714844 230.660156 C 121.503906 230.070312 121.246094 229.503906 120.941406 228.957031 C 120.632812 228.414062 120.28125 227.898438 119.886719 227.417969 C 119.488281 226.933594 119.054688 226.484375 118.582031 226.078125 C 118.109375 225.667969 117.605469 225.304688 117.070312 224.980469 C 116.535156 224.660156 115.976562 224.386719 115.390625 224.160156 C 114.808594 223.9375 114.210938 223.761719 113.597656 223.640625 L 106.046875 222.128906 C 105.429688 222.007812 104.808594 221.941406 104.179688 221.925781 C 103.550781 221.914062 102.929688 221.953125 102.308594 222.050781 C 101.6875 222.144531 101.078125 222.292969 100.484375 222.492188 C 99.886719 222.695312 99.316406 222.945312 98.761719 223.246094 C 98.210938 223.546875 97.691406 223.890625 97.199219 224.28125 C 96.707031 224.671875 96.253906 225.105469 95.839844 225.574219 C 95.421875 226.046875 95.050781 226.546875 94.71875 227.082031 C 94.390625 227.617188 94.113281 228.175781 93.878906 228.761719 L 88.589844 242.078125 C 85.953125 242.355469 83.351562 242.832031 80.789062 243.503906 L 70.449219 233.066406 C 70.007812 232.625 69.53125 232.21875 69.019531 231.859375 C 68.511719 231.496094 67.972656 231.179688 67.40625 230.914062 C 66.84375 230.644531 66.257812 230.425781 65.65625 230.257812 C 65.050781 230.089844 64.441406 229.976562 63.816406 229.914062 C 63.195312 229.851562 62.570312 229.84375 61.945312 229.890625 C 61.324219 229.9375 60.707031 230.035156 60.101562 230.1875 C 59.492188 230.34375 58.90625 230.546875 58.332031 230.800781 C 57.761719 231.054688 57.214844 231.355469 56.695312 231.707031 L 50.3125 235.996094 C 49.792969 236.347656 49.304688 236.742188 48.855469 237.175781 C 48.402344 237.609375 47.992188 238.082031 47.625 238.585938 C 47.253906 239.089844 46.929688 239.625 46.652344 240.1875 C 46.375 240.75 46.144531 241.328125 45.96875 241.929688 C 45.792969 242.53125 45.667969 243.144531 45.59375 243.765625 C 45.523438 244.386719 45.507812 245.011719 45.542969 245.636719 C 45.578125 246.261719 45.667969 246.878906 45.8125 247.492188 C 45.957031 248.101562 46.148438 248.695312 46.394531 249.269531 L 51.972656 262.230469 C 50.265625 264.359375 48.734375 266.605469 47.371094 268.972656 L 32.871094 268.855469 C 32.246094 268.859375 31.625 268.910156 31.011719 269.019531 C 30.394531 269.125 29.792969 269.285156 29.203125 269.496094 C 28.617188 269.707031 28.050781 269.96875 27.507812 270.277344 C 26.964844 270.585938 26.449219 270.9375 25.96875 271.335938 C 25.484375 271.730469 25.039062 272.167969 24.632812 272.640625 C 24.226562 273.113281 23.859375 273.621094 23.539062 274.15625 C 23.21875 274.691406 22.945312 275.253906 22.722656 275.835938 C 22.5 276.417969 22.324219 277.019531 22.203125 277.632812 L 20.730469 285.179688 C 20.609375 285.796875 20.542969 286.417969 20.53125 287.046875 C 20.519531 287.671875 20.5625 288.296875 20.65625 288.917969 C 20.753906 289.539062 20.902344 290.144531 21.101562 290.738281 C 21.300781 291.335938 21.554688 291.90625 21.851562 292.457031 C 22.152344 293.011719 22.496094 293.53125 22.886719 294.023438 C 23.277344 294.515625 23.707031 294.96875 24.175781 295.386719 C 24.644531 295.804688 25.148438 296.179688 25.679688 296.507812 C 26.214844 296.839844 26.769531 297.121094 27.355469 297.355469 L 40.390625 302.542969 C 40.710938 305.269531 41.230469 307.953125 41.949219 310.597656 L 31.636719 320.753906 C 31.195312 321.195312 30.792969 321.671875 30.429688 322.179688 C 30.070312 322.691406 29.753906 323.230469 29.484375 323.792969 C 29.214844 324.359375 28.996094 324.941406 28.832031 325.546875 C 28.664062 326.148438 28.546875 326.761719 28.488281 327.382812 C 28.425781 328.007812 28.417969 328.628906 28.464844 329.253906 C 28.507812 329.878906 28.609375 330.492188 28.761719 331.101562 C 28.914062 331.707031 29.117188 332.296875 29.371094 332.867188 C 29.625 333.4375 29.929688 333.984375 30.277344 334.503906 L 34.570312 340.890625 C 34.917969 341.410156 35.3125 341.894531 35.746094 342.34375 C 36.183594 342.796875 36.652344 343.207031 37.160156 343.574219 C 37.664062 343.945312 38.199219 344.269531 38.757812 344.546875 C 39.320312 344.824219 39.902344 345.050781 40.503906 345.230469 C 41.105469 345.40625 41.714844 345.53125 42.339844 345.601562 C 42.960938 345.671875 43.585938 345.691406 44.210938 345.652344 C 44.835938 345.617188 45.453125 345.527344 46.0625 345.382812 C 46.675781 345.242188 47.265625 345.046875 47.84375 344.800781 L 60.921875 339.160156 C 63.027344 340.804688 65.242188 342.28125 67.566406 343.601562 L 67.453125 358.277344 C 67.445312 358.90625 67.496094 359.535156 67.597656 360.15625 C 67.699219 360.777344 67.855469 361.386719 68.066406 361.980469 C 68.273438 362.574219 68.53125 363.144531 68.839844 363.695312 C 69.148438 364.246094 69.503906 364.761719 69.902344 365.25 C 70.300781 365.738281 70.738281 366.1875 71.214844 366.601562 C 71.691406 367.011719 72.203125 367.378906 72.742188 367.699219 C 73.285156 368.023438 73.847656 368.296875 74.4375 368.519531 C 75.027344 368.746094 75.632812 368.914062 76.25 369.035156 L 83.761719 370.476562 C 84.375 370.59375 84.996094 370.65625 85.625 370.667969 C 86.25 370.679688 86.875 370.636719 87.492188 370.539062 C 88.113281 370.445312 88.71875 370.296875 89.3125 370.09375 C 89.90625 369.894531 90.476562 369.644531 91.027344 369.34375 C 91.578125 369.042969 92.097656 368.699219 92.589844 368.308594 C 93.082031 367.921875 93.535156 367.492188 93.953125 367.023438 C 94.367188 366.558594 94.742188 366.058594 95.074219 365.527344 C 95.40625 364.992188 95.6875 364.4375 95.921875 363.855469 L 101.332031 350.332031 C 103.855469 350.019531 106.347656 349.527344 108.804688 348.859375 L 119.324219 359.5625 C 119.765625 360.007812 120.242188 360.410156 120.75 360.769531 C 121.261719 361.132812 121.800781 361.445312 122.367188 361.714844 C 122.929688 361.984375 123.515625 362.203125 124.117188 362.371094 C 124.71875 362.535156 125.332031 362.652344 125.957031 362.714844 C 126.578125 362.773438 127.199219 362.78125 127.824219 362.738281 C 128.449219 362.691406 129.0625 362.589844 129.671875 362.4375 C 130.277344 362.285156 130.867188 362.082031 131.4375 361.828125 C 132.011719 361.574219 132.554688 361.273438 133.074219 360.925781 L 139.460938 356.632812 C 139.980469 356.28125 140.464844 355.890625 140.917969 355.457031 C 141.367188 355.019531 141.777344 354.550781 142.148438 354.046875 C 142.519531 353.539062 142.84375 353.007812 143.121094 352.445312 C 143.398438 351.882812 143.625 351.304688 143.804688 350.703125 C 143.980469 350.101562 144.105469 349.488281 144.175781 348.867188 C 144.25 348.246094 144.265625 347.621094 144.230469 346.996094 C 144.195312 346.371094 144.105469 345.753906 143.960938 345.144531 C 143.820312 344.535156 143.625 343.941406 143.378906 343.363281 L 137.523438 329.742188 C 139.035156 327.804688 140.40625 325.777344 141.636719 323.652344 C 141.699219 323.605469 156.898438 323.78125 156.980469 323.746094 C 157.605469 323.746094 158.222656 323.691406 158.839844 323.585938 C 159.453125 323.476562 160.054688 323.316406 160.640625 323.105469 C 161.226562 322.894531 161.789062 322.632812 162.332031 322.324219 C 162.875 322.015625 163.382812 321.664062 163.867188 321.265625 C 164.347656 320.871094 164.789062 320.433594 165.195312 319.960938 C 165.601562 319.488281 165.960938 318.984375 166.28125 318.445312 C 166.597656 317.910156 166.871094 317.351562 167.089844 316.769531 C 167.3125 316.1875 167.484375 315.589844 167.601562 314.976562 L 169.070312 307.476562 C 169.195312 306.859375 169.261719 306.238281 169.277344 305.613281 C 169.292969 304.984375 169.253906 304.359375 169.15625 303.742188 C 169.0625 303.121094 168.917969 302.511719 168.71875 301.917969 C 168.515625 301.324219 168.265625 300.75 167.96875 300.199219 C 167.667969 299.648438 167.324219 299.128906 166.933594 298.636719 C 166.542969 298.144531 166.113281 297.691406 165.644531 297.273438 C 165.175781 296.859375 164.671875 296.484375 164.136719 296.15625 C 163.605469 295.828125 163.046875 295.546875 162.460938 295.316406 Z M 155.136719 310.675781 C 150.824219 310.949219 136.09375 309.664062 134.476562 311.667969 C 130.472656 314.972656 129.269531 320.761719 125.183594 324.351562 C 124.785156 324.832031 124.457031 325.355469 124.195312 325.917969 C 123.9375 326.484375 123.753906 327.074219 123.652344 327.6875 C 123.546875 328.300781 123.523438 328.917969 123.582031 329.539062 C 123.640625 330.160156 123.777344 330.761719 123.996094 331.34375 L 130.648438 346.820312 L 127.3125 349.0625 L 115.421875 336.960938 C 114.953125 336.535156 114.433594 336.179688 113.867188 335.890625 C 113.304688 335.601562 112.710938 335.394531 112.089844 335.265625 C 111.46875 335.132812 110.839844 335.085938 110.207031 335.125 C 109.574219 335.160156 108.957031 335.277344 108.355469 335.480469 C 103.664062 337.828125 97.230469 336.671875 92.929688 339.144531 C 90.335938 340.164062 86.371094 353.4375 84.476562 357.316406 L 80.523438 356.558594 L 80.65625 339.871094 C 80.628906 339.25 80.523438 338.644531 80.335938 338.054688 C 80.152344 337.460938 79.894531 336.90625 79.5625 336.382812 C 79.230469 335.859375 78.839844 335.386719 78.382812 334.964844 C 77.929688 334.542969 77.429688 334.1875 76.878906 333.898438 C 71.636719 332.066406 68.160156 327.179688 63.121094 325.292969 C 61.820312 325.085938 60.550781 325.199219 59.3125 325.632812 L 44.382812 332.074219 L 42.136719 328.738281 L 53.824219 317.230469 C 54.238281 316.777344 54.589844 316.277344 54.875 315.730469 C 55.160156 315.1875 55.371094 314.613281 55.511719 314.011719 C 55.648438 313.414062 55.707031 312.804688 55.6875 312.191406 C 55.667969 311.574219 55.570312 310.972656 55.390625 310.382812 C 52.996094 305.367188 54 299.378906 51.847656 294.503906 C 50.734375 291.476562 38.976562 288.300781 33.890625 285.902344 L 34.671875 281.929688 L 51.058594 282.058594 C 51.675781 282.046875 52.277344 281.949219 52.871094 281.773438 C 53.460938 281.597656 54.019531 281.34375 54.542969 281.015625 C 55.066406 280.6875 55.535156 280.296875 55.953125 279.84375 C 56.371094 279.386719 56.722656 278.886719 57.003906 278.335938 C 58.867188 272.828125 64.496094 269.230469 65.847656 264.300781 C 67.070312 261.695312 60.367188 249.640625 59.125 245.808594 L 62.464844 243.5625 C 66.808594 248.363281 71.5 252.792969 76.542969 256.855469 C 81.519531 258.160156 87.652344 254.035156 93.300781 254.695312 C 93.945312 254.671875 94.570312 254.558594 95.175781 254.355469 C 95.785156 254.152344 96.355469 253.867188 96.882812 253.503906 C 97.410156 253.140625 97.875 252.707031 98.28125 252.210938 C 98.683594 251.710938 99.011719 251.167969 99.261719 250.578125 L 105.332031 235.300781 L 109.273438 236.089844 L 109.167969 252.996094 C 109.195312 253.605469 109.300781 254.203125 109.484375 254.785156 C 109.667969 255.367188 109.917969 255.917969 110.242188 256.4375 C 110.566406 256.957031 110.949219 257.425781 111.390625 257.84375 C 111.835938 258.265625 112.324219 258.621094 112.859375 258.917969 C 117.179688 261.328125 121.25 264.101562 125.074219 267.238281 C 126.742188 267.828125 128.402344 267.800781 130.050781 267.164062 L 145.390625 260.550781 L 147.636719 263.894531 C 145.613281 266.328125 133.566406 276.550781 133.816406 279.09375 C 133.28125 284.253906 136.449219 289.292969 136.089844 294.644531 C 136.136719 295.269531 136.265625 295.875 136.476562 296.464844 C 136.6875 297.050781 136.972656 297.601562 137.332031 298.109375 C 137.695312 298.621094 138.117188 299.074219 138.597656 299.472656 C 139.082031 299.867188 139.609375 300.191406 140.179688 300.445312 L 155.90625 306.753906 Z M 155.136719 310.675781 "/><path style=" stroke:none;fill-rule:nonzero;fill:#eab308;fill-opacity:1;" d="M 280.050781 179.386719 C 220.523438 169.601562 203.71875 255.546875 262.523438 268.910156 C 322.003906 278.734375 338.886719 192.753906 280.050781 179.386719 Z M 303.234375 230.40625 C 293.695312 272.382812 232.339844 260.363281 239.335938 217.894531 C 248.574219 176.042969 310.421875 188.003906 303.234375 230.40625 Z M 303.234375 230.40625 "/><path style=" stroke:none;fill-rule:nonzero;fill:#eab308;fill-opacity:1;" d="M 363.707031 225.140625 L 343.542969 217.042969 C 343.128906 212.800781 342.347656 208.625 341.207031 204.515625 L 356.949219 188.941406 C 357.460938 188.433594 357.921875 187.886719 358.335938 187.300781 C 358.753906 186.714844 359.113281 186.097656 359.421875 185.449219 C 359.730469 184.800781 359.980469 184.128906 360.175781 183.4375 C 360.367188 182.742188 360.5 182.039062 360.570312 181.324219 C 360.640625 180.609375 360.648438 179.894531 360.597656 179.175781 C 360.542969 178.460938 360.429688 177.753906 360.253906 177.058594 C 360.078125 176.359375 359.847656 175.683594 359.554688 175.027344 C 359.261719 174.371094 358.914062 173.742188 358.515625 173.148438 L 352.613281 164.375 C 352.210938 163.777344 351.761719 163.21875 351.261719 162.703125 C 350.761719 162.183594 350.222656 161.710938 349.640625 161.285156 C 349.0625 160.863281 348.449219 160.488281 347.804688 160.171875 C 347.160156 159.851562 346.492188 159.589844 345.800781 159.386719 C 345.109375 159.183594 344.410156 159.039062 343.695312 158.957031 C 342.980469 158.875 342.261719 158.855469 341.542969 158.894531 C 340.824219 158.9375 340.117188 159.039062 339.414062 159.207031 C 338.714844 159.371094 338.035156 159.59375 337.371094 159.875 L 317.730469 168.339844 C 314.359375 165.519531 310.757812 163.039062 306.921875 160.890625 L 307.054688 139.082031 C 307.058594 138.363281 307 137.652344 306.875 136.941406 C 306.753906 136.234375 306.574219 135.542969 306.332031 134.867188 C 306.09375 134.191406 305.796875 133.539062 305.445312 132.914062 C 305.089844 132.289062 304.6875 131.699219 304.230469 131.140625 C 303.777344 130.585938 303.277344 130.074219 302.734375 129.601562 C 302.191406 129.132812 301.613281 128.714844 300.996094 128.34375 C 300.382812 127.972656 299.738281 127.660156 299.070312 127.402344 C 298.398438 127.140625 297.710938 126.941406 297.007812 126.800781 L 286.644531 124.730469 C 285.933594 124.585938 285.21875 124.507812 284.5 124.492188 C 283.777344 124.472656 283.058594 124.519531 282.34375 124.625 C 281.632812 124.734375 280.933594 124.902344 280.246094 125.132812 C 279.5625 125.363281 278.90625 125.652344 278.269531 126 C 277.636719 126.34375 277.039062 126.742188 276.472656 127.191406 C 275.910156 127.640625 275.386719 128.136719 274.910156 128.679688 C 274.433594 129.21875 274.003906 129.796875 273.628906 130.414062 C 273.25 131.03125 272.929688 131.671875 272.667969 132.34375 L 264.925781 151.824219 C 260.378906 152.203125 255.917969 153.019531 251.53125 154.277344 L 236.472656 139.078125 C 235.96875 138.570312 235.421875 138.105469 234.835938 137.691406 C 234.25 137.273438 233.632812 136.914062 232.980469 136.605469 C 232.332031 136.296875 231.664062 136.042969 230.96875 135.851562 C 230.277344 135.660156 229.574219 135.527344 228.859375 135.457031 C 228.144531 135.386719 227.425781 135.378906 226.710938 135.429688 C 225.996094 135.484375 225.289062 135.597656 224.589844 135.773438 C 223.894531 135.949219 223.214844 136.179688 222.558594 136.472656 C 221.902344 136.765625 221.277344 137.113281 220.679688 137.511719 L 211.914062 143.410156 C 211.316406 143.8125 210.757812 144.265625 210.238281 144.761719 C 209.71875 145.261719 209.246094 145.800781 208.820312 146.382812 C 208.394531 146.960938 208.023438 147.574219 207.703125 148.21875 C 207.382812 148.863281 207.121094 149.53125 206.917969 150.222656 C 206.714844 150.914062 206.570312 151.617188 206.488281 152.332031 C 206.40625 153.046875 206.386719 153.761719 206.429688 154.480469 C 206.472656 155.199219 206.574219 155.910156 206.738281 156.609375 C 206.90625 157.3125 207.128906 157.992188 207.410156 158.652344 L 215.652344 177.804688 C 212.699219 181.328125 210.117188 185.105469 207.902344 189.132812 L 186.617188 188.96875 C 185.894531 188.96875 185.183594 189.027344 184.472656 189.152344 C 183.765625 189.273438 183.070312 189.453125 182.394531 189.695312 C 181.71875 189.9375 181.066406 190.234375 180.441406 190.589844 C 179.8125 190.945312 179.222656 191.347656 178.667969 191.804688 C 178.113281 192.261719 177.597656 192.761719 177.128906 193.304688 C 176.660156 193.851562 176.238281 194.429688 175.871094 195.046875 C 175.5 195.664062 175.1875 196.308594 174.929688 196.980469 C 174.671875 197.652344 174.472656 198.339844 174.332031 199.042969 L 172.296875 209.429688 C 172.160156 210.136719 172.085938 210.851562 172.074219 211.574219 C 172.058594 212.292969 172.109375 213.007812 172.21875 213.722656 C 172.328125 214.433594 172.5 215.128906 172.730469 215.8125 C 172.960938 216.496094 173.25 217.152344 173.59375 217.785156 C 173.941406 218.417969 174.335938 219.015625 174.785156 219.582031 C 175.230469 220.144531 175.726562 220.667969 176.261719 221.148438 C 176.800781 221.625 177.378906 222.054688 177.988281 222.433594 C 178.601562 222.8125 179.242188 223.136719 179.910156 223.40625 L 198.992188 231.003906 C 199.445312 235.664062 200.335938 240.242188 201.65625 244.734375 L 186.613281 259.550781 C 186.101562 260.058594 185.640625 260.605469 185.226562 261.191406 C 184.808594 261.777344 184.449219 262.394531 184.140625 263.042969 C 183.832031 263.691406 183.582031 264.363281 183.386719 265.054688 C 183.195312 265.75 183.0625 266.453125 182.992188 267.167969 C 182.921875 267.882812 182.914062 268.597656 182.964844 269.316406 C 183.019531 270.03125 183.132812 270.738281 183.308594 271.433594 C 183.484375 272.132812 183.714844 272.808594 184.007812 273.464844 C 184.300781 274.121094 184.648438 274.75 185.046875 275.34375 L 190.949219 284.117188 C 191.351562 284.714844 191.800781 285.273438 192.300781 285.789062 C 192.800781 286.308594 193.339844 286.78125 193.921875 287.207031 C 194.5 287.628906 195.113281 288.003906 195.757812 288.320312 C 196.402344 288.640625 197.070312 288.902344 197.761719 289.105469 C 198.453125 289.308594 199.15625 289.453125 199.867188 289.535156 C 200.582031 289.617188 201.300781 289.636719 202.019531 289.59375 C 202.738281 289.550781 203.445312 289.449219 204.148438 289.285156 C 204.847656 289.121094 205.527344 288.894531 206.191406 288.613281 L 225.316406 280.363281 C 228.871094 283.265625 232.664062 285.800781 236.703125 287.976562 L 236.539062 309.386719 C 236.53125 310.113281 236.585938 310.832031 236.703125 311.546875 C 236.820312 312.261719 236.996094 312.957031 237.238281 313.640625 C 237.476562 314.324219 237.773438 314.984375 238.128906 315.613281 C 238.480469 316.246094 238.886719 316.84375 239.34375 317.402344 C 239.804688 317.964844 240.308594 318.480469 240.855469 318.953125 C 241.402344 319.425781 241.988281 319.847656 242.609375 320.21875 C 243.234375 320.585938 243.882812 320.902344 244.558594 321.160156 C 245.238281 321.414062 245.929688 321.613281 246.640625 321.746094 L 256.960938 323.726562 C 257.667969 323.859375 258.382812 323.9375 259.101562 323.949219 C 259.820312 323.960938 260.539062 323.914062 261.25 323.804688 C 261.960938 323.695312 262.660156 323.523438 263.339844 323.292969 C 264.023438 323.0625 264.679688 322.773438 265.3125 322.429688 C 265.945312 322.085938 266.542969 321.691406 267.109375 321.246094 C 267.671875 320.796875 268.195312 320.304688 268.675781 319.769531 C 269.15625 319.230469 269.585938 318.65625 269.964844 318.046875 C 270.347656 317.433594 270.671875 316.792969 270.941406 316.128906 L 278.835938 296.375 C 283.226562 295.925781 287.535156 295.074219 291.765625 293.828125 L 307.085938 309.410156 C 307.589844 309.921875 308.136719 310.382812 308.722656 310.800781 C 309.3125 311.214844 309.929688 311.578125 310.578125 311.886719 C 311.226562 312.195312 311.898438 312.445312 312.589844 312.636719 C 313.28125 312.832031 313.984375 312.964844 314.703125 313.035156 C 315.417969 313.105469 316.132812 313.113281 316.851562 313.0625 C 317.566406 313.007812 318.273438 312.894531 318.972656 312.71875 C 319.667969 312.542969 320.34375 312.308594 321 312.019531 C 321.660156 311.726562 322.285156 311.378906 322.882812 310.980469 L 331.652344 305.078125 C 332.25 304.675781 332.808594 304.226562 333.324219 303.726562 C 333.84375 303.226562 334.316406 302.6875 334.742188 302.109375 C 335.167969 301.527344 335.539062 300.914062 335.859375 300.269531 C 336.175781 299.625 336.4375 298.957031 336.644531 298.269531 C 336.847656 297.578125 336.988281 296.875 337.070312 296.160156 C 337.152344 295.445312 337.175781 294.730469 337.132812 294.011719 C 337.089844 293.292969 336.988281 292.585938 336.824219 291.882812 C 336.660156 291.183594 336.4375 290.503906 336.152344 289.839844 L 327.539062 269.800781 C 330.203125 266.527344 332.558594 263.042969 334.605469 259.355469 C 334.660156 259.292969 357.011719 259.535156 357.09375 259.492188 C 357.808594 259.488281 358.519531 259.425781 359.222656 259.300781 C 359.929688 259.175781 360.617188 258.992188 361.292969 258.75 C 361.964844 258.507812 362.613281 258.207031 363.234375 257.851562 C 363.855469 257.5 364.441406 257.09375 364.992188 256.636719 C 365.546875 256.179688 366.054688 255.679688 366.519531 255.136719 C 366.984375 254.59375 367.402344 254.011719 367.765625 253.398438 C 368.132812 252.78125 368.441406 252.140625 368.695312 251.46875 C 368.949219 250.800781 369.144531 250.117188 369.28125 249.414062 L 371.292969 239.117188 C 371.433594 238.410156 371.515625 237.695312 371.53125 236.972656 C 371.550781 236.253906 371.503906 235.535156 371.398438 234.824219 C 371.289062 234.109375 371.121094 233.410156 370.890625 232.726562 C 370.664062 232.042969 370.375 231.386719 370.03125 230.753906 C 369.6875 230.117188 369.292969 229.519531 368.84375 228.957031 C 368.394531 228.390625 367.902344 227.867188 367.363281 227.390625 C 366.824219 226.910156 366.246094 226.484375 365.632812 226.105469 C 365.019531 225.726562 364.375 225.40625 363.707031 225.140625 Z M 356.558594 246.429688 L 330.890625 246.273438 C 329.632812 246.332031 328.476562 246.703125 327.417969 247.386719 C 326.59375 247.800781 325.964844 248.414062 325.53125 249.230469 C 322.734375 254.730469 319.292969 259.792969 315.203125 264.414062 C 314.804688 264.890625 314.476562 265.414062 314.214844 265.980469 C 313.953125 266.546875 313.773438 267.136719 313.667969 267.75 C 313.5625 268.363281 313.542969 268.980469 313.597656 269.601562 C 313.65625 270.21875 313.796875 270.820312 314.011719 271.40625 L 323.949219 294.523438 L 316.011719 299.863281 L 298.246094 281.796875 C 297.289062 280.960938 296.191406 280.394531 294.957031 280.097656 C 288.945312 279.964844 281.742188 283.988281 273.964844 283.683594 C 273.347656 283.746094 272.746094 283.882812 272.167969 284.101562 C 271.585938 284.320312 271.042969 284.609375 270.539062 284.96875 C 270.035156 285.328125 269.582031 285.746094 269.1875 286.222656 C 268.792969 286.703125 268.464844 287.222656 268.207031 287.785156 L 259 310.824219 L 249.601562 309.019531 C 249.488281 307.578125 250.210938 282.191406 249.324219 281.652344 C 248.613281 280.101562 247.511719 278.910156 246.015625 278.085938 C 240.105469 275.207031 234.695312 271.585938 229.78125 267.21875 C 228.878906 266.710938 227.914062 266.414062 226.882812 266.335938 C 225.847656 266.253906 224.847656 266.398438 223.878906 266.765625 L 201.503906 276.417969 L 196.164062 268.472656 L 213.660156 251.238281 C 214.511719 250.320312 215.066406 249.246094 215.328125 248.023438 C 215.632812 247.132812 215.644531 246.242188 215.367188 245.34375 C 213.300781 239.121094 212.085938 232.738281 211.714844 226.195312 C 211.671875 225.558594 211.539062 224.941406 211.320312 224.34375 C 211.105469 223.746094 210.808594 223.1875 210.4375 222.667969 C 210.066406 222.152344 209.632812 221.695312 209.132812 221.300781 C 208.632812 220.902344 208.089844 220.582031 207.503906 220.335938 L 185.207031 211.460938 L 187.054688 202.03125 C 188.433594 201.894531 213.398438 202.6875 213.878906 201.773438 C 214.671875 201.476562 215.382812 201.046875 216.015625 200.480469 C 216.644531 199.917969 217.152344 199.257812 217.535156 198.503906 C 220.183594 192.898438 223.640625 187.847656 227.910156 183.355469 C 228.34375 182.882812 228.703125 182.359375 228.988281 181.785156 C 229.273438 181.210938 229.46875 180.609375 229.585938 179.976562 C 229.699219 179.347656 229.722656 178.710938 229.65625 178.074219 C 229.589844 177.4375 229.433594 176.824219 229.191406 176.230469 L 219.613281 153.96875 L 227.554688 148.628906 C 233.820312 155.378906 240.441406 161.757812 247.421875 167.761719 C 248.882812 168.332031 250.351562 168.355469 251.828125 167.835938 C 257.566406 165.808594 263.476562 164.742188 269.5625 164.632812 C 270.203125 164.605469 270.828125 164.492188 271.4375 164.292969 C 272.046875 164.089844 272.613281 163.804688 273.140625 163.441406 C 273.671875 163.074219 274.136719 162.644531 274.542969 162.144531 C 274.945312 161.648438 275.273438 161.105469 275.523438 160.511719 L 284.613281 137.640625 L 293.996094 139.515625 C 294.085938 140.816406 293.449219 166.789062 294.300781 167.117188 C 294.808594 168.375 295.632812 169.371094 296.773438 170.105469 C 302.34375 172.964844 307.441406 176.5 312.066406 180.71875 C 312.539062 181.140625 313.058594 181.488281 313.628906 181.765625 C 314.199219 182.042969 314.792969 182.234375 315.417969 182.347656 C 316.042969 182.457031 316.667969 182.476562 317.300781 182.414062 C 317.929688 182.347656 318.539062 182.195312 319.125 181.960938 L 342.058594 172.074219 L 347.398438 180.019531 L 329.238281 197.988281 C 328.507812 198.761719 327.988281 199.660156 327.6875 200.683594 C 327.386719 201.703125 327.332031 202.738281 327.527344 203.785156 C 329.355469 210.007812 330.53125 216.351562 331.054688 222.816406 C 331.273438 224.148438 331.855469 225.296875 332.800781 226.265625 C 332.285156 227.023438 357.472656 236.578125 358.390625 237.074219 Z M 356.558594 246.429688 "/></g></svg>