<svg xmlns="http://www.w3.org/2000/svg" xmlns:xlink="http://www.w3.org/1999/xlink" width="500" zoomAndPan="magnify" viewBox="0 0 375 374.999991" height="500" preserveAspectRatio="xMidYMid meet" version="1.2"><defs><clipPath id="4291f5be97"><path d="M 49.6875 46.03125 L 325.261719 46.03125 L 325.261719 374.738281 L 49.6875 374.738281 Z M 49.6875 46.03125 "/></clipPath></defs><g id="e54eac09dc"><path style=" stroke:none;fill-rule:evenodd;fill:#eab308;fill-opacity:1;" d="M 223.21875 134.550781 L 151.730469 134.550781 C 149.574219 134.550781 147.828125 132.804688 147.828125 130.65625 C 147.828125 128.5 149.574219 126.75 151.730469 126.75 L 223.21875 126.75 C 225.375 126.75 227.121094 128.5 227.121094 130.65625 C 227.121094 132.804688 225.375 134.550781 223.21875 134.550781 "/><path style=" stroke:none;fill-rule:evenodd;fill:#eab308;fill-opacity:1;" d="M 239.71875 162.964844 L 135.234375 162.964844 C 133.078125 162.964844 131.332031 161.21875 131.332031 159.066406 C 131.332031 156.910156 133.078125 155.164062 135.234375 155.164062 L 239.71875 155.164062 C 241.871094 155.164062 243.617188 156.910156 243.617188 159.066406 C 243.617188 161.21875 241.871094 162.964844 239.71875 162.964844 "/><path style=" stroke:none;fill-rule:evenodd;fill:#eab308;fill-opacity:1;" d="M 270.488281 218.875 L 153.167969 218.875 C 151.015625 218.875 149.269531 217.128906 149.269531 214.972656 C 149.269531 212.820312 151.015625 211.074219 153.167969 211.074219 L 270.488281 211.074219 C 272.644531 211.074219 274.390625 212.820312 274.390625 214.972656 C 274.390625 217.128906 272.644531 218.875 270.488281 218.875 "/><path style=" stroke:none;fill-rule:evenodd;fill:#eab308;fill-opacity:1;" d="M 270.488281 265.621094 L 153.167969 265.621094 C 151.015625 265.621094 149.269531 263.875 149.269531 261.71875 C 149.269531 259.5625 151.015625 257.816406 153.167969 257.816406 L 270.488281 257.816406 C 272.644531 257.816406 274.390625 259.5625 274.390625 261.71875 C 274.390625 263.875 272.644531 265.621094 270.488281 265.621094 "/><path style=" stroke:none;fill-rule:evenodd;fill:#eab308;fill-opacity:1;" d="M 270.488281 312.363281 L 153.167969 312.363281 C 151.015625 312.363281 149.269531 310.617188 149.269531 308.464844 C 149.269531 306.308594 151.015625 304.5625 153.167969 304.5625 L 270.488281 304.5625 C 272.644531 304.5625 274.390625 306.308594 274.390625 308.464844 C 274.390625 310.617188 272.644531 312.363281 270.488281 312.363281 "/><path style=" stroke:none;fill-rule:evenodd;fill:#eab308;fill-opacity:1;" d="M 105.742188 215.195312 L 125.898438 215.195312 L 125.898438 195.042969 L 105.742188 195.042969 Z M 129.796875 223 L 101.84375 223 C 99.691406 223 97.945312 221.253906 97.945312 219.097656 L 97.945312 191.144531 C 97.945312 188.988281 99.691406 187.242188 101.84375 187.242188 L 129.796875 187.242188 C 131.949219 187.242188 133.695312 188.992188 133.695312 191.144531 L 133.695312 219.097656 C 133.695312 221.253906 131.949219 223 129.796875 223 "/><path style=" stroke:none;fill-rule:evenodd;fill:#eab308;fill-opacity:1;" d="M 105.742188 263.316406 L 125.898438 263.316406 L 125.898438 243.160156 L 105.742188 243.160156 Z M 129.796875 271.117188 L 101.84375 271.117188 C 99.691406 271.117188 97.945312 269.371094 97.945312 267.214844 L 97.945312 239.261719 C 97.945312 237.105469 99.691406 235.359375 101.84375 235.359375 L 129.796875 235.359375 C 131.949219 235.359375 133.695312 237.105469 133.695312 239.261719 L 133.695312 267.214844 C 133.695312 269.371094 131.949219 271.117188 129.796875 271.117188 "/><path style=" stroke:none;fill-rule:evenodd;fill:#eab308;fill-opacity:1;" d="M 105.742188 311.429688 L 125.898438 311.429688 L 125.898438 291.277344 L 105.742188 291.277344 Z M 129.796875 319.230469 L 101.84375 319.230469 C 99.691406 319.230469 97.945312 317.484375 97.945312 315.335938 L 97.945312 287.375 C 97.945312 285.226562 99.691406 283.480469 101.84375 283.480469 L 129.796875 283.480469 C 131.949219 283.480469 133.695312 285.226562 133.695312 287.375 L 133.695312 315.335938 C 133.695312 317.484375 131.949219 319.230469 129.796875 319.230469 "/><g clip-rule="nonzero" clip-path="url(#4291f5be97)"><path style=" stroke:none;fill-rule:evenodd;fill:#eab308;fill-opacity:1;" d="M 285.792969 374.738281 L 89.152344 374.738281 C 67.390625 374.738281 49.6875 357.03125 49.6875 335.273438 L 49.6875 86.328125 C 49.6875 64.566406 67.390625 46.863281 89.152344 46.863281 L 122.625 46.863281 C 124.78125 46.863281 126.527344 48.609375 126.527344 50.765625 C 126.527344 52.917969 124.78125 54.664062 122.625 54.664062 L 89.152344 54.664062 C 71.691406 54.664062 57.484375 68.867188 57.484375 86.328125 L 57.484375 335.273438 C 57.484375 352.734375 71.691406 366.941406 89.152344 366.941406 L 285.792969 366.941406 C 303.257812 366.941406 317.460938 352.734375 317.460938 335.273438 L 317.460938 86.328125 C 317.460938 68.867188 303.257812 54.664062 285.792969 54.664062 L 252.324219 54.664062 C 250.171875 54.664062 248.425781 52.917969 248.425781 50.765625 C 248.425781 48.609375 250.171875 46.863281 252.324219 46.863281 L 285.792969 46.863281 C 307.558594 46.863281 325.261719 64.566406 325.261719 86.328125 L 325.261719 335.273438 C 325.261719 357.03125 307.558594 374.738281 285.792969 374.738281 "/></g><path style=" stroke:none;fill-rule:evenodd;fill:#eab308;fill-opacity:1;" d="M 285.796875 349.632812 L 89.15625 349.632812 C 81.234375 349.632812 74.792969 343.1875 74.792969 335.273438 L 74.792969 86.328125 C 74.792969 78.410156 81.238281 71.96875 89.15625 71.96875 L 122.625 71.96875 C 124.78125 71.96875 126.527344 73.710938 126.527344 75.867188 C 126.527344 78.019531 124.78125 79.765625 122.625 79.765625 L 89.15625 79.765625 C 85.535156 79.765625 82.59375 82.710938 82.59375 86.328125 L 82.59375 335.273438 C 82.59375 338.890625 85.535156 341.832031 89.15625 341.832031 L 285.796875 341.832031 C 289.417969 341.832031 292.359375 338.890625 292.359375 335.273438 L 292.359375 86.328125 C 292.359375 82.710938 289.417969 79.765625 285.796875 79.765625 L 252.324219 79.765625 C 250.171875 79.765625 248.425781 78.019531 248.425781 75.867188 C 248.425781 73.710938 250.171875 71.96875 252.324219 71.96875 L 285.796875 71.96875 C 293.714844 71.96875 300.160156 78.410156 300.160156 86.328125 L 300.160156 335.273438 C 300.160156 343.1875 293.714844 349.632812 285.796875 349.632812 "/><path style=" stroke:none;fill-rule:evenodd;fill:#eab308;fill-opacity:1;" d="M 126.527344 89.226562 L 248.425781 89.226562 L 248.425781 35.3125 L 214.671875 35.3125 C 212.515625 35.3125 210.769531 33.566406 210.769531 31.410156 C 210.769531 18.566406 200.320312 8.113281 187.472656 8.113281 C 174.628906 8.113281 164.179688 18.566406 164.179688 31.410156 C 164.179688 33.566406 162.433594 35.3125 160.277344 35.3125 L 126.527344 35.3125 Z M 252.324219 97.027344 L 122.625 97.027344 C 120.46875 97.027344 118.722656 95.28125 118.722656 93.125 L 118.722656 31.414062 C 118.722656 29.257812 120.46875 27.511719 122.625 27.511719 L 156.625 27.511719 C 158.546875 12.199219 171.652344 0.316406 187.472656 0.316406 C 203.300781 0.316406 216.402344 12.199219 218.328125 27.511719 L 252.328125 27.511719 C 254.484375 27.511719 256.226562 29.257812 256.226562 31.410156 L 256.226562 93.125 C 256.226562 95.28125 254.480469 97.027344 252.324219 97.027344 "/></g></svg>