<svg xmlns="http://www.w3.org/2000/svg" xmlns:xlink="http://www.w3.org/1999/xlink" width="500" zoomAndPan="magnify" viewBox="0 0 375 374.999991" height="500" preserveAspectRatio="xMidYMid meet" version="1.2"><g id="fc171777b8"><path style=" stroke:none;fill-rule:evenodd;fill:#eab308;fill-opacity:1;" d="M 143.246094 33.128906 C 143.246094 31.757812 143.730469 30.710938 144.777344 29.828125 C 145.828125 28.949219 146.945312 28.648438 148.296875 28.886719 L 167.367188 32.21875 C 168.878906 32.480469 170.429688 32.0625 171.617188 31.074219 C 172.789062 30.082031 173.46875 28.625 173.46875 27.085938 L 173.46875 24.445312 C 173.46875 16.707031 179.761719 10.417969 187.5 10.417969 C 195.238281 10.417969 201.527344 16.707031 201.527344 24.445312 L 201.527344 27.085938 C 201.527344 28.625 202.210938 30.082031 203.386719 31.074219 C 204.5625 32.0625 206.117188 32.480469 207.636719 32.21875 L 226.707031 28.886719 C 228.0625 28.648438 229.167969 28.949219 230.214844 29.828125 C 231.265625 30.710938 231.757812 31.757812 231.757812 33.128906 L 231.757812 48.625 L 143.246094 48.625 Z M 296.117188 262.972656 L 296.117188 242.828125 C 296.117188 239.949219 293.789062 237.617188 290.910156 237.617188 C 288.027344 237.617188 285.699219 239.949219 285.699219 242.828125 L 285.699219 262.972656 C 285.699219 265.847656 288.035156 268.179688 290.910156 268.179688 C 293.78125 268.179688 296.117188 265.847656 296.117188 262.972656 Z M 222.5 285.546875 C 222.5 288.421875 224.828125 290.757812 227.710938 290.757812 L 271.617188 290.757812 C 274.496094 290.757812 276.824219 288.421875 276.824219 285.546875 C 276.824219 282.671875 274.496094 280.339844 271.617188 280.339844 L 227.710938 280.339844 C 224.828125 280.339844 222.5 282.667969 222.5 285.546875 Z M 147.570312 280.339844 L 103.378906 280.339844 C 100.507812 280.339844 98.171875 282.667969 98.171875 285.546875 C 98.171875 288.425781 100.507812 290.757812 103.378906 290.757812 L 147.570312 290.757812 C 150.449219 290.757812 152.777344 288.421875 152.777344 285.546875 C 152.777344 282.671875 150.449219 280.339844 147.570312 280.339844 Z M 84.085938 262.878906 C 86.964844 262.878906 89.292969 260.546875 89.292969 257.667969 L 89.292969 54.480469 C 89.292969 48.734375 93.964844 44.0625 99.710938 44.0625 L 132.832031 44.0625 L 132.832031 53.832031 C 132.832031 56.710938 135.160156 59.042969 138.039062 59.042969 L 236.96875 59.042969 C 239.835938 59.042969 242.175781 56.710938 242.175781 53.832031 L 242.175781 44.0625 L 275.285156 44.0625 C 281.027344 44.0625 285.703125 48.738281 285.703125 54.480469 L 285.703125 72.125 C 285.703125 75.003906 288.039062 77.335938 290.910156 77.335938 C 293.785156 77.335938 296.117188 75.003906 296.117188 72.125 L 296.117188 54.480469 C 296.117188 42.992188 286.773438 33.648438 275.285156 33.648438 L 242.175781 33.648438 L 242.175781 33.128906 C 242.175781 28.707031 240.308594 24.699219 236.921875 21.855469 C 233.535156 19.007812 229.273438 17.863281 224.914062 18.625 L 211.691406 20.933594 C 209.988281 9.113281 199.789062 0 187.503906 0 C 175.21875 0 165.015625 9.113281 163.304688 20.933594 L 150.085938 18.625 C 145.726562 17.863281 141.46875 19.011719 138.074219 21.855469 C 134.6875 24.699219 132.832031 28.707031 132.832031 33.128906 L 132.832031 33.648438 L 99.714844 33.648438 C 88.226562 33.648438 78.878906 42.992188 78.878906 54.480469 L 78.878906 257.667969 C 78.878906 260.546875 81.210938 262.878906 84.085938 262.878906 Z M 84.085938 262.878906 "/><path style=" stroke:none;fill-rule:evenodd;fill:#eab308;fill-opacity:1;" d="M 263.207031 84.148438 C 263.207031 81.273438 260.875 78.9375 258 78.9375 L 168.96875 78.9375 C 166.085938 78.9375 163.757812 81.273438 163.757812 84.148438 C 163.757812 87.023438 166.085938 89.355469 168.96875 89.355469 L 258 89.355469 C 260.871094 89.355469 263.207031 87.027344 263.207031 84.148438 Z M 263.207031 84.148438 "/><path style=" stroke:none;fill-rule:evenodd;fill:#eab308;fill-opacity:1;" d="M 232.410156 107.5625 C 232.410156 104.6875 230.082031 102.355469 227.203125 102.355469 L 168.96875 102.355469 C 166.085938 102.355469 163.757812 104.6875 163.757812 107.5625 C 163.757812 110.441406 166.085938 112.773438 168.96875 112.773438 L 227.203125 112.773438 C 230.082031 112.773438 232.410156 110.441406 232.410156 107.5625 Z M 232.410156 107.5625 "/><path style=" stroke:none;fill-rule:evenodd;fill:#eab308;fill-opacity:1;" d="M 224.453125 167.007812 L 168.96875 167.007812 C 166.085938 167.007812 163.757812 169.339844 163.757812 172.214844 C 163.757812 175.09375 166.085938 177.425781 168.96875 177.425781 L 224.453125 177.425781 C 227.320312 177.425781 229.660156 175.09375 229.660156 172.214844 C 229.660156 169.339844 227.320312 167.007812 224.453125 167.007812 Z M 224.453125 167.007812 "/><path style=" stroke:none;fill-rule:evenodd;fill:#eab308;fill-opacity:1;" d="M 224.453125 143.59375 L 168.96875 143.59375 C 166.085938 143.59375 163.757812 145.925781 163.757812 148.800781 C 163.757812 151.679688 166.085938 154.011719 168.96875 154.011719 L 224.453125 154.011719 C 227.320312 154.011719 229.660156 151.675781 229.660156 148.800781 C 229.660156 145.929688 227.320312 143.59375 224.453125 143.59375 Z M 224.453125 143.59375 "/><path style=" stroke:none;fill-rule:evenodd;fill:#eab308;fill-opacity:1;" d="M 242.382812 208.242188 L 168.96875 208.242188 C 166.085938 208.242188 163.757812 210.578125 163.757812 213.453125 C 163.757812 216.332031 166.085938 218.664062 168.96875 218.664062 L 242.382812 218.664062 C 245.261719 218.664062 247.589844 216.332031 247.589844 213.453125 C 247.589844 210.578125 245.261719 208.242188 242.382812 208.242188 Z M 242.382812 208.242188 "/><path style=" stroke:none;fill-rule:evenodd;fill:#eab308;fill-opacity:1;" d="M 257.414062 231.660156 L 168.96875 231.660156 C 166.085938 231.660156 163.757812 233.992188 163.757812 236.871094 C 163.757812 239.746094 166.085938 242.078125 168.96875 242.078125 L 257.414062 242.078125 C 260.285156 242.078125 262.621094 239.746094 262.621094 236.871094 C 262.621094 233.992188 260.285156 231.660156 257.414062 231.660156 Z M 257.414062 231.660156 "/><path style=" stroke:none;fill-rule:evenodd;fill:#eab308;fill-opacity:1;" d="M 152.101562 80.390625 C 150.070312 78.355469 146.773438 78.355469 144.734375 80.390625 L 125.96875 99.15625 L 121.511719 91.429688 C 120.074219 88.941406 116.890625 88.085938 114.398438 89.523438 C 111.90625 90.964844 111.050781 94.144531 112.484375 96.636719 L 120.34375 110.242188 C 121.15625 111.640625 122.566406 112.589844 124.175781 112.800781 C 124.398438 112.828125 124.628906 112.84375 124.851562 112.84375 C 126.230469 112.84375 127.554688 112.300781 128.535156 111.320312 L 152.101562 87.753906 C 154.136719 85.722656 154.136719 82.421875 152.101562 80.390625 Z M 152.101562 80.390625 "/><path style=" stroke:none;fill-rule:evenodd;fill:#eab308;fill-opacity:1;" d="M 152.101562 145.042969 C 150.070312 143.011719 146.773438 143.007812 144.734375 145.042969 L 125.96875 163.808594 L 121.511719 156.082031 C 120.074219 153.59375 116.890625 152.738281 114.398438 154.179688 C 111.90625 155.617188 111.050781 158.800781 112.484375 161.289062 L 120.34375 174.894531 C 121.15625 176.296875 122.566406 177.242188 124.175781 177.453125 C 124.398438 177.480469 124.628906 177.5 124.851562 177.5 C 126.230469 177.5 127.554688 176.957031 128.535156 175.972656 L 152.101562 152.40625 C 154.136719 150.375 154.136719 147.074219 152.101562 145.042969 Z M 152.101562 145.042969 "/><path style=" stroke:none;fill-rule:evenodd;fill:#eab308;fill-opacity:1;" d="M 139.167969 364.582031 C 143.855469 341.875 163.710938 325.382812 187.5 325.382812 C 211.289062 325.382812 231.144531 341.875 235.824219 364.582031 Z M 187.5 273.21875 C 198.960938 273.21875 208.28125 282.542969 208.28125 294.003906 C 208.28125 305.464844 198.960938 314.789062 187.5 314.789062 C 176.039062 314.789062 166.710938 305.464844 166.710938 294.003906 C 166.710938 282.542969 176.039062 273.21875 187.5 273.21875 Z M 227.929688 330.714844 C 221.84375 325.121094 214.75 320.917969 207.09375 318.265625 C 214.167969 312.539062 218.699219 303.792969 218.699219 294.003906 C 218.699219 276.800781 204.703125 262.800781 187.5 262.800781 C 170.296875 262.800781 156.296875 276.800781 156.296875 294.003906 C 156.296875 303.792969 160.835938 312.539062 167.910156 318.261719 C 160.257812 320.914062 153.15625 325.121094 147.0625 330.714844 C 136.082031 340.808594 129.292969 354.519531 127.964844 369.324219 C 127.832031 370.78125 128.320312 372.226562 129.304688 373.304688 C 130.289062 374.382812 131.683594 374.996094 133.148438 374.996094 L 241.851562 374.996094 C 243.3125 374.996094 244.710938 374.382812 245.695312 373.304688 C 246.683594 372.226562 247.167969 370.78125 247.039062 369.324219 C 245.703125 354.519531 238.921875 340.808594 227.933594 330.714844 Z M 227.929688 330.714844 "/><path style=" stroke:none;fill-rule:evenodd;fill:#eab308;fill-opacity:1;" d="M 11.410156 364.582031 C 16.097656 341.875 35.953125 325.382812 59.734375 325.382812 C 83.515625 325.382812 103.378906 341.875 108.066406 364.582031 Z M 59.734375 273.21875 C 71.203125 273.21875 80.523438 282.542969 80.523438 294.003906 C 80.523438 305.464844 71.203125 314.789062 59.734375 314.789062 C 48.265625 314.789062 38.953125 305.464844 38.953125 294.003906 C 38.953125 282.542969 48.273438 273.21875 59.734375 273.21875 Z M 100.171875 330.714844 C 94.078125 325.121094 86.980469 320.917969 79.324219 318.265625 C 86.402344 312.539062 90.941406 303.792969 90.941406 294.003906 C 90.941406 276.800781 76.945312 262.800781 59.734375 262.800781 C 42.523438 262.800781 28.535156 276.800781 28.535156 294.003906 C 28.535156 303.792969 33.070312 312.539062 40.144531 318.261719 C 32.484375 320.914062 25.390625 325.121094 19.304688 330.714844 C 8.3125 340.808594 1.535156 354.519531 0.195312 369.324219 C 0.0703125 370.78125 0.550781 372.226562 1.542969 373.304688 C 2.53125 374.382812 3.921875 374.996094 5.390625 374.996094 L 114.085938 374.996094 C 115.550781 374.996094 116.945312 374.382812 117.933594 373.304688 C 118.917969 372.226562 119.40625 370.78125 119.273438 369.324219 C 117.941406 354.519531 111.15625 340.808594 100.171875 330.714844 Z M 100.171875 330.714844 "/><path style=" stroke:none;fill-rule:evenodd;fill:#eab308;fill-opacity:1;" d="M 266.933594 364.582031 C 271.617188 341.875 291.484375 325.382812 315.265625 325.382812 C 339.042969 325.382812 358.910156 341.875 363.589844 364.582031 Z M 315.265625 273.21875 C 326.71875 273.21875 336.042969 282.542969 336.042969 294.003906 C 336.042969 305.464844 326.71875 314.789062 315.265625 314.789062 C 303.808594 314.789062 294.480469 305.464844 294.480469 294.003906 C 294.480469 282.542969 303.804688 273.21875 315.265625 273.21875 Z M 355.703125 330.714844 C 349.609375 325.121094 342.511719 320.917969 334.851562 318.261719 C 341.929688 312.539062 346.460938 303.792969 346.460938 294.003906 C 346.460938 276.800781 332.460938 262.804688 315.265625 262.804688 C 298.066406 262.804688 284.066406 276.800781 284.066406 294.003906 C 284.066406 303.792969 288.59375 312.539062 295.667969 318.265625 C 288.015625 320.917969 280.914062 325.121094 274.820312 330.714844 C 263.839844 340.808594 257.054688 354.523438 255.722656 369.324219 C 255.589844 370.78125 256.082031 372.226562 257.0625 373.304688 C 258.054688 374.386719 259.449219 375 260.910156 375 L 369.617188 375 C 371.070312 375 372.472656 374.386719 373.453125 373.304688 C 374.445312 372.226562 374.933594 370.78125 374.804688 369.324219 C 373.46875 354.523438 366.6875 340.808594 355.703125 330.714844 Z M 355.703125 330.714844 "/><path style=" stroke:none;fill-rule:evenodd;fill:#eab308;fill-opacity:1;" d="M 152.101562 209.695312 C 150.070312 207.660156 146.773438 207.660156 144.734375 209.695312 L 125.96875 228.460938 L 121.511719 220.734375 C 120.074219 218.246094 116.890625 217.394531 114.398438 218.828125 C 111.90625 220.269531 111.050781 223.449219 112.484375 225.945312 L 120.34375 239.546875 C 121.15625 240.949219 122.566406 241.894531 124.175781 242.105469 C 124.398438 242.132812 124.628906 242.152344 124.851562 242.152344 C 126.230469 242.152344 127.554688 241.605469 128.535156 240.625 L 152.101562 217.058594 C 154.136719 215.03125 154.136719 211.730469 152.101562 209.695312 Z M 152.101562 209.695312 "/><path style=" stroke:none;fill-rule:evenodd;fill:#eab308;fill-opacity:1;" d="M 364.40625 169.597656 C 364.40625 177 362.519531 183.933594 358.796875 190.203125 C 350.847656 203.578125 334.914062 213.054688 320.847656 221.417969 C 319.039062 222.492188 317.253906 223.550781 315.515625 224.601562 L 309.289062 228.367188 L 303.0625 224.601562 C 301.320312 223.550781 299.53125 222.492188 297.726562 221.417969 C 283.660156 213.054688 267.726562 203.578125 259.785156 190.203125 C 256.058594 183.933594 254.167969 177 254.167969 169.597656 L 254.167969 118 L 263.230469 115.6875 C 279.363281 111.574219 292.710938 106.257812 302.910156 99.886719 L 309.289062 95.90625 L 315.664062 99.886719 C 325.863281 106.257812 339.214844 111.574219 355.34375 115.6875 L 364.410156 118 L 364.410156 169.597656 Z M 347.152344 169.597656 L 347.152344 131.363281 C 336.050781 128.308594 321.769531 123.429688 309.289062 116.179688 C 296.804688 123.429688 282.523438 128.308594 271.421875 131.363281 L 271.421875 169.597656 C 271.421875 173.976562 272.433594 177.726562 274.613281 181.394531 C 280.355469 191.0625 294.386719 199.386719 306.761719 206.730469 C 307.621094 207.234375 308.460938 207.734375 309.289062 208.226562 C 310.113281 207.734375 310.953125 207.234375 311.808594 206.730469 C 324.191406 199.386719 338.222656 191.0625 343.960938 181.394531 C 346.140625 177.726562 347.152344 173.980469 347.152344 169.597656 Z M 312.046875 105.683594 C 310.359375 104.628906 308.214844 104.628906 306.527344 105.683594 C 293.085938 114.082031 276.484375 119.359375 264.925781 122.308594 C 262.613281 122.898438 261.007812 124.976562 261.007812 127.355469 L 261.007812 169.597656 C 261.007812 175.84375 262.523438 181.441406 265.65625 186.714844 C 272.753906 198.664062 288 207.710938 301.453125 215.691406 C 303.214844 216.734375 304.941406 217.757812 306.59375 218.757812 C 307.421875 219.257812 308.355469 219.507812 309.289062 219.507812 C 310.222656 219.507812 311.152344 219.257812 311.980469 218.757812 C 313.632812 217.757812 315.359375 216.734375 317.121094 215.691406 C 330.574219 207.710938 345.820312 198.667969 352.917969 186.714844 C 356.050781 181.441406 357.566406 175.84375 357.566406 169.597656 L 357.566406 127.355469 C 357.566406 124.976562 355.960938 122.898438 353.65625 122.308594 C 342.09375 119.359375 325.492188 114.082031 312.046875 105.683594 Z M 370.902344 108.910156 L 357.917969 105.59375 C 342.828125 101.746094 330.46875 96.855469 321.1875 91.054688 L 312.046875 85.351562 C 310.359375 84.296875 308.214844 84.296875 306.527344 85.351562 L 297.398438 91.054688 C 288.105469 96.855469 275.746094 101.746094 260.660156 105.59375 L 247.675781 108.910156 C 245.367188 109.496094 243.75 111.574219 243.75 113.957031 L 243.75 169.597656 C 243.75 178.898438 246.136719 187.621094 250.832031 195.523438 C 260.121094 211.179688 277.273438 221.371094 292.40625 230.371094 C 294.191406 231.433594 295.953125 232.480469 297.675781 233.515625 L 306.59375 238.914062 C 307.421875 239.414062 308.355469 239.664062 309.289062 239.664062 C 310.222656 239.664062 311.152344 239.414062 311.980469 238.914062 L 320.910156 233.515625 C 322.621094 232.480469 324.386719 231.433594 326.171875 230.371094 C 341.304688 221.371094 358.453125 211.175781 367.746094 195.523438 C 372.441406 187.621094 374.824219 178.898438 374.824219 169.597656 L 374.824219 113.957031 C 374.824219 111.574219 373.210938 109.496094 370.902344 108.910156 Z M 370.902344 108.910156 "/><path style=" stroke:none;fill-rule:evenodd;fill:#eab308;fill-opacity:1;" d="M 293.75 157.273438 C 292.316406 154.78125 289.128906 153.925781 286.636719 155.367188 C 284.144531 156.808594 283.296875 159.992188 284.734375 162.480469 L 294.753906 179.839844 C 295.570312 181.242188 296.980469 182.183594 298.589844 182.398438 C 298.8125 182.429688 299.039062 182.441406 299.261719 182.441406 C 300.632812 182.441406 301.96875 181.902344 302.945312 180.917969 L 333.015625 150.851562 C 335.042969 148.816406 335.042969 145.515625 333.015625 143.484375 C 330.984375 141.453125 327.6875 141.449219 325.648438 143.484375 L 300.382812 168.75 Z M 293.75 157.273438 "/></g></svg>