<svg xmlns="http://www.w3.org/2000/svg" xmlns:xlink="http://www.w3.org/1999/xlink" width="500" zoomAndPan="magnify" viewBox="0 0 375 374.999991" height="500" preserveAspectRatio="xMidYMid meet" version="1.2"><g id="2e019d263e"><path style=" stroke:none;fill-rule:nonzero;fill:#eab308;fill-opacity:1;" d="M 187.5 36.289062 C 220.859375 36.289062 247.984375 63.414062 247.984375 96.773438 C 247.984375 130.136719 220.859375 157.257812 187.5 157.257812 C 154.140625 157.257812 127.015625 130.136719 127.015625 96.773438 C 127.015625 63.414062 154.140625 36.289062 187.5 36.289062 Z M 187.5 169.355469 C 227.523438 169.355469 260.082031 136.796875 260.082031 96.773438 C 260.082031 56.75 227.523438 24.195312 187.5 24.195312 C 147.476562 24.195312 114.917969 56.75 114.917969 96.773438 C 114.917969 136.796875 147.476562 169.355469 187.5 169.355469 "/><path style=" stroke:none;fill-rule:nonzero;fill:#eab308;fill-opacity:1;" d="M 223.789062 96.773438 L 235.886719 96.773438 C 235.886719 70.101562 214.175781 48.386719 187.5 48.386719 L 187.5 60.484375 C 207.511719 60.484375 223.789062 76.761719 223.789062 96.773438 "/><path style=" stroke:none;fill-rule:nonzero;fill:#eab308;fill-opacity:1;" d="M 320.566406 290.324219 L 278.226562 290.324219 L 278.226562 326.613281 L 231.894531 326.613281 C 234.445312 318.179688 235.886719 309.390625 235.886719 300.601562 C 235.886719 297.574219 235.746094 294.550781 235.4375 291.574219 L 231.707031 254.269531 C 230.785156 245.054688 225.351562 237.421875 217.742188 233.242188 L 217.742188 188.632812 C 254.480469 176.511719 281.460938 142.964844 283.96875 102.824219 L 320.566406 102.824219 L 320.566406 157.257812 L 278.226562 157.257812 L 278.226562 241.933594 L 320.566406 241.933594 Z M 362.902344 362.902344 L 290.324219 362.902344 L 290.324219 302.417969 L 362.902344 302.417969 Z M 211.695312 362.902344 L 151.210938 362.902344 L 151.210938 350.804688 L 211.695312 350.804688 Z M 54.433594 290.324219 L 54.433594 241.933594 L 96.773438 241.933594 L 96.773438 157.257812 L 54.433594 157.257812 L 54.433594 102.824219 L 91.03125 102.824219 C 93.539062 142.964844 120.519531 176.511719 157.257812 188.632812 L 157.257812 197.09375 L 141.59375 212.757812 C 128.292969 226.058594 120.96875 243.730469 120.96875 262.5625 C 120.96875 265.136719 121.109375 267.757812 121.394531 270.335938 L 125.789062 309.8125 C 126.425781 315.578125 127.820312 321.203125 129.828125 326.613281 L 96.773438 326.613281 L 96.773438 290.324219 Z M 84.675781 362.902344 L 12.097656 362.902344 L 12.097656 302.417969 L 84.675781 302.417969 Z M 12.097656 169.355469 L 84.675781 169.355469 L 84.675781 229.839844 L 12.097656 229.839844 Z M 204.722656 229.839844 C 198.769531 229.839844 193.761719 234.089844 192.792969 239.949219 L 183.367188 296.535156 C 182.796875 299.9375 179.867188 302.417969 176.394531 302.417969 C 172.519531 302.417969 169.355469 299.253906 169.355469 295.378906 L 169.355469 191.777344 C 175.238281 192.910156 181.285156 193.546875 187.5 193.546875 C 193.714844 193.546875 199.761719 192.910156 205.644531 191.777344 L 205.644531 229.933594 C 205.339844 229.910156 205.03125 229.839844 204.722656 229.839844 Z M 215.496094 335.734375 L 214.007812 338.710938 L 148.894531 338.710938 L 143.601562 328.125 C 140.53125 321.957031 138.570312 315.34375 137.8125 308.492188 L 133.417969 269.011719 C 133.183594 266.863281 133.066406 264.710938 133.066406 262.5625 C 133.066406 247.203125 139.300781 232.152344 150.144531 221.308594 L 157.257812 214.199219 L 157.257812 295.378906 C 157.257812 305.941406 165.835938 314.515625 176.394531 314.515625 C 185.800781 314.515625 193.738281 307.78125 195.296875 298.519531 L 204.722656 241.933594 C 212.472656 241.933594 218.898438 247.746094 219.679688 255.472656 L 223.386719 292.78125 C 223.648438 295.355469 223.789062 297.976562 223.789062 300.601562 C 223.789062 312.71875 220.929688 324.863281 215.496094 335.734375 Z M 187.5 12.097656 C 234.1875 12.097656 272.175781 50.089844 272.175781 96.773438 C 272.175781 143.460938 234.1875 181.453125 187.5 181.453125 C 140.8125 181.453125 102.824219 143.460938 102.824219 96.773438 C 102.824219 50.089844 140.8125 12.097656 187.5 12.097656 Z M 362.902344 229.839844 L 290.324219 229.839844 L 290.324219 169.355469 L 362.902344 169.355469 Z M 375 241.933594 L 375 157.257812 L 332.660156 157.257812 L 332.660156 90.726562 L 283.96875 90.726562 C 280.824219 40.1875 238.816406 0 187.5 0 C 136.183594 0 94.175781 40.1875 91.03125 90.726562 L 42.339844 90.726562 L 42.339844 157.257812 L 0 157.257812 L 0 241.933594 L 42.339844 241.933594 L 42.339844 290.324219 L 0 290.324219 L 0 375 L 96.773438 375 L 96.773438 338.710938 L 135.378906 338.710938 L 139.113281 346.199219 L 139.113281 375 L 223.789062 375 L 223.789062 346.199219 L 226.316406 341.144531 C 226.695312 340.339844 226.980469 339.511719 227.359375 338.710938 L 278.226562 338.710938 L 278.226562 375 L 375 375 L 375 290.324219 L 332.660156 290.324219 L 332.660156 241.933594 L 375 241.933594 "/><path style=" stroke:none;fill-rule:nonzero;fill:#eab308;fill-opacity:1;" d="M 350.804688 314.515625 L 302.417969 314.515625 L 302.417969 326.613281 L 350.804688 326.613281 L 350.804688 314.515625 "/><path style=" stroke:none;fill-rule:nonzero;fill:#eab308;fill-opacity:1;" d="M 350.804688 338.710938 L 302.417969 338.710938 L 302.417969 350.804688 L 350.804688 350.804688 L 350.804688 338.710938 "/><path style=" stroke:none;fill-rule:nonzero;fill:#eab308;fill-opacity:1;" d="M 349.035156 185.726562 L 340.480469 177.175781 L 314.515625 203.140625 L 306.695312 195.320312 L 298.144531 203.875 L 314.515625 220.246094 L 349.035156 185.726562 "/><path style=" stroke:none;fill-rule:nonzero;fill:#eab308;fill-opacity:1;" d="M 72.582031 314.515625 L 24.195312 314.515625 L 24.195312 326.613281 L 72.582031 326.613281 L 72.582031 314.515625 "/><path style=" stroke:none;fill-rule:nonzero;fill:#eab308;fill-opacity:1;" d="M 72.582031 338.710938 L 24.195312 338.710938 L 24.195312 350.804688 L 72.582031 350.804688 L 72.582031 338.710938 "/><path style=" stroke:none;fill-rule:nonzero;fill:#eab308;fill-opacity:1;" d="M 36.289062 203.140625 L 28.46875 195.320312 L 19.917969 203.875 L 36.289062 220.246094 L 70.808594 185.726562 L 62.253906 177.175781 L 36.289062 203.140625 "/></g></svg>