<svg xmlns="http://www.w3.org/2000/svg" xmlns:xlink="http://www.w3.org/1999/xlink" width="500" zoomAndPan="magnify" viewBox="0 0 375 374.999991" height="500" preserveAspectRatio="xMidYMid meet" version="1.2"><g id="42a654b245"><path style=" stroke:none;fill-rule:nonzero;fill:#eab308;fill-opacity:1;" d="M 269.414062 185.992188 L 103.308594 185.992188 C 102.878906 185.992188 102.453125 186.035156 102.03125 186.117188 C 101.609375 186.203125 101.199219 186.328125 100.800781 186.492188 C 100.40625 186.65625 100.027344 186.855469 99.671875 187.097656 C 99.3125 187.335938 98.980469 187.605469 98.679688 187.910156 C 98.375 188.214844 98.101562 188.546875 97.863281 188.902344 C 97.625 189.261719 97.421875 189.636719 97.257812 190.035156 C 97.09375 190.433594 96.96875 190.839844 96.886719 191.261719 C 96.800781 191.683594 96.761719 192.109375 96.761719 192.539062 C 96.761719 192.96875 96.800781 193.394531 96.886719 193.816406 C 96.96875 194.238281 97.09375 194.648438 97.257812 195.046875 C 97.421875 195.441406 97.625 195.820312 97.863281 196.175781 C 98.101562 196.535156 98.375 196.867188 98.679688 197.167969 C 98.980469 197.472656 99.3125 197.746094 99.671875 197.984375 C 100.027344 198.222656 100.40625 198.425781 100.800781 198.589844 C 101.199219 198.753906 101.609375 198.878906 102.03125 198.960938 C 102.453125 199.046875 102.878906 199.085938 103.308594 199.085938 L 269.414062 199.085938 C 269.847656 199.085938 270.273438 199.046875 270.691406 198.960938 C 271.113281 198.878906 271.523438 198.753906 271.921875 198.589844 C 272.320312 198.425781 272.695312 198.222656 273.054688 197.984375 C 273.410156 197.746094 273.742188 197.472656 274.046875 197.167969 C 274.351562 196.867188 274.621094 196.535156 274.859375 196.175781 C 275.097656 195.820312 275.300781 195.441406 275.464844 195.046875 C 275.628906 194.648438 275.753906 194.238281 275.835938 193.816406 C 275.921875 193.394531 275.964844 192.96875 275.964844 192.539062 C 275.964844 192.109375 275.921875 191.683594 275.835938 191.261719 C 275.753906 190.839844 275.628906 190.433594 275.464844 190.035156 C 275.300781 189.636719 275.097656 189.261719 274.859375 188.902344 C 274.621094 188.546875 274.351562 188.214844 274.046875 187.910156 C 273.742188 187.605469 273.410156 187.335938 273.054688 187.097656 C 272.695312 186.855469 272.320312 186.65625 271.921875 186.492188 C 271.523438 186.328125 271.113281 186.203125 270.691406 186.117188 C 270.273438 186.035156 269.847656 185.992188 269.414062 185.992188 Z M 269.414062 185.992188 "/><path style=" stroke:none;fill-rule:nonzero;fill:#eab308;fill-opacity:1;" d="M 269.414062 157.085938 L 103.308594 157.085938 C 102.878906 157.085938 102.453125 157.128906 102.03125 157.214844 C 101.609375 157.296875 101.199219 157.421875 100.800781 157.585938 C 100.40625 157.75 100.027344 157.953125 99.671875 158.191406 C 99.3125 158.429688 98.980469 158.699219 98.679688 159.003906 C 98.375 159.308594 98.101562 159.640625 97.863281 159.996094 C 97.625 160.355469 97.421875 160.730469 97.257812 161.128906 C 97.09375 161.527344 96.96875 161.9375 96.886719 162.359375 C 96.800781 162.777344 96.761719 163.203125 96.761719 163.636719 C 96.761719 164.066406 96.800781 164.492188 96.886719 164.910156 C 96.96875 165.332031 97.09375 165.742188 97.257812 166.140625 C 97.421875 166.539062 97.625 166.914062 97.863281 167.273438 C 98.101562 167.628906 98.375 167.960938 98.679688 168.265625 C 98.980469 168.570312 99.3125 168.839844 99.671875 169.078125 C 100.027344 169.316406 100.40625 169.519531 100.800781 169.683594 C 101.199219 169.847656 101.609375 169.972656 102.03125 170.054688 C 102.453125 170.140625 102.878906 170.183594 103.308594 170.183594 L 269.414062 170.183594 C 269.847656 170.183594 270.273438 170.140625 270.691406 170.054688 C 271.113281 169.972656 271.523438 169.847656 271.921875 169.683594 C 272.320312 169.519531 272.695312 169.316406 273.054688 169.078125 C 273.410156 168.839844 273.742188 168.570312 274.046875 168.265625 C 274.351562 167.960938 274.621094 167.628906 274.859375 167.273438 C 275.097656 166.914062 275.300781 166.539062 275.464844 166.140625 C 275.628906 165.742188 275.753906 165.332031 275.835938 164.910156 C 275.921875 164.492188 275.964844 164.066406 275.964844 163.636719 C 275.964844 163.203125 275.921875 162.777344 275.835938 162.359375 C 275.753906 161.9375 275.628906 161.527344 275.464844 161.128906 C 275.300781 160.730469 275.097656 160.355469 274.859375 159.996094 C 274.621094 159.640625 274.351562 159.308594 274.046875 159.003906 C 273.742188 158.699219 273.410156 158.429688 273.054688 158.191406 C 272.695312 157.953125 272.320312 157.75 271.921875 157.585938 C 271.523438 157.421875 271.113281 157.296875 270.691406 157.214844 C 270.273438 157.128906 269.847656 157.085938 269.414062 157.085938 Z M 269.414062 157.085938 "/><path style=" stroke:none;fill-rule:nonzero;fill:#eab308;fill-opacity:1;" d="M 349.679688 280.03125 L 313.066406 161.113281 L 313.066406 56.550781 C 313.0625 55.691406 313.019531 54.832031 312.933594 53.980469 C 312.847656 53.125 312.722656 52.277344 312.554688 51.433594 C 312.382812 50.59375 312.175781 49.761719 311.925781 48.9375 C 311.675781 48.117188 311.382812 47.308594 311.054688 46.515625 C 310.726562 45.722656 310.359375 44.949219 309.953125 44.191406 C 309.546875 43.433594 309.105469 42.699219 308.628906 41.984375 C 308.152344 41.269531 307.640625 40.582031 307.09375 39.917969 C 306.550781 39.253906 305.972656 38.617188 305.367188 38.011719 C 304.757812 37.402344 304.121094 36.828125 303.460938 36.28125 C 302.796875 35.738281 302.105469 35.226562 301.390625 34.75 C 300.679688 34.269531 299.941406 33.828125 299.1875 33.425781 C 298.429688 33.019531 297.652344 32.652344 296.859375 32.320312 C 296.066406 31.992188 295.257812 31.703125 294.4375 31.453125 C 293.617188 31.203125 292.785156 30.992188 291.941406 30.824219 C 291.101562 30.65625 290.25 30.527344 289.398438 30.441406 C 288.542969 30.355469 287.6875 30.3125 286.828125 30.3125 L 272.957031 30.3125 L 270.335938 21.726562 C 270.078125 20.894531 269.78125 20.074219 269.441406 19.269531 C 269.105469 18.464844 268.726562 17.679688 268.3125 16.914062 C 267.894531 16.144531 267.445312 15.398438 266.957031 14.675781 C 266.46875 13.953125 265.945312 13.257812 265.386719 12.585938 C 264.832031 11.914062 264.242188 11.269531 263.621094 10.65625 C 263.003906 10.039062 262.355469 9.457031 261.675781 8.90625 C 261 8.355469 260.296875 7.839844 259.570312 7.359375 C 258.84375 6.875 258.09375 6.429688 257.324219 6.023438 C 256.550781 5.613281 255.761719 5.242188 254.953125 4.914062 C 254.148438 4.582031 253.324219 4.289062 252.488281 4.039062 C 251.652344 3.789062 250.808594 3.578125 249.953125 3.410156 C 249.09375 3.242188 248.234375 3.117188 247.363281 3.035156 C 246.496094 2.953125 245.625 2.910156 244.75 2.914062 C 243.878906 2.914062 243.007812 2.960938 242.140625 3.046875 C 241.273438 3.132812 240.410156 3.261719 239.554688 3.433594 C 238.699219 3.605469 237.855469 3.820312 237.019531 4.074219 L 152.582031 30.019531 L 151.902344 30.3125 L 86.042969 30.3125 C 85.183594 30.3125 84.328125 30.355469 83.472656 30.441406 C 82.617188 30.527344 81.769531 30.65625 80.925781 30.824219 C 80.085938 30.992188 79.253906 31.203125 78.429688 31.453125 C 77.609375 31.703125 76.800781 31.992188 76.007812 32.320312 C 75.214844 32.652344 74.441406 33.019531 73.683594 33.425781 C 72.925781 33.828125 72.191406 34.269531 71.476562 34.75 C 70.761719 35.226562 70.074219 35.738281 69.410156 36.28125 C 68.746094 36.828125 68.109375 37.402344 67.503906 38.011719 C 66.894531 38.617188 66.320312 39.253906 65.773438 39.917969 C 65.230469 40.582031 64.71875 41.269531 64.242188 41.984375 C 63.761719 42.699219 63.320312 43.433594 62.917969 44.191406 C 62.511719 44.949219 62.144531 45.722656 61.816406 46.515625 C 61.484375 47.308594 61.195312 48.117188 60.945312 48.9375 C 60.695312 49.761719 60.484375 50.59375 60.316406 51.433594 C 60.148438 52.277344 60.019531 53.125 59.933594 53.980469 C 59.847656 54.832031 59.804688 55.691406 59.804688 56.550781 L 59.804688 58.539062 L 40.9375 64.359375 C 39.257812 64.863281 37.644531 65.53125 36.101562 66.359375 C 34.554688 67.183594 33.105469 68.15625 31.75 69.273438 C 30.398438 70.386719 29.167969 71.625 28.0625 72.988281 C 26.953125 74.347656 25.992188 75.804688 25.175781 77.355469 C 24.347656 78.898438 23.679688 80.511719 23.175781 82.191406 C 22.671875 83.867188 22.335938 85.578125 22.171875 87.324219 C 22.011719 89.070312 22.023438 90.8125 22.210938 92.554688 C 22.398438 94.300781 22.753906 96.003906 23.285156 97.675781 L 59.804688 216.546875 L 59.804688 321.160156 C 59.8125 322.015625 59.859375 322.867188 59.949219 323.71875 C 60.039062 324.570312 60.167969 325.414062 60.339844 326.253906 C 60.511719 327.09375 60.726562 327.917969 60.980469 328.738281 C 61.230469 329.554688 61.523438 330.359375 61.855469 331.148438 C 62.1875 331.9375 62.558594 332.707031 62.964844 333.460938 C 63.371094 334.214844 63.8125 334.945312 64.292969 335.65625 C 64.769531 336.363281 65.28125 337.050781 65.828125 337.707031 C 66.371094 338.367188 66.949219 339 67.554688 339.605469 C 68.160156 340.207031 68.796875 340.78125 69.460938 341.320312 C 70.121094 341.863281 70.808594 342.371094 71.523438 342.84375 C 72.234375 343.320312 72.96875 343.757812 73.722656 344.160156 C 74.476562 344.5625 75.25 344.929688 76.042969 345.253906 C 76.832031 345.582031 77.636719 345.871094 78.457031 346.117188 C 79.277344 346.367188 80.105469 346.574219 80.945312 346.742188 C 81.785156 346.910156 82.628906 347.035156 83.480469 347.121094 C 84.332031 347.207031 85.1875 347.25 86.042969 347.25 L 100.011719 347.25 L 102.628906 355.785156 C 103.046875 357.140625 103.570312 358.453125 104.199219 359.726562 C 104.824219 361 105.550781 362.210938 106.371094 363.367188 C 107.191406 364.527344 108.097656 365.609375 109.089844 366.621094 C 110.082031 367.636719 111.148438 368.5625 112.289062 369.40625 C 113.429688 370.25 114.628906 370.996094 115.886719 371.648438 C 117.144531 372.300781 118.449219 372.851562 119.792969 373.296875 C 121.140625 373.742188 122.511719 374.078125 123.914062 374.304688 C 125.3125 374.535156 126.722656 374.648438 128.140625 374.652344 C 130.804688 374.652344 133.40625 374.25 135.949219 373.441406 L 221.257812 347.25 L 286.925781 347.25 C 287.777344 347.246094 288.628906 347.199219 289.480469 347.113281 C 290.328125 347.023438 291.171875 346.894531 292.007812 346.726562 C 292.84375 346.554688 293.671875 346.347656 294.488281 346.097656 C 295.304688 345.84375 296.105469 345.554688 296.894531 345.226562 C 297.683594 344.898438 298.453125 344.53125 299.203125 344.128906 C 299.957031 343.726562 300.6875 343.285156 301.398438 342.8125 C 302.109375 342.335938 302.792969 341.828125 303.453125 341.285156 C 304.113281 340.746094 304.746094 340.171875 305.347656 339.570312 C 305.953125 338.964844 306.527344 338.335938 307.070312 337.675781 C 307.613281 337.015625 308.121094 336.332031 308.597656 335.625 C 309.074219 334.914062 309.515625 334.183594 309.921875 333.433594 C 310.324219 332.683594 310.691406 331.914062 311.023438 331.125 C 311.351562 330.335938 311.644531 329.535156 311.894531 328.71875 C 312.148438 327.902344 312.359375 327.078125 312.53125 326.242188 C 312.703125 325.40625 312.832031 324.5625 312.921875 323.714844 C 313.011719 322.863281 313.058594 322.011719 313.066406 321.160156 L 313.066406 319.171875 L 332.027344 313.300781 C 332.859375 313.046875 333.679688 312.746094 334.484375 312.410156 C 335.289062 312.074219 336.074219 311.699219 336.839844 311.285156 C 337.609375 310.871094 338.351562 310.417969 339.074219 309.929688 C 339.796875 309.445312 340.496094 308.921875 341.167969 308.367188 C 341.839844 307.8125 342.484375 307.222656 343.097656 306.605469 C 343.710938 305.988281 344.292969 305.339844 344.84375 304.664062 C 345.394531 303.988281 345.910156 303.285156 346.394531 302.558594 C 346.875 301.832031 347.320312 301.085938 347.730469 300.316406 C 348.136719 299.542969 348.507812 298.757812 348.839844 297.949219 C 349.171875 297.144531 349.460938 296.324219 349.714844 295.488281 C 349.964844 294.652344 350.171875 293.808594 350.339844 292.953125 C 350.507812 292.097656 350.636719 291.234375 350.71875 290.367188 C 350.800781 289.5 350.84375 288.628906 350.839844 287.757812 C 350.839844 286.886719 350.796875 286.015625 350.707031 285.148438 C 350.621094 284.28125 350.492188 283.417969 350.320312 282.566406 C 350.148438 281.710938 349.9375 280.867188 349.679688 280.03125 Z M 328.195312 300.835938 L 313.160156 305.6875 L 313.160156 205.78125 L 337.3125 283.863281 C 337.570312 284.71875 337.742188 285.59375 337.828125 286.484375 C 337.914062 287.375 337.914062 288.265625 337.824219 289.15625 C 337.734375 290.042969 337.558594 290.917969 337.296875 291.773438 C 337.035156 292.628906 336.691406 293.449219 336.269531 294.238281 C 335.847656 295.027344 335.351562 295.765625 334.78125 296.457031 C 334.210938 297.144531 333.582031 297.773438 332.890625 298.339844 C 332.195312 298.90625 331.457031 299.398438 330.664062 299.820312 C 329.875 300.242188 329.054688 300.578125 328.195312 300.835938 Z M 132.117188 361.074219 C 130.800781 361.457031 129.460938 361.652344 128.089844 361.65625 C 126.273438 361.671875 124.523438 361.335938 122.839844 360.644531 C 121.15625 359.953125 119.675781 358.964844 118.390625 357.679688 C 116.851562 356.089844 115.785156 354.230469 115.191406 352.101562 L 113.734375 347.25 L 176.785156 347.25 Z M 240.851562 16.730469 C 242.140625 16.308594 243.46875 16.097656 244.828125 16.101562 C 245.550781 16.105469 246.269531 16.167969 246.980469 16.289062 C 247.695312 16.410156 248.394531 16.585938 249.078125 16.816406 C 249.765625 17.046875 250.429688 17.332031 251.066406 17.667969 C 251.707031 18.003906 252.316406 18.386719 252.898438 18.820312 C 253.476562 19.253906 254.015625 19.730469 254.519531 20.253906 C 255.023438 20.773438 255.480469 21.328125 255.894531 21.921875 C 256.308594 22.511719 256.675781 23.136719 256.992188 23.785156 C 257.304688 24.4375 257.566406 25.109375 257.777344 25.800781 L 259.230469 30.652344 L 196.183594 30.652344 Z M 286.925781 334.351562 L 86.042969 334.351562 C 85.179688 334.351562 84.328125 334.265625 83.484375 334.097656 C 82.640625 333.929688 81.820312 333.683594 81.023438 333.355469 C 80.226562 333.027344 79.472656 332.621094 78.753906 332.144531 C 78.039062 331.667969 77.375 331.125 76.765625 330.519531 C 76.15625 329.910156 75.609375 329.25 75.132812 328.535156 C 74.652344 327.820312 74.246094 327.066406 73.914062 326.269531 C 73.582031 325.476562 73.332031 324.65625 73.160156 323.8125 C 72.988281 322.96875 72.902344 322.117188 72.898438 321.253906 L 72.898438 56.550781 C 72.902344 55.6875 72.988281 54.832031 73.160156 53.988281 C 73.332031 53.144531 73.582031 52.324219 73.914062 51.527344 C 74.242188 50.730469 74.648438 49.976562 75.128906 49.257812 C 75.609375 48.542969 76.152344 47.878906 76.761719 47.269531 C 77.371094 46.660156 78.035156 46.117188 78.75 45.636719 C 79.46875 45.15625 80.222656 44.75 81.019531 44.417969 C 81.816406 44.089844 82.636719 43.835938 83.480469 43.667969 C 84.328125 43.496094 85.179688 43.410156 86.042969 43.40625 L 286.925781 43.40625 C 287.785156 43.410156 288.636719 43.496094 289.480469 43.667969 C 290.324219 43.835938 291.144531 44.089844 291.9375 44.421875 C 292.734375 44.753906 293.488281 45.15625 294.203125 45.636719 C 294.917969 46.117188 295.578125 46.664062 296.1875 47.273438 C 296.792969 47.882812 297.335938 48.546875 297.8125 49.261719 C 298.292969 49.980469 298.695312 50.734375 299.023438 51.53125 C 299.351562 52.328125 299.601562 53.148438 299.765625 53.992188 C 299.933594 54.835938 300.019531 55.6875 300.019531 56.550781 L 300.019531 321.160156 C 300.019531 322.019531 299.933594 322.871094 299.765625 323.714844 C 299.597656 324.558594 299.351562 325.375 299.023438 326.167969 C 298.691406 326.964844 298.289062 327.71875 297.8125 328.433594 C 297.335938 329.148438 296.792969 329.808594 296.183594 330.417969 C 295.574219 331.027344 294.914062 331.570312 294.199219 332.046875 C 293.484375 332.523438 292.730469 332.925781 291.933594 333.257812 C 291.140625 333.585938 290.320312 333.835938 289.480469 334 C 288.636719 334.167969 287.785156 334.253906 286.925781 334.253906 Z M 59.804688 171.878906 L 35.796875 93.796875 C 35.535156 92.945312 35.359375 92.078125 35.269531 91.195312 C 35.175781 90.308594 35.171875 89.421875 35.257812 88.539062 C 35.339844 87.652344 35.511719 86.78125 35.765625 85.929688 C 36.019531 85.078125 36.355469 84.257812 36.773438 83.472656 C 37.1875 82.6875 37.679688 81.949219 38.242188 81.257812 C 38.804688 80.570312 39.425781 79.941406 40.113281 79.375 C 40.800781 78.808594 41.535156 78.316406 42.316406 77.894531 C 43.101562 77.472656 43.917969 77.128906 44.769531 76.871094 L 59.804688 72.261719 Z M 59.804688 171.878906 "/><path style=" stroke:none;fill-rule:nonzero;fill:#eab308;fill-opacity:1;" d="M 269.414062 70.371094 L 103.308594 70.371094 C 102.878906 70.371094 102.453125 70.414062 102.03125 70.496094 C 101.609375 70.582031 101.199219 70.707031 100.800781 70.871094 C 100.40625 71.035156 100.027344 71.234375 99.671875 71.476562 C 99.3125 71.714844 98.980469 71.984375 98.679688 72.289062 C 98.375 72.59375 98.101562 72.925781 97.863281 73.28125 C 97.625 73.640625 97.421875 74.015625 97.257812 74.414062 C 97.09375 74.8125 96.96875 75.21875 96.886719 75.640625 C 96.800781 76.0625 96.761719 76.488281 96.761719 76.917969 C 96.761719 77.347656 96.800781 77.773438 96.886719 78.195312 C 96.96875 78.617188 97.09375 79.027344 97.257812 79.425781 C 97.421875 79.820312 97.625 80.199219 97.863281 80.554688 C 98.101562 80.914062 98.375 81.246094 98.679688 81.546875 C 98.980469 81.851562 99.3125 82.125 99.671875 82.363281 C 100.027344 82.601562 100.40625 82.804688 100.800781 82.96875 C 101.199219 83.132812 101.609375 83.257812 102.03125 83.339844 C 102.453125 83.425781 102.878906 83.464844 103.308594 83.464844 L 269.414062 83.464844 C 269.847656 83.464844 270.273438 83.425781 270.695312 83.339844 C 271.117188 83.257812 271.527344 83.132812 271.921875 82.96875 C 272.320312 82.804688 272.699219 82.605469 273.054688 82.363281 C 273.414062 82.125 273.746094 81.855469 274.050781 81.550781 C 274.355469 81.246094 274.625 80.917969 274.863281 80.558594 C 275.105469 80.199219 275.304688 79.824219 275.472656 79.425781 C 275.636719 79.027344 275.761719 78.617188 275.84375 78.195312 C 275.929688 77.773438 275.96875 77.347656 275.96875 76.917969 C 275.96875 76.488281 275.925781 76.0625 275.84375 75.640625 C 275.761719 75.21875 275.636719 74.808594 275.472656 74.410156 C 275.304688 74.015625 275.105469 73.636719 274.863281 73.28125 C 274.625 72.921875 274.355469 72.589844 274.050781 72.285156 C 273.746094 71.984375 273.414062 71.710938 273.054688 71.472656 C 272.699219 71.234375 272.320312 71.03125 271.921875 70.867188 C 271.527344 70.703125 271.117188 70.578125 270.695312 70.496094 C 270.273438 70.414062 269.847656 70.371094 269.414062 70.371094 Z M 269.414062 70.371094 "/><path style=" stroke:none;fill-rule:nonzero;fill:#eab308;fill-opacity:1;" d="M 269.414062 128.183594 L 103.308594 128.183594 C 102.878906 128.183594 102.453125 128.222656 102.03125 128.308594 C 101.609375 128.390625 101.199219 128.515625 100.800781 128.679688 C 100.40625 128.84375 100.027344 129.046875 99.671875 129.285156 C 99.3125 129.523438 98.980469 129.796875 98.679688 130.101562 C 98.375 130.402344 98.101562 130.734375 97.863281 131.09375 C 97.625 131.449219 97.421875 131.828125 97.257812 132.222656 C 97.09375 132.621094 96.96875 133.03125 96.886719 133.453125 C 96.800781 133.875 96.761719 134.300781 96.761719 134.730469 C 96.761719 135.160156 96.800781 135.585938 96.886719 136.007812 C 96.96875 136.429688 97.09375 136.839844 97.257812 137.234375 C 97.421875 137.632812 97.625 138.007812 97.863281 138.367188 C 98.101562 138.722656 98.375 139.054688 98.679688 139.359375 C 98.980469 139.664062 99.3125 139.933594 99.671875 140.171875 C 100.027344 140.414062 100.40625 140.613281 100.800781 140.777344 C 101.199219 140.941406 101.609375 141.066406 102.03125 141.152344 C 102.453125 141.234375 102.878906 141.277344 103.308594 141.277344 L 269.414062 141.277344 C 269.847656 141.277344 270.273438 141.234375 270.691406 141.152344 C 271.113281 141.066406 271.523438 140.941406 271.921875 140.777344 C 272.320312 140.613281 272.695312 140.414062 273.054688 140.171875 C 273.410156 139.933594 273.742188 139.664062 274.046875 139.359375 C 274.351562 139.054688 274.621094 138.722656 274.859375 138.367188 C 275.097656 138.007812 275.300781 137.632812 275.464844 137.234375 C 275.628906 136.839844 275.753906 136.429688 275.835938 136.007812 C 275.921875 135.585938 275.964844 135.160156 275.964844 134.730469 C 275.964844 134.300781 275.921875 133.875 275.835938 133.453125 C 275.753906 133.03125 275.628906 132.621094 275.464844 132.222656 C 275.300781 131.828125 275.097656 131.449219 274.859375 131.09375 C 274.621094 130.734375 274.351562 130.402344 274.046875 130.101562 C 273.742188 129.796875 273.410156 129.523438 273.054688 129.285156 C 272.695312 129.046875 272.320312 128.84375 271.921875 128.679688 C 271.523438 128.515625 271.113281 128.390625 270.691406 128.308594 C 270.273438 128.222656 269.847656 128.183594 269.414062 128.183594 Z M 269.414062 128.183594 "/><path style=" stroke:none;fill-rule:nonzero;fill:#eab308;fill-opacity:1;" d="M 269.414062 99.277344 L 103.308594 99.277344 C 102.878906 99.277344 102.453125 99.320312 102.03125 99.402344 C 101.609375 99.488281 101.199219 99.609375 100.800781 99.773438 C 100.40625 99.941406 100.027344 100.140625 99.671875 100.378906 C 99.3125 100.621094 98.980469 100.890625 98.679688 101.195312 C 98.375 101.5 98.101562 101.828125 97.863281 102.1875 C 97.625 102.542969 97.421875 102.921875 97.257812 103.320312 C 97.09375 103.714844 96.96875 104.125 96.886719 104.546875 C 96.800781 104.96875 96.761719 105.394531 96.761719 105.824219 C 96.761719 106.253906 96.800781 106.679688 96.886719 107.101562 C 96.96875 107.523438 97.09375 107.933594 97.257812 108.328125 C 97.421875 108.726562 97.625 109.105469 97.863281 109.460938 C 98.101562 109.820312 98.375 110.148438 98.679688 110.453125 C 98.980469 110.757812 99.3125 111.03125 99.671875 111.269531 C 100.027344 111.507812 100.40625 111.707031 100.800781 111.875 C 101.199219 112.039062 101.609375 112.160156 102.03125 112.246094 C 102.453125 112.328125 102.878906 112.371094 103.308594 112.371094 L 269.414062 112.371094 C 269.847656 112.371094 270.273438 112.328125 270.691406 112.246094 C 271.113281 112.160156 271.523438 112.039062 271.921875 111.875 C 272.320312 111.707031 272.695312 111.507812 273.054688 111.269531 C 273.410156 111.03125 273.742188 110.757812 274.046875 110.453125 C 274.351562 110.148438 274.621094 109.820312 274.859375 109.460938 C 275.097656 109.105469 275.300781 108.726562 275.464844 108.328125 C 275.628906 107.933594 275.753906 107.523438 275.835938 107.101562 C 275.921875 106.679688 275.964844 106.253906 275.964844 105.824219 C 275.964844 105.394531 275.921875 104.96875 275.835938 104.546875 C 275.753906 104.125 275.628906 103.714844 275.464844 103.320312 C 275.300781 102.921875 275.097656 102.542969 274.859375 102.1875 C 274.621094 101.828125 274.351562 101.5 274.046875 101.195312 C 273.742188 100.890625 273.410156 100.621094 273.054688 100.378906 C 272.695312 100.140625 272.320312 99.941406 271.921875 99.773438 C 271.523438 99.609375 271.113281 99.488281 270.691406 99.402344 C 270.273438 99.320312 269.847656 99.277344 269.414062 99.277344 Z M 269.414062 99.277344 "/><path style=" stroke:none;fill-rule:nonzero;fill:#eab308;fill-opacity:1;" d="M 202.683594 298.023438 L 148.992188 298.023438 C 148.585938 298.058594 148.183594 298.132812 147.789062 298.242188 C 147.394531 298.351562 147.015625 298.496094 146.648438 298.675781 C 146.28125 298.859375 145.933594 299.070312 145.605469 299.316406 C 145.277344 299.5625 144.976562 299.835938 144.699219 300.136719 C 144.421875 300.4375 144.175781 300.761719 143.960938 301.109375 C 143.742188 301.457031 143.5625 301.820312 143.414062 302.203125 C 143.265625 302.585938 143.152344 302.976562 143.078125 303.378906 C 143 303.78125 142.964844 304.1875 142.964844 304.597656 C 142.964844 305.003906 143 305.410156 143.078125 305.8125 C 143.152344 306.214844 143.265625 306.609375 143.414062 306.988281 C 143.5625 307.371094 143.742188 307.734375 143.960938 308.082031 C 144.175781 308.429688 144.421875 308.753906 144.699219 309.054688 C 144.976562 309.359375 145.277344 309.632812 145.605469 309.875 C 145.933594 310.121094 146.28125 310.335938 146.648438 310.515625 C 147.015625 310.695312 147.394531 310.839844 147.789062 310.949219 C 148.183594 311.058594 148.585938 311.132812 148.992188 311.167969 L 202.683594 311.167969 C 203.089844 311.132812 203.492188 311.058594 203.886719 310.949219 C 204.277344 310.839844 204.660156 310.695312 205.027344 310.515625 C 205.394531 310.335938 205.742188 310.121094 206.070312 309.875 C 206.398438 309.632812 206.699219 309.359375 206.976562 309.054688 C 207.253906 308.753906 207.5 308.429688 207.714844 308.082031 C 207.933594 307.734375 208.113281 307.371094 208.261719 306.988281 C 208.410156 306.609375 208.523438 306.214844 208.597656 305.8125 C 208.675781 305.410156 208.710938 305.003906 208.710938 304.597656 C 208.710938 304.1875 208.675781 303.78125 208.597656 303.378906 C 208.523438 302.976562 208.410156 302.585938 208.261719 302.203125 C 208.113281 301.820312 207.933594 301.457031 207.714844 301.109375 C 207.5 300.761719 207.253906 300.4375 206.976562 300.136719 C 206.699219 299.835938 206.398438 299.5625 206.070312 299.316406 C 205.742188 299.070312 205.394531 298.859375 205.027344 298.675781 C 204.660156 298.496094 204.277344 298.351562 203.886719 298.242188 C 203.492188 298.132812 203.089844 298.058594 202.683594 298.023438 Z M 202.683594 298.023438 "/><path style=" stroke:none;fill-rule:nonzero;fill:#eab308;fill-opacity:1;" d="M 222.46875 216.304688 C 221.472656 216.300781 220.523438 216.511719 219.625 216.933594 C 218.722656 217.359375 217.957031 217.957031 217.328125 218.730469 L 176.152344 269.652344 L 157.867188 245.839844 C 157.28125 245.085938 156.566406 244.484375 155.71875 244.035156 C 154.875 243.585938 153.972656 243.332031 153.019531 243.269531 C 151.535156 243.292969 150.210938 243.761719 149.042969 244.675781 C 148.703125 244.9375 148.390625 245.230469 148.109375 245.550781 C 147.824219 245.875 147.574219 246.222656 147.363281 246.59375 C 147.148438 246.964844 146.972656 247.355469 146.832031 247.761719 C 146.695312 248.167969 146.597656 248.582031 146.542969 249.007812 C 146.484375 249.433594 146.472656 249.859375 146.5 250.289062 C 146.527344 250.71875 146.59375 251.140625 146.707031 251.554688 C 146.816406 251.96875 146.964844 252.367188 147.15625 252.753906 C 147.34375 253.136719 147.570312 253.5 147.828125 253.84375 L 170.816406 284.203125 C 171.125 284.589844 171.46875 284.941406 171.855469 285.25 C 172.242188 285.5625 172.65625 285.824219 173.101562 286.039062 C 173.546875 286.253906 174.011719 286.417969 174.492188 286.53125 C 174.976562 286.640625 175.464844 286.695312 175.957031 286.695312 C 176.453125 286.695312 176.941406 286.640625 177.425781 286.53125 C 177.90625 286.417969 178.371094 286.253906 178.816406 286.039062 C 179.261719 285.824219 179.675781 285.5625 180.0625 285.25 C 180.449219 284.941406 180.792969 284.589844 181.101562 284.203125 L 227.511719 226.972656 C 227.785156 226.640625 228.023438 226.28125 228.226562 225.898438 C 228.429688 225.519531 228.59375 225.121094 228.71875 224.707031 C 228.84375 224.292969 228.925781 223.871094 228.96875 223.441406 C 229.007812 223.011719 229.007812 222.582031 228.964844 222.152344 C 228.921875 221.722656 228.839844 221.300781 228.710938 220.886719 C 228.585938 220.472656 228.421875 220.078125 228.21875 219.695312 C 228.015625 219.316406 227.777344 218.957031 227.503906 218.625 C 227.230469 218.289062 226.925781 217.984375 226.589844 217.710938 C 225.375 216.777344 224.003906 216.308594 222.46875 216.304688 Z M 222.46875 216.304688 "/></g></svg>