<svg xmlns="http://www.w3.org/2000/svg" xmlns:xlink="http://www.w3.org/1999/xlink" width="500" zoomAndPan="magnify" viewBox="0 0 375 374.999991" height="500" preserveAspectRatio="xMidYMid meet" version="1.2"><defs><clipPath id="c6028b7327"><path d="M 21.09375 100 L 180 100 L 180 263 L 21.09375 263 Z M 21.09375 100 "/></clipPath></defs><g id="5ec286ab02"><path style=" stroke:none;fill-rule:nonzero;fill:#eab308;fill-opacity:1;" d="M 345.550781 374.984375 L 297.554688 374.984375 C 294.320312 374.984375 291.695312 372.363281 291.695312 369.128906 C 291.695312 365.894531 294.320312 363.269531 297.554688 363.269531 L 339.695312 363.269531 L 339.695312 201.085938 L 288.480469 201.085938 L 288.480469 218.074219 C 288.480469 221.308594 285.855469 223.933594 282.621094 223.933594 C 279.386719 223.933594 276.761719 221.308594 276.761719 218.074219 L 276.761719 195.226562 C 276.761719 191.992188 279.386719 189.367188 282.621094 189.367188 L 345.550781 189.367188 C 348.785156 189.367188 351.410156 191.992188 351.410156 195.226562 L 351.410156 369.128906 C 351.410156 372.363281 348.789062 374.984375 345.550781 374.984375 Z M 345.550781 374.984375 "/><path style=" stroke:none;fill-rule:nonzero;fill:#eab308;fill-opacity:1;" d="M 297.554688 374.984375 L 249.558594 374.984375 C 246.324219 374.984375 243.699219 372.363281 243.699219 369.128906 C 243.699219 365.894531 246.324219 363.269531 249.558594 363.269531 L 291.695312 363.269531 L 291.695312 223.929688 L 240.484375 223.929688 L 240.484375 240.917969 C 240.484375 244.152344 237.859375 246.777344 234.625 246.777344 C 231.390625 246.777344 228.765625 244.152344 228.765625 240.917969 L 228.765625 218.070312 C 228.765625 214.835938 231.390625 212.210938 234.625 212.210938 L 297.554688 212.210938 C 300.789062 212.210938 303.414062 214.835938 303.414062 218.070312 L 303.414062 369.128906 C 303.414062 372.363281 300.792969 374.984375 297.554688 374.984375 Z M 297.554688 374.984375 "/><path style=" stroke:none;fill-rule:nonzero;fill:#eab308;fill-opacity:1;" d="M 249.558594 374.984375 L 201.5625 374.984375 C 198.328125 374.984375 195.703125 372.363281 195.703125 369.128906 C 195.703125 365.894531 198.328125 363.269531 201.5625 363.269531 L 243.699219 363.269531 L 243.699219 246.777344 L 192.488281 246.777344 L 192.488281 263.765625 C 192.488281 267 189.863281 269.625 186.628906 269.625 C 183.394531 269.625 180.769531 267 180.769531 263.765625 L 180.769531 240.917969 C 180.769531 237.683594 183.394531 235.058594 186.628906 235.058594 L 249.558594 235.058594 C 252.792969 235.058594 255.417969 237.683594 255.417969 240.917969 L 255.417969 369.128906 C 255.417969 372.363281 252.792969 374.984375 249.558594 374.984375 Z M 249.558594 374.984375 "/><path style=" stroke:none;fill-rule:nonzero;fill:#eab308;fill-opacity:1;" d="M 201.5625 374.984375 L 153.566406 374.984375 C 150.328125 374.984375 147.707031 372.363281 147.707031 369.128906 C 147.707031 365.894531 150.328125 363.269531 153.566406 363.269531 L 195.703125 363.269531 L 195.703125 269.625 L 144.492188 269.625 L 144.492188 286.613281 C 144.492188 289.847656 141.867188 292.472656 138.632812 292.472656 C 135.398438 292.472656 132.773438 289.847656 132.773438 286.613281 L 132.773438 263.765625 C 132.773438 260.53125 135.398438 257.90625 138.632812 257.90625 L 201.5625 257.90625 C 204.796875 257.90625 207.421875 260.53125 207.421875 263.765625 L 207.421875 369.128906 C 207.421875 372.363281 204.796875 374.984375 201.5625 374.984375 Z M 201.5625 374.984375 "/><path style=" stroke:none;fill-rule:nonzero;fill:#eab308;fill-opacity:1;" d="M 153.566406 374.984375 L 105.566406 374.984375 C 102.332031 374.984375 99.707031 372.363281 99.707031 369.128906 C 99.707031 365.894531 102.332031 363.269531 105.566406 363.269531 L 147.707031 363.269531 L 147.707031 292.46875 L 96.492188 292.46875 L 96.492188 309.457031 C 96.492188 312.695312 93.871094 315.316406 90.632812 315.316406 C 87.398438 315.316406 84.777344 312.695312 84.777344 309.457031 L 84.777344 286.613281 C 84.777344 283.375 87.398438 280.753906 90.632812 280.753906 L 153.566406 280.753906 C 156.800781 280.753906 159.421875 283.375 159.421875 286.613281 L 159.421875 369.128906 C 159.421875 372.363281 156.800781 374.984375 153.566406 374.984375 Z M 153.566406 374.984375 "/><path style=" stroke:none;fill-rule:nonzero;fill:#eab308;fill-opacity:1;" d="M 105.566406 374.984375 L 42.636719 374.984375 C 39.402344 374.984375 36.777344 372.363281 36.777344 369.128906 L 36.777344 309.457031 C 36.777344 306.222656 39.402344 303.601562 42.636719 303.601562 L 105.566406 303.601562 C 108.800781 303.601562 111.425781 306.222656 111.425781 309.457031 L 111.425781 369.128906 C 111.425781 372.363281 108.800781 374.984375 105.566406 374.984375 Z M 48.496094 363.269531 L 99.707031 363.269531 L 99.707031 315.316406 L 48.496094 315.316406 Z M 48.496094 363.269531 "/><path style=" stroke:none;fill-rule:nonzero;fill:#eab308;fill-opacity:1;" d="M 314.085938 201.085938 C 310.851562 201.085938 308.226562 198.460938 308.226562 195.226562 L 308.226562 131.367188 C 308.226562 128.132812 310.851562 125.511719 314.085938 125.511719 C 317.320312 125.511719 319.945312 128.132812 319.945312 131.367188 L 319.945312 195.226562 C 319.945312 198.464844 317.320312 201.085938 314.085938 201.085938 Z M 314.085938 201.085938 "/><path style=" stroke:none;fill-rule:nonzero;fill:#eab308;fill-opacity:1;" d="M 314.085938 175.828125 C 312.992188 175.828125 311.898438 175.519531 310.949219 174.914062 C 309.253906 173.839844 308.226562 171.972656 308.226562 169.96875 L 308.226562 138.035156 C 308.226562 136.027344 309.253906 134.160156 310.949219 133.085938 C 312.640625 132.011719 314.765625 131.878906 316.582031 132.730469 L 350.539062 148.699219 C 352.59375 149.664062 353.90625 151.730469 353.90625 154 C 353.90625 156.273438 352.59375 158.335938 350.539062 159.304688 L 316.582031 175.273438 C 315.789062 175.644531 314.9375 175.828125 314.085938 175.828125 Z M 319.945312 147.265625 L 319.945312 160.742188 L 334.277344 154.003906 Z M 319.945312 147.265625 "/><path style=" stroke:none;fill-rule:nonzero;fill:#eab308;fill-opacity:1;" d="M 247.730469 202.929688 C 246.171875 202.929688 244.613281 202.714844 243.105469 202.296875 C 234.1875 199.832031 228.792969 190.828125 230.824219 181.800781 L 237.265625 153.160156 L 208.492188 138.640625 C 201.566406 135.144531 197.9375 127.421875 199.664062 119.859375 L 199.6875 119.746094 C 199.730469 119.566406 199.777344 119.394531 199.835938 119.222656 L 209.140625 90.835938 L 202.351562 92.332031 L 190.910156 108.664062 C 190.890625 108.691406 190.871094 108.71875 190.851562 108.746094 C 187.621094 113.195312 182.414062 115.851562 176.914062 115.851562 C 174.089844 115.851562 171.28125 115.144531 168.789062 113.808594 C 164.457031 111.488281 161.316406 107.417969 160.171875 102.640625 C 159.03125 97.871094 159.984375 92.828125 162.78125 88.804688 L 178.082031 66.5 C 180.175781 63.453125 183.261719 61.136719 186.773438 59.976562 L 186.847656 59.953125 C 186.957031 59.917969 187.0625 59.886719 187.171875 59.855469 L 224.410156 49.953125 C 226.027344 49.449219 227.703125 49.195312 229.398438 49.195312 C 231.246094 49.195312 233.066406 49.496094 234.816406 50.089844 C 234.832031 50.09375 234.84375 50.097656 234.851562 50.101562 L 273.265625 63.425781 L 288.070312 46.234375 C 291.257812 42.539062 295.878906 40.421875 300.753906 40.421875 C 303.507812 40.421875 306.246094 41.113281 308.671875 42.417969 C 313.082031 44.785156 316.175781 48.957031 317.164062 53.863281 C 318.148438 58.769531 316.910156 63.8125 313.761719 67.703125 C 313.753906 67.714844 313.746094 67.726562 313.734375 67.734375 L 290.386719 96.175781 C 287.144531 100.121094 282.359375 102.382812 277.257812 102.382812 C 275.316406 102.382812 273.398438 102.050781 271.5625 101.398438 L 258.042969 96.582031 L 249.636719 120.539062 L 266.835938 129.449219 C 273.890625 133.101562 277.402344 141.015625 275.375 148.695312 L 264.464844 190.035156 C 262.453125 197.628906 255.570312 202.929688 247.730469 202.929688 Z M 211.058594 122.59375 C 210.605469 124.855469 211.707031 127.136719 213.773438 128.179688 L 246.625 144.757812 C 249.019531 145.96875 250.289062 148.65625 249.699219 151.273438 L 242.257812 184.371094 C 241.601562 187.292969 243.34375 190.203125 246.230469 191.003906 C 246.722656 191.140625 247.222656 191.207031 247.726562 191.207031 C 250.261719 191.207031 252.488281 189.492188 253.140625 187.035156 L 264.050781 145.703125 C 264.675781 143.332031 263.632812 140.976562 261.453125 139.851562 L 239.734375 128.597656 C 237.140625 127.253906 235.933594 124.207031 236.902344 121.453125 L 248.941406 87.144531 C 249.457031 85.675781 250.539062 84.46875 251.945312 83.800781 C 253.351562 83.128906 254.964844 83.042969 256.433594 83.566406 L 275.496094 90.355469 C 276.066406 90.558594 276.660156 90.660156 277.261719 90.660156 C 278.84375 90.660156 280.328125 89.960938 281.332031 88.738281 L 304.667969 60.316406 C 305.605469 59.152344 305.972656 57.644531 305.675781 56.175781 C 305.382812 54.703125 304.453125 53.453125 303.128906 52.742188 C 302.398438 52.351562 301.578125 52.144531 300.753906 52.144531 C 299.289062 52.144531 297.902344 52.777344 296.941406 53.890625 L 279.546875 74.09375 C 277.980469 75.914062 275.457031 76.59375 273.1875 75.804688 L 231.035156 61.179688 C 230 60.835938 228.871094 60.824219 227.832031 61.160156 C 227.742188 61.1875 227.644531 61.21875 227.550781 61.242188 L 190.359375 71.132812 C 189.304688 71.5 188.375 72.207031 187.742188 73.132812 L 172.433594 95.449219 C 172.421875 95.460938 172.414062 95.472656 172.40625 95.488281 C 171.507812 96.773438 171.203125 98.386719 171.570312 99.914062 C 171.933594 101.4375 172.9375 102.742188 174.320312 103.480469 C 175.117188 103.90625 176.011719 104.132812 176.910156 104.132812 C 178.65625 104.132812 180.308594 103.296875 181.339844 101.894531 L 194.058594 83.738281 C 194.898438 82.535156 196.160156 81.691406 197.597656 81.378906 L 216.644531 77.179688 C 218.699219 76.730469 220.835938 77.414062 222.25 78.972656 C 223.660156 80.53125 224.125 82.730469 223.472656 84.730469 Z M 211.058594 122.59375 "/><path style=" stroke:none;fill-rule:nonzero;fill:#eab308;fill-opacity:1;" d="M 192.273438 220.570312 C 189.691406 220.570312 187.1875 220.003906 184.835938 218.890625 C 180.519531 216.839844 177.207031 213.046875 175.757812 208.488281 C 174.308594 203.9375 174.816406 198.929688 177.15625 194.753906 L 193.585938 165.4375 L 204.386719 130.984375 C 205.351562 127.898438 208.640625 126.179688 211.730469 127.148438 C 214.816406 128.113281 216.535156 131.402344 215.566406 134.492188 L 204.582031 169.523438 C 204.460938 169.910156 204.304688 170.28125 204.105469 170.632812 L 187.375 200.484375 C 186.617188 201.835938 186.453125 203.457031 186.921875 204.933594 C 187.394531 206.414062 188.460938 207.640625 189.859375 208.304688 C 190.628906 208.671875 191.4375 208.851562 192.273438 208.851562 C 192.871094 208.851562 193.460938 208.757812 194.03125 208.570312 C 195.398438 208.121094 196.53125 207.175781 197.214844 205.90625 L 214.273438 174.375 L 224.089844 141.269531 C 224.769531 138.777344 227.042969 136.945312 229.746094 136.945312 C 232.980469 136.945312 235.605469 139.570312 235.605469 142.804688 C 235.605469 143.371094 235.523438 143.929688 235.363281 144.472656 L 225.332031 178.296875 C 225.210938 178.699219 225.050781 179.085938 224.847656 179.453125 L 224.726562 179.679688 L 207.523438 211.476562 C 205.410156 215.386719 201.917969 218.308594 197.695312 219.699219 C 195.945312 220.277344 194.121094 220.570312 192.273438 220.570312 Z M 192.273438 220.570312 "/><path style=" stroke:none;fill-rule:nonzero;fill:#eab308;fill-opacity:1;" d="M 259.109375 48.878906 C 248.539062 48.878906 239.214844 42.132812 235.90625 32.085938 C 233.867188 25.886719 234.363281 19.269531 237.300781 13.441406 C 240.238281 7.617188 245.273438 3.28125 251.46875 1.246094 C 253.949219 0.429688 256.519531 0.015625 259.109375 0.015625 C 269.679688 0.015625 279.003906 6.761719 282.3125 16.808594 C 286.523438 29.601562 279.542969 43.4375 266.746094 47.648438 C 264.273438 48.464844 261.699219 48.878906 259.109375 48.878906 Z M 259.113281 11.730469 C 257.769531 11.730469 256.429688 11.945312 255.136719 12.375 C 251.910156 13.4375 249.292969 15.6875 247.765625 18.722656 C 246.234375 21.753906 245.976562 25.199219 247.039062 28.421875 C 248.761719 33.648438 253.609375 37.160156 259.109375 37.160156 C 260.453125 37.160156 261.792969 36.945312 263.085938 36.519531 C 269.742188 34.328125 273.375 27.128906 271.183594 20.472656 C 269.460938 15.246094 264.609375 11.730469 259.113281 11.730469 Z M 259.113281 11.730469 "/><g clip-rule="nonzero" clip-path="url(#c6028b7327)"><path style=" stroke:none;fill-rule:nonzero;fill:#eab308;fill-opacity:1;" d="M 109.785156 262.871094 C 108.226562 262.871094 106.671875 262.660156 105.164062 262.242188 C 96.246094 259.773438 90.851562 250.773438 92.878906 241.746094 L 99.320312 213.105469 L 70.546875 198.585938 C 63.621094 195.089844 59.992188 187.367188 61.71875 179.804688 L 61.746094 179.691406 C 61.785156 179.511719 61.832031 179.339844 61.890625 179.164062 L 71.199219 150.777344 L 64.402344 152.277344 L 52.964844 168.609375 C 52.945312 168.636719 52.925781 168.664062 52.90625 168.691406 C 49.679688 173.136719 44.46875 175.792969 38.96875 175.792969 C 36.144531 175.792969 33.335938 175.089844 30.84375 173.753906 C 26.511719 171.433594 23.371094 167.363281 22.230469 162.585938 C 21.085938 157.816406 22.039062 152.773438 24.839844 148.746094 L 40.136719 126.445312 C 42.230469 123.394531 45.316406 121.078125 48.832031 119.921875 L 48.902344 119.898438 C 49.011719 119.859375 49.117188 119.828125 49.230469 119.800781 L 86.464844 109.894531 C 88.082031 109.394531 89.761719 109.140625 91.453125 109.140625 C 93.304688 109.140625 95.125 109.4375 96.875 110.035156 C 96.886719 110.039062 96.894531 110.042969 96.910156 110.046875 L 135.320312 123.371094 L 150.125 106.179688 C 153.316406 102.484375 157.9375 100.367188 162.808594 100.367188 C 165.5625 100.367188 168.300781 101.054688 170.730469 102.363281 C 175.136719 104.730469 178.230469 108.902344 179.21875 113.808594 C 180.207031 118.714844 178.96875 123.757812 175.820312 127.644531 C 175.8125 127.65625 175.800781 127.664062 175.792969 127.679688 L 152.445312 156.117188 C 149.203125 160.0625 144.417969 162.324219 139.316406 162.324219 C 137.375 162.324219 135.457031 161.992188 133.621094 161.339844 L 120.101562 156.527344 L 111.695312 180.480469 L 128.894531 189.390625 C 135.949219 193.042969 139.460938 200.960938 137.433594 208.640625 L 126.523438 249.980469 C 124.511719 257.574219 117.628906 262.871094 109.785156 262.871094 Z M 73.117188 182.539062 C 72.660156 184.800781 73.761719 187.082031 75.828125 188.125 L 108.679688 204.703125 C 111.078125 205.914062 112.347656 208.597656 111.757812 211.21875 L 104.3125 244.316406 C 103.65625 247.238281 105.402344 250.148438 108.285156 250.949219 C 108.777344 251.085938 109.28125 251.152344 109.785156 251.152344 C 112.316406 251.152344 114.542969 249.4375 115.195312 246.980469 L 126.105469 205.648438 C 126.730469 203.273438 125.6875 200.921875 123.511719 199.792969 L 101.789062 188.542969 C 99.199219 187.199219 97.988281 184.152344 98.957031 181.398438 L 110.996094 147.089844 C 111.511719 145.621094 112.59375 144.414062 114 143.742188 C 115.40625 143.070312 117.023438 142.988281 118.492188 143.511719 L 137.554688 150.300781 C 138.125 150.503906 138.71875 150.605469 139.320312 150.605469 C 140.902344 150.605469 142.386719 149.90625 143.390625 148.683594 L 166.726562 120.261719 C 167.664062 119.097656 168.03125 117.589844 167.734375 116.121094 C 167.441406 114.648438 166.511719 113.398438 165.1875 112.6875 C 164.457031 112.296875 163.636719 112.089844 162.8125 112.089844 C 161.347656 112.089844 159.960938 112.722656 159 113.832031 L 141.605469 134.035156 C 140.039062 135.859375 137.515625 136.535156 135.246094 135.75 L 93.089844 121.125 C 92.058594 120.777344 90.929688 120.769531 89.890625 121.101562 C 89.796875 121.132812 89.703125 121.160156 89.605469 121.1875 L 52.417969 131.078125 C 51.359375 131.445312 50.433594 132.148438 49.800781 133.074219 L 34.488281 155.390625 C 34.480469 155.402344 34.472656 155.414062 34.460938 155.429688 C 33.5625 156.714844 33.257812 158.328125 33.625 159.855469 C 33.992188 161.382812 34.992188 162.683594 36.375 163.421875 C 37.171875 163.847656 38.066406 164.074219 38.964844 164.074219 C 40.710938 164.074219 42.363281 163.238281 43.398438 161.835938 L 56.113281 143.683594 C 56.957031 142.480469 58.21875 141.636719 59.652344 141.320312 L 78.699219 137.125 C 80.753906 136.671875 82.894531 137.355469 84.304688 138.917969 C 85.714844 140.476562 86.183594 142.675781 85.527344 144.671875 Z M 73.117188 182.539062 "/></g><path style=" stroke:none;fill-rule:nonzero;fill:#eab308;fill-opacity:1;" d="M 54.332031 280.515625 C 51.742188 280.515625 49.242188 279.949219 46.894531 278.832031 C 42.574219 276.785156 39.265625 272.996094 37.816406 268.433594 C 36.367188 263.882812 36.875 258.875 39.214844 254.699219 L 55.644531 225.378906 L 66.445312 190.929688 C 67.410156 187.839844 70.699219 186.125 73.789062 187.09375 C 76.875 188.058594 78.59375 191.347656 77.625 194.433594 L 66.640625 229.46875 C 66.519531 229.851562 66.363281 230.226562 66.164062 230.578125 L 49.433594 260.429688 C 48.675781 261.78125 48.511719 263.402344 48.980469 264.878906 C 49.449219 266.359375 50.519531 267.585938 51.917969 268.25 C 52.6875 268.613281 53.5 268.796875 54.332031 268.796875 C 54.929688 268.796875 55.519531 268.703125 56.089844 268.515625 C 57.457031 268.0625 58.589844 267.117188 59.273438 265.847656 L 76.332031 234.316406 L 86.148438 201.210938 C 86.828125 198.722656 89.101562 196.890625 91.804688 196.890625 C 95.039062 196.890625 97.664062 199.511719 97.664062 202.746094 L 97.664062 202.75 C 97.664062 203.3125 97.582031 203.875 97.421875 204.414062 L 87.390625 238.242188 C 87.269531 238.640625 87.109375 239.03125 86.90625 239.394531 L 86.78125 239.621094 L 69.578125 271.417969 C 67.464844 275.332031 63.972656 278.25 59.753906 279.640625 C 58.003906 280.21875 56.175781 280.515625 54.332031 280.515625 Z M 54.332031 280.515625 "/><path style=" stroke:none;fill-rule:nonzero;fill:#eab308;fill-opacity:1;" d="M 121.164062 108.820312 C 110.59375 108.820312 101.269531 102.070312 97.964844 92.027344 C 95.921875 85.832031 96.417969 79.210938 99.355469 73.386719 C 102.296875 67.558594 107.332031 63.226562 113.527344 61.1875 C 116.003906 60.375 118.574219 59.957031 121.167969 59.957031 C 131.738281 59.957031 141.058594 66.707031 144.367188 76.75 C 146.40625 82.941406 145.910156 89.5625 142.96875 95.390625 C 140.027344 101.222656 134.996094 105.554688 128.804688 107.59375 C 126.328125 108.410156 123.757812 108.820312 121.164062 108.820312 Z M 121.167969 71.675781 C 119.824219 71.675781 118.488281 71.890625 117.191406 72.316406 C 113.96875 73.378906 111.347656 75.632812 109.820312 78.664062 C 108.289062 81.695312 108.03125 85.140625 109.09375 88.367188 C 110.816406 93.59375 115.667969 97.105469 121.164062 97.105469 C 122.507812 97.105469 123.847656 96.890625 125.140625 96.464844 C 128.359375 95.40625 130.972656 93.148438 132.507812 90.113281 C 134.039062 87.078125 134.296875 83.636719 133.238281 80.417969 C 131.519531 75.1875 126.667969 71.675781 121.167969 71.675781 Z M 121.167969 71.675781 "/></g></svg>