<svg xmlns="http://www.w3.org/2000/svg" xmlns:xlink="http://www.w3.org/1999/xlink" width="500" zoomAndPan="magnify" viewBox="0 0 375 374.999991" height="500" preserveAspectRatio="xMidYMid meet" version="1.2"><g id="e6776f3272"><path style=" stroke:none;fill-rule:evenodd;fill:#eab308;fill-opacity:1;" d="M 345.386719 32.179688 L 186.714844 32.179688 C 176.828125 13.085938 156.898438 0 133.957031 0 C 101.214844 0 74.582031 26.636719 74.582031 59.378906 C 74.582031 92.121094 101.214844 118.753906 133.957031 118.753906 C 137.09375 118.753906 140.171875 118.507812 143.175781 118.035156 L 143.175781 151.527344 L 29.40625 151.527344 C 13.191406 151.527344 0 164.71875 0 180.933594 L 0 298.007812 C 0 314.222656 13.191406 327.414062 29.40625 327.414062 L 43.125 327.414062 L 43.125 368.953125 C 43.125 371.421875 44.625 373.640625 46.917969 374.5625 C 47.648438 374.859375 48.414062 375 49.171875 375 C 50.789062 375 52.371094 374.351562 53.535156 373.140625 L 97.460938 327.417969 L 175.375 327.417969 C 180.941406 354.539062 204.996094 375 233.738281 375 C 266.585938 375 293.308594 348.273438 293.308594 315.425781 C 293.308594 282.578125 266.585938 255.851562 233.738281 255.851562 C 232.449219 255.851562 231.175781 255.90625 229.90625 255.988281 L 229.90625 209.511719 L 276.757812 209.511719 L 321.082031 255.65625 C 322.246094 256.867188 323.832031 257.515625 325.445312 257.515625 C 326.207031 257.515625 326.972656 257.371094 327.703125 257.074219 C 329.992188 256.15625 331.492188 253.933594 331.492188 251.464844 L 331.492188 209.511719 L 345.386719 209.511719 C 361.714844 209.511719 375 196.226562 375 179.898438 L 375 61.792969 C 375 45.464844 361.714844 32.179688 345.386719 32.179688 Z M 86.675781 59.378906 C 86.675781 33.308594 107.886719 12.097656 133.957031 12.097656 C 160.027344 12.097656 181.238281 33.308594 181.238281 59.378906 C 181.238281 85.449219 160.027344 106.660156 133.957031 106.660156 C 107.886719 106.660156 86.675781 85.449219 86.675781 59.378906 Z M 281.214844 315.425781 C 281.214844 341.605469 259.914062 362.902344 233.738281 362.902344 C 207.558594 362.902344 186.261719 341.605469 186.261719 315.425781 C 186.261719 289.246094 207.558594 267.949219 233.738281 267.949219 C 259.914062 267.949219 281.214844 289.246094 281.214844 315.425781 Z M 174.167969 315.320312 L 94.886719 315.320312 C 93.238281 315.320312 91.664062 315.992188 90.523438 317.175781 L 55.222656 353.925781 L 55.222656 321.367188 C 55.222656 318.027344 52.515625 315.320312 49.175781 315.320312 L 29.40625 315.320312 C 19.863281 315.320312 12.097656 307.554688 12.097656 298.007812 L 12.097656 180.933594 C 12.097656 171.386719 19.863281 163.625 29.40625 163.625 L 200.5 163.625 C 210.042969 163.625 217.808594 171.386719 217.808594 180.933594 L 217.808594 258.03125 C 192.707031 265.007812 174.214844 288.035156 174.167969 315.320312 Z M 362.902344 179.898438 C 362.902344 189.554688 355.042969 197.414062 345.386719 197.414062 L 325.445312 197.414062 C 322.105469 197.414062 319.398438 200.121094 319.398438 203.464844 L 319.398438 236.4375 L 283.695312 199.273438 C 282.554688 198.085938 280.980469 197.414062 279.332031 197.414062 L 229.90625 197.414062 L 229.90625 180.933594 C 229.90625 164.71875 216.714844 151.527344 200.5 151.527344 L 155.273438 151.527344 L 155.273438 114.785156 C 177.511719 106.199219 193.335938 84.609375 193.335938 59.378906 C 193.335938 54.160156 192.65625 49.101562 191.382812 44.277344 L 345.386719 44.277344 C 355.046875 44.277344 362.902344 52.136719 362.902344 61.792969 Z M 325.101562 81.527344 C 325.101562 84.867188 322.394531 87.574219 319.054688 87.574219 L 199.121094 87.574219 C 195.78125 87.574219 193.070312 84.867188 193.070312 81.527344 C 193.070312 78.1875 195.78125 75.476562 199.121094 75.476562 L 319.054688 75.476562 C 322.394531 75.476562 325.101562 78.1875 325.101562 81.527344 Z M 325.101562 120.832031 C 325.101562 124.171875 322.394531 126.878906 319.054688 126.878906 L 199.121094 126.878906 C 195.78125 126.878906 193.070312 124.171875 193.070312 120.832031 C 193.070312 117.492188 195.78125 114.785156 199.121094 114.785156 L 319.054688 114.785156 C 322.394531 114.785156 325.101562 117.492188 325.101562 120.832031 Z M 325.101562 160.140625 C 325.101562 163.480469 322.394531 166.1875 319.054688 166.1875 L 241.15625 166.1875 C 237.816406 166.1875 235.109375 163.480469 235.109375 160.140625 C 235.109375 156.800781 237.816406 154.089844 241.15625 154.089844 L 319.054688 154.089844 C 322.394531 154.089844 325.101562 156.800781 325.101562 160.140625 Z M 197.773438 238.382812 C 197.773438 238.347656 197.765625 238.3125 197.765625 238.277344 C 197.753906 238.105469 197.734375 237.929688 197.710938 237.757812 C 197.703125 237.699219 197.691406 237.644531 197.679688 237.589844 C 197.652344 237.441406 197.621094 237.292969 197.585938 237.144531 C 197.566406 237.074219 197.542969 237.007812 197.523438 236.941406 C 197.484375 236.8125 197.445312 236.679688 197.394531 236.550781 C 197.367188 236.472656 197.335938 236.394531 197.300781 236.320312 C 197.253906 236.207031 197.203125 236.09375 197.148438 235.980469 C 197.105469 235.894531 197.0625 235.8125 197.015625 235.726562 C 196.988281 235.675781 196.964844 235.625 196.933594 235.574219 L 175.019531 198.597656 C 175.003906 198.578125 174.988281 198.558594 174.976562 198.539062 C 174.722656 198.125 174.425781 197.746094 174.089844 197.410156 C 174.042969 197.363281 173.996094 197.320312 173.949219 197.277344 C 173.824219 197.160156 173.695312 197.046875 173.558594 196.941406 C 173.5 196.894531 173.441406 196.847656 173.378906 196.804688 C 173.21875 196.6875 173.058594 196.578125 172.886719 196.480469 C 172.855469 196.460938 172.824219 196.441406 172.792969 196.421875 C 172.597656 196.3125 172.394531 196.214844 172.1875 196.125 C 172.117188 196.09375 172.042969 196.070312 171.972656 196.042969 C 171.820312 195.984375 171.664062 195.929688 171.503906 195.882812 C 171.433594 195.863281 171.363281 195.84375 171.292969 195.824219 C 171.070312 195.769531 170.84375 195.71875 170.617188 195.691406 C 170.613281 195.691406 170.609375 195.6875 170.605469 195.6875 C 170.367188 195.65625 170.125 195.644531 169.882812 195.640625 C 169.859375 195.640625 169.839844 195.636719 169.816406 195.636719 C 169.773438 195.636719 169.738281 195.644531 169.695312 195.644531 C 169.515625 195.648438 169.332031 195.660156 169.148438 195.679688 C 169.078125 195.6875 169.007812 195.695312 168.9375 195.707031 C 168.746094 195.734375 168.550781 195.773438 168.359375 195.820312 C 168.316406 195.832031 168.273438 195.835938 168.230469 195.847656 C 168.222656 195.851562 168.210938 195.851562 168.199219 195.855469 C 157.804688 198.734375 154.253906 197.386719 149.757812 195.683594 C 145.246094 193.976562 139.78125 191.910156 129.28125 193.234375 C 126.617188 188.019531 121.199219 184.433594 114.953125 184.433594 C 108.703125 184.433594 103.289062 188.019531 100.625 193.234375 C 90.125 191.910156 84.660156 193.976562 80.148438 195.6875 C 75.652344 197.390625 72.101562 198.738281 61.703125 195.855469 C 61.695312 195.855469 61.683594 195.851562 61.671875 195.851562 C 61.628906 195.839844 61.585938 195.832031 61.539062 195.820312 C 61.351562 195.773438 61.160156 195.734375 60.972656 195.707031 C 60.894531 195.695312 60.820312 195.6875 60.746094 195.679688 C 60.570312 195.660156 60.398438 195.648438 60.226562 195.644531 C 60.179688 195.644531 60.136719 195.636719 60.089844 195.636719 C 60.0625 195.636719 60.035156 195.640625 60.011719 195.644531 C 59.777344 195.644531 59.550781 195.660156 59.324219 195.6875 C 59.28125 195.695312 59.238281 195.703125 59.191406 195.710938 C 59.003906 195.738281 58.820312 195.777344 58.636719 195.820312 C 58.542969 195.84375 58.453125 195.871094 58.363281 195.898438 C 58.230469 195.9375 58.105469 195.980469 57.976562 196.027344 C 57.882812 196.066406 57.785156 196.097656 57.695312 196.140625 C 57.546875 196.203125 57.402344 196.277344 57.257812 196.351562 C 57.144531 196.414062 57.035156 196.476562 56.925781 196.542969 C 56.796875 196.621094 56.671875 196.703125 56.546875 196.792969 C 56.46875 196.847656 56.394531 196.90625 56.320312 196.96875 C 56.203125 197.058594 56.09375 197.15625 55.984375 197.253906 C 55.925781 197.3125 55.863281 197.367188 55.804688 197.425781 C 55.640625 197.589844 55.488281 197.757812 55.34375 197.9375 C 55.332031 197.953125 55.320312 197.972656 55.308594 197.988281 C 55.171875 198.164062 55.050781 198.34375 54.933594 198.53125 C 54.921875 198.554688 54.902344 198.578125 54.886719 198.601562 L 32.972656 235.574219 C 32.941406 235.625 32.917969 235.679688 32.890625 235.730469 C 32.84375 235.8125 32.800781 235.898438 32.757812 235.980469 C 32.703125 236.09375 32.652344 236.207031 32.605469 236.320312 C 32.570312 236.398438 32.539062 236.472656 32.511719 236.550781 C 32.460938 236.679688 32.421875 236.8125 32.378906 236.941406 C 32.359375 237.011719 32.339844 237.078125 32.320312 237.144531 C 32.285156 237.292969 32.253906 237.441406 32.226562 237.589844 C 32.214844 237.644531 32.203125 237.699219 32.195312 237.757812 C 32.167969 237.929688 32.152344 238.105469 32.140625 238.277344 C 32.140625 238.3125 32.132812 238.347656 32.132812 238.382812 C 32.113281 238.808594 32.140625 239.230469 32.210938 239.644531 C 32.210938 239.660156 32.210938 239.671875 32.214844 239.6875 C 34.550781 253.285156 46.277344 263.152344 60.089844 263.152344 C 73.90625 263.152344 85.628906 253.285156 87.96875 239.683594 C 87.972656 239.671875 87.972656 239.65625 87.972656 239.640625 C 88.003906 239.449219 88.027344 239.257812 88.039062 239.066406 C 88.042969 239.050781 88.042969 239.035156 88.042969 239.023438 C 88.058594 238.8125 88.058594 238.597656 88.046875 238.386719 C 88.046875 238.34375 88.039062 238.300781 88.039062 238.257812 C 88.027344 238.09375 88.011719 237.925781 87.984375 237.761719 C 87.976562 237.699219 87.964844 237.644531 87.953125 237.582031 C 87.925781 237.4375 87.898438 237.292969 87.859375 237.144531 C 87.839844 237.078125 87.820312 237.007812 87.800781 236.941406 C 87.761719 236.808594 87.71875 236.679688 87.671875 236.554688 C 87.640625 236.472656 87.609375 236.398438 87.578125 236.320312 C 87.527344 236.207031 87.480469 236.09375 87.425781 235.984375 C 87.382812 235.898438 87.335938 235.816406 87.292969 235.730469 C 87.261719 235.679688 87.242188 235.628906 87.210938 235.578125 L 71.832031 209.632812 C 71.878906 209.632812 71.925781 209.636719 71.972656 209.636719 C 77.476562 209.636719 81.09375 208.265625 84.4375 207 C 88.351562 205.515625 91.820312 204.214844 99.582031 205.292969 C 101.015625 209.902344 104.472656 213.625 108.90625 215.429688 L 108.917969 261.894531 C 94.867188 263.914062 82.378906 272.859375 76.089844 285.828125 C 75.183594 287.699219 75.300781 289.910156 76.410156 291.675781 C 77.515625 293.441406 79.449219 294.511719 81.535156 294.511719 L 148.40625 294.511719 C 150.488281 294.511719 152.425781 293.441406 153.53125 291.675781 C 154.636719 289.910156 154.757812 287.699219 153.847656 285.828125 C 147.5625 272.859375 135.070312 263.914062 121.015625 261.894531 L 121.003906 215.425781 C 125.4375 213.621094 128.890625 209.902344 130.324219 205.292969 C 138.085938 204.210938 141.554688 205.515625 145.46875 207 C 148.8125 208.265625 152.429688 209.636719 157.933594 209.636719 C 157.976562 209.636719 158.027344 209.632812 158.074219 209.632812 L 142.695312 235.578125 C 142.664062 235.628906 142.640625 235.679688 142.613281 235.730469 C 142.566406 235.816406 142.523438 235.898438 142.480469 235.984375 C 142.425781 236.09375 142.375 236.207031 142.328125 236.320312 C 142.296875 236.398438 142.261719 236.472656 142.234375 236.554688 C 142.183594 236.683594 142.144531 236.8125 142.105469 236.945312 C 142.085938 237.011719 142.0625 237.078125 142.046875 237.144531 C 142.007812 237.292969 141.976562 237.441406 141.949219 237.59375 C 141.941406 237.648438 141.925781 237.703125 141.917969 237.757812 C 141.894531 237.933594 141.875 238.105469 141.867188 238.28125 C 141.863281 238.316406 141.859375 238.347656 141.855469 238.382812 C 141.835938 238.808594 141.863281 239.230469 141.933594 239.648438 C 141.933594 239.660156 141.933594 239.675781 141.9375 239.6875 C 144.277344 253.285156 156 263.15625 169.816406 263.15625 C 183.628906 263.15625 195.351562 253.285156 197.691406 239.6875 C 197.695312 239.675781 197.695312 239.660156 197.695312 239.648438 C 197.765625 239.230469 197.792969 238.804688 197.773438 238.382812 Z M 60.089844 213.546875 L 71.390625 232.609375 L 48.789062 232.609375 Z M 60.089844 251.054688 C 54.878906 251.054688 50.1875 248.605469 47.214844 244.707031 L 72.96875 244.707031 C 69.992188 248.605469 65.304688 251.054688 60.089844 251.054688 Z M 114.953125 196.527344 C 117.15625 196.527344 118.949219 198.320312 118.949219 200.523438 C 118.949219 202.726562 117.15625 204.519531 114.953125 204.519531 C 112.75 204.519531 110.957031 202.726562 110.957031 200.523438 C 110.957031 198.320312 112.75 196.527344 114.953125 196.527344 Z M 93.191406 282.414062 C 98.890625 276.800781 106.617188 273.554688 114.972656 273.554688 C 123.324219 273.554688 131.050781 276.800781 136.75 282.414062 Z M 181.117188 232.609375 L 158.515625 232.609375 L 169.816406 213.546875 Z M 169.816406 251.054688 C 164.605469 251.054688 159.914062 248.605469 156.9375 244.707031 L 182.691406 244.707031 C 179.71875 248.605469 175.027344 251.054688 169.816406 251.054688 Z M 163.507812 39.195312 C 165.753906 41.667969 165.570312 45.496094 163.09375 47.738281 L 127.574219 79.976562 C 126.417969 81.023438 124.964844 81.542969 123.511719 81.542969 C 121.960938 81.542969 120.410156 80.949219 119.234375 79.773438 L 104.609375 65.148438 C 102.246094 62.785156 102.246094 58.957031 104.609375 56.59375 C 106.972656 54.234375 110.800781 54.234375 113.164062 56.59375 L 123.710938 67.144531 L 154.964844 38.78125 C 157.4375 36.539062 161.261719 36.722656 163.507812 39.195312 Z M 209.382812 298.023438 C 209.382812 284.59375 220.308594 273.671875 233.738281 273.671875 C 247.164062 273.671875 258.089844 284.59375 258.089844 298.023438 C 258.089844 307.542969 252.488281 316.246094 243.824219 320.191406 C 242.394531 320.84375 241.609375 322.066406 241.609375 323.632812 L 241.609375 328.058594 C 241.609375 331.398438 238.902344 334.109375 235.5625 334.109375 C 232.222656 334.109375 229.511719 331.398438 229.511719 328.058594 L 229.511719 323.632812 C 229.511719 317.332031 233.074219 311.796875 238.808594 309.183594 C 243.171875 307.195312 245.992188 302.816406 245.992188 298.023438 C 245.992188 291.265625 240.496094 285.769531 233.738281 285.769531 C 226.980469 285.769531 221.480469 291.265625 221.480469 298.023438 C 221.480469 301.363281 218.773438 304.070312 215.433594 304.070312 C 212.09375 304.070312 209.382812 301.363281 209.382812 298.023438 Z M 243.132812 346.855469 C 243.132812 351.035156 239.746094 354.429688 235.5625 354.429688 C 231.378906 354.429688 227.988281 351.035156 227.988281 346.855469 C 227.988281 342.671875 231.378906 339.28125 235.5625 339.28125 C 239.746094 339.28125 243.132812 342.671875 243.132812 346.855469 Z M 243.132812 346.855469 "/></g></svg>