<svg xmlns="http://www.w3.org/2000/svg" xmlns:xlink="http://www.w3.org/1999/xlink" width="500" zoomAndPan="magnify" viewBox="0 0 375 374.999991" height="500" preserveAspectRatio="xMidYMid meet" version="1.0"><defs><clipPath id="c16630971d"><path d="M 96 191 L 245 191 L 245 301.121094 L 96 301.121094 Z M 96 191 " clip-rule="nonzero"/></clipPath><clipPath id="d66b598839"><path d="M 128 73.871094 L 277 73.871094 L 277 184 L 128 184 Z M 128 73.871094 " clip-rule="nonzero"/></clipPath><clipPath id="1a3edd8d5c"><path d="M 72.5625 96 L 183 96 L 183 246 L 72.5625 246 Z M 72.5625 96 " clip-rule="nonzero"/></clipPath><clipPath id="2f5b0f9e53"><path d="M 72.5625 73.871094 L 301.3125 73.871094 L 301.3125 301.121094 L 72.5625 301.121094 Z M 72.5625 73.871094 " clip-rule="nonzero"/></clipPath></defs><g clip-path="url(#c16630971d)"><path fill="#6d1d2a" d="M 223.011719 266.253906 C 224.453125 265.574219 226.027344 265.105469 227.621094 264.886719 C 227.742188 264.773438 227.859375 264.65625 227.984375 264.535156 L 228 264.519531 C 228.160156 264.359375 228.320312 264.203125 228.480469 264.042969 C 228.492188 264.027344 228.503906 264.015625 228.515625 264 L 228.582031 263.933594 C 228.71875 263.792969 228.859375 263.652344 228.996094 263.507812 L 229.117188 263.375 C 229.242188 263.246094 229.367188 263.113281 229.492188 262.984375 L 229.628906 262.832031 C 229.742188 262.703125 229.859375 262.574219 229.972656 262.449219 L 230.109375 262.292969 C 230.234375 262.160156 230.34375 262.035156 230.453125 261.90625 L 230.480469 261.875 C 230.5 261.859375 230.515625 261.835938 230.535156 261.816406 L 230.601562 261.738281 C 230.710938 261.609375 230.820312 261.480469 230.929688 261.351562 L 231.074219 261.183594 C 231.183594 261.054688 231.285156 260.929688 231.386719 260.804688 L 232.019531 260.015625 C 232.117188 259.898438 232.210938 259.777344 232.304688 259.65625 L 232.324219 259.632812 C 232.347656 259.597656 232.375 259.566406 232.398438 259.53125 L 232.558594 259.328125 C 232.621094 259.246094 232.683594 259.164062 232.742188 259.082031 L 232.902344 258.871094 C 232.992188 258.75 233.082031 258.628906 233.171875 258.503906 L 233.765625 257.675781 C 233.851562 257.550781 233.9375 257.425781 234.027344 257.300781 L 234.1875 257.0625 C 234.269531 256.941406 234.355469 256.816406 234.441406 256.691406 L 234.59375 256.457031 C 234.675781 256.328125 234.761719 256.199219 234.84375 256.074219 C 234.886719 256.007812 234.921875 255.945312 234.960938 255.886719 L 235 255.828125 C 235.082031 255.703125 235.160156 255.578125 235.238281 255.453125 L 235.378906 255.226562 C 235.464844 255.085938 235.542969 254.960938 235.625 254.832031 C 235.648438 254.789062 235.675781 254.742188 235.703125 254.699219 L 236.148438 253.953125 L 236.527344 253.292969 C 236.597656 253.164062 236.671875 253.03125 236.742188 252.898438 L 236.894531 252.628906 C 236.960938 252.507812 237.03125 252.382812 237.09375 252.257812 L 237.121094 252.214844 C 237.144531 252.167969 237.167969 252.125 237.191406 252.078125 L 237.285156 251.902344 C 237.339844 251.796875 237.398438 251.691406 237.449219 251.585938 L 237.648438 251.199219 C 237.695312 251.109375 237.738281 251.023438 237.78125 250.933594 L 237.929688 250.648438 C 237.996094 250.511719 238.054688 250.382812 238.121094 250.25 L 238.15625 250.175781 C 238.183594 250.117188 238.214844 250.058594 238.246094 249.996094 L 238.296875 249.882812 C 238.347656 249.78125 238.394531 249.679688 238.441406 249.578125 C 238.46875 249.519531 238.496094 249.460938 238.523438 249.402344 L 238.578125 249.285156 C 238.640625 249.148438 238.703125 249.011719 238.765625 248.878906 C 238.808594 248.785156 238.847656 248.695312 238.886719 248.609375 L 238.945312 248.476562 C 238.984375 248.386719 239.027344 248.292969 239.066406 248.203125 C 239.085938 248.152344 239.113281 248.097656 239.136719 248.039062 L 239.488281 247.214844 C 239.542969 247.078125 239.59375 246.953125 239.648438 246.824219 L 239.785156 246.492188 C 239.835938 246.363281 239.886719 246.230469 239.941406 246.089844 L 239.949219 246.0625 C 239.972656 246.015625 239.992188 245.960938 240.011719 245.910156 L 240.054688 245.792969 C 240.109375 245.65625 240.160156 245.519531 240.214844 245.382812 C 240.253906 245.277344 240.292969 245.171875 240.328125 245.066406 C 240.363281 244.980469 240.394531 244.894531 240.425781 244.808594 L 240.839844 243.632812 C 240.890625 243.484375 240.9375 243.34375 240.984375 243.203125 L 240.992188 243.1875 C 241.027344 243.09375 241.054688 242.996094 241.085938 242.894531 L 241.226562 242.46875 C 241.261719 242.359375 241.296875 242.25 241.332031 242.136719 C 241.355469 242.0625 241.378906 241.984375 241.40625 241.902344 L 241.492188 241.621094 C 241.511719 241.554688 241.527344 241.492188 241.550781 241.421875 L 241.554688 241.398438 C 241.582031 241.316406 241.605469 241.238281 241.628906 241.15625 L 241.722656 240.835938 C 241.742188 240.777344 241.757812 240.71875 241.773438 240.664062 L 241.929688 240.105469 C 241.949219 240.046875 241.960938 239.988281 241.976562 239.929688 L 241.984375 239.914062 C 242.007812 239.828125 242.027344 239.746094 242.050781 239.660156 L 242.210938 239.054688 C 242.238281 238.949219 242.261719 238.847656 242.289062 238.742188 C 242.320312 238.625 242.347656 238.515625 242.375 238.40625 L 242.417969 238.230469 C 242.4375 238.148438 242.457031 238.066406 242.476562 237.980469 L 242.480469 237.964844 C 242.503906 237.867188 242.527344 237.765625 242.550781 237.660156 L 242.558594 237.632812 C 242.59375 237.496094 242.621094 237.355469 242.652344 237.21875 L 242.65625 237.191406 C 242.683594 237.082031 242.707031 236.976562 242.730469 236.871094 C 242.761719 236.726562 242.792969 236.589844 242.820312 236.453125 L 242.847656 236.332031 C 242.863281 236.257812 242.878906 236.179688 242.894531 236.105469 L 242.894531 236.09375 C 242.917969 235.984375 242.945312 235.871094 242.964844 235.761719 L 242.984375 235.660156 C 243.007812 235.542969 243.03125 235.429688 243.050781 235.320312 L 243.054688 235.304688 C 243.085938 235.167969 243.105469 235.035156 243.132812 234.898438 L 243.136719 234.863281 C 243.160156 234.757812 243.179688 234.648438 243.199219 234.539062 L 243.296875 233.992188 C 243.308594 233.917969 243.324219 233.839844 243.335938 233.765625 L 243.339844 233.738281 C 243.363281 233.601562 243.386719 233.460938 243.40625 233.324219 L 243.535156 232.515625 C 243.550781 232.40625 243.566406 232.296875 243.582031 232.1875 L 243.585938 232.167969 C 243.605469 232.015625 243.628906 231.875 243.648438 231.726562 C 243.664062 231.617188 243.675781 231.5 243.691406 231.378906 C 243.714844 231.230469 243.730469 231.089844 243.75 230.949219 L 243.796875 230.570312 C 243.8125 230.425781 243.828125 230.285156 243.84375 230.136719 L 243.886719 229.765625 C 243.902344 229.621094 243.917969 229.476562 243.929688 229.335938 L 244.019531 228.378906 C 244.027344 228.308594 244.03125 228.238281 244.039062 228.160156 L 244.042969 228.148438 C 244.054688 228.003906 244.066406 227.859375 244.074219 227.714844 C 244.085938 227.59375 244.09375 227.472656 244.105469 227.351562 L 244.105469 227.324219 C 244.117188 227.1875 244.125 227.050781 244.132812 226.914062 L 244.132812 226.878906 C 244.144531 226.761719 244.152344 226.644531 244.160156 226.527344 C 244.167969 226.375 244.171875 226.222656 244.183594 226.066406 C 244.183594 226.003906 244.1875 225.941406 244.195312 225.875 C 244.195312 225.820312 244.199219 225.761719 244.203125 225.703125 C 244.207031 225.558594 244.214844 225.40625 244.21875 225.25 L 244.234375 224.867188 C 244.242188 224.722656 244.246094 224.570312 244.25 224.417969 C 244.25 224.347656 244.253906 224.273438 244.257812 224.203125 L 244.261719 224.050781 C 244.265625 223.894531 244.269531 223.730469 244.273438 223.570312 C 244.273438 223.507812 244.273438 223.449219 244.273438 223.386719 L 244.273438 223.214844 C 244.277344 223.085938 244.277344 222.960938 244.277344 222.832031 L 244.28125 222.691406 C 244.28125 222.644531 244.28125 222.585938 244.28125 222.527344 L 244.28125 222.394531 C 244.28125 222.125 244.28125 221.847656 244.277344 221.570312 C 244.273438 221.171875 244.261719 220.777344 244.253906 220.382812 C 244.25 220.328125 244.246094 220.269531 244.246094 220.214844 L 244.242188 220.066406 C 244.230469 219.699219 244.21875 219.332031 244.199219 218.964844 L 244.195312 218.863281 C 244.175781 218.46875 244.152344 218.070312 244.128906 217.675781 L 244.125 217.628906 C 244.117188 217.550781 244.113281 217.476562 244.105469 217.394531 L 244.105469 217.363281 C 244.082031 217 244.058594 216.664062 244.027344 216.328125 L 244.023438 216.285156 C 244.019531 216.238281 244.019531 216.195312 244.015625 216.148438 C 243.980469 215.757812 243.941406 215.363281 243.902344 214.964844 C 243.894531 214.871094 243.882812 214.777344 243.871094 214.683594 L 243.871094 214.667969 C 243.832031 214.308594 243.796875 213.980469 243.757812 213.664062 L 243.753906 213.632812 C 243.746094 213.5625 243.738281 213.503906 243.734375 213.449219 C 243.683594 213.050781 243.632812 212.652344 243.578125 212.257812 C 243.566406 212.167969 243.554688 212.082031 243.539062 211.992188 C 243.492188 211.648438 243.445312 211.3125 243.390625 210.980469 L 243.386719 210.941406 C 243.375 210.882812 243.367188 210.816406 243.359375 210.753906 L 243.351562 210.726562 C 243.285156 210.300781 243.222656 209.914062 243.160156 209.542969 L 243.15625 209.527344 C 243.144531 209.460938 243.132812 209.390625 243.117188 209.320312 L 243.113281 209.300781 C 243.054688 208.949219 242.992188 208.617188 242.929688 208.285156 L 242.90625 208.152344 C 242.894531 208.101562 242.882812 208.050781 242.875 208.003906 C 242.792969 207.582031 242.714844 207.195312 242.640625 206.832031 L 242.589844 206.601562 C 242.519531 206.269531 242.445312 205.929688 242.371094 205.597656 C 242.347656 205.5 242.328125 205.398438 242.300781 205.300781 C 242.210938 204.90625 242.117188 204.515625 242.023438 204.121094 L 241.976562 203.941406 C 241.890625 203.585938 241.800781 203.242188 241.710938 202.894531 L 241.628906 202.589844 C 241.527344 202.203125 241.421875 201.8125 241.3125 201.417969 L 241.304688 201.394531 C 241.292969 201.355469 241.28125 201.316406 241.269531 201.277344 C 241.167969 200.917969 241.0625 200.5625 240.960938 200.203125 C 240.929688 200.101562 240.902344 200.011719 240.871094 199.917969 L 240.867188 199.902344 C 240.761719 199.550781 240.640625 199.144531 240.511719 198.75 C 240.5 198.714844 240.492188 198.679688 240.484375 198.648438 C 240.359375 198.273438 240.238281 197.898438 240.113281 197.523438 C 240.078125 197.414062 240.039062 197.308594 240.007812 197.203125 C 239.878906 196.832031 239.753906 196.457031 239.621094 196.085938 L 239.601562 196.035156 L 239.597656 196.019531 C 239.460938 195.628906 239.316406 195.238281 239.171875 194.847656 C 239.132812 194.742188 239.09375 194.632812 239.050781 194.523438 C 238.921875 194.179688 238.789062 193.832031 238.65625 193.488281 C 238.640625 193.449219 238.628906 193.414062 238.613281 193.375 L 238.597656 193.335938 C 238.449219 192.953125 238.292969 192.5625 238.136719 192.179688 L 238.015625 191.878906 C 237.914062 191.636719 237.8125 191.390625 237.710938 191.148438 C 237.679688 191.546875 237.648438 191.945312 237.613281 192.347656 C 237.054688 198.183594 235.527344 203.832031 233.070312 209.136719 C 230.523438 214.625 227.046875 219.59375 222.738281 223.90625 C 220.355469 226.285156 217.742188 228.4375 214.964844 230.296875 C 214.871094 230.382812 214.769531 230.464844 214.671875 230.546875 L 214.546875 230.652344 C 214.445312 230.742188 214.339844 230.828125 214.234375 230.917969 C 214.128906 231.003906 214.027344 231.09375 213.917969 231.179688 L 213.625 231.421875 C 213.523438 231.507812 213.421875 231.589844 213.320312 231.675781 L 212.828125 232.078125 C 212.761719 232.128906 212.703125 232.183594 212.636719 232.230469 C 212.558594 232.292969 212.488281 232.355469 212.414062 232.414062 C 212.304688 232.5 212.191406 232.589844 212.082031 232.679688 L 211.5 233.140625 C 211.382812 233.234375 211.269531 233.324219 211.15625 233.414062 L 210.847656 233.652344 C 210.753906 233.726562 210.660156 233.796875 210.566406 233.871094 C 210.394531 234.003906 210.21875 234.140625 210.046875 234.269531 L 209.921875 234.367188 C 209.828125 234.4375 209.730469 234.511719 209.632812 234.582031 C 209.464844 234.714844 209.289062 234.84375 209.121094 234.972656 L 208.710938 235.273438 C 208.609375 235.351562 208.515625 235.421875 208.417969 235.492188 C 208.339844 235.550781 208.265625 235.605469 208.1875 235.664062 L 208.046875 235.765625 C 207.953125 235.832031 207.859375 235.90625 207.761719 235.972656 C 207.648438 236.054688 207.535156 236.136719 207.421875 236.21875 L 206.816406 236.652344 C 206.640625 236.777344 206.457031 236.90625 206.273438 237.03125 C 206.140625 237.132812 206.003906 237.226562 205.867188 237.320312 C 205.6875 237.449219 205.5 237.574219 205.320312 237.699219 L 204.914062 237.972656 C 204.738281 238.097656 204.546875 238.222656 204.355469 238.351562 L 203.949219 238.625 C 203.765625 238.75 203.582031 238.871094 203.394531 238.992188 L 202.992188 239.257812 C 202.808594 239.375 202.617188 239.496094 202.429688 239.617188 L 202.023438 239.878906 L 201.445312 240.238281 C 201.390625 240.277344 201.332031 240.3125 201.277344 240.347656 C 201.203125 240.394531 201.125 240.441406 201.050781 240.488281 C 200.871094 240.601562 200.683594 240.714844 200.496094 240.832031 L 200.429688 240.871094 C 200.316406 240.941406 200.199219 241.011719 200.085938 241.082031 C 199.953125 241.164062 199.8125 241.246094 199.679688 241.328125 L 199.484375 241.441406 C 199.433594 241.476562 199.378906 241.507812 199.324219 241.539062 C 199.25 241.582031 199.175781 241.628906 199.105469 241.671875 C 198.980469 241.746094 198.855469 241.816406 198.734375 241.886719 L 198.523438 242.011719 C 198.453125 242.050781 198.386719 242.09375 198.316406 242.132812 L 198.125 242.246094 C 197.933594 242.355469 197.753906 242.457031 197.570312 242.5625 L 197.378906 242.671875 C 197.300781 242.71875 197.21875 242.765625 197.136719 242.808594 C 196.945312 242.917969 196.753906 243.023438 196.566406 243.128906 C 196.425781 243.207031 196.285156 243.285156 196.140625 243.363281 C 195.953125 243.46875 195.769531 243.566406 195.578125 243.667969 L 195.402344 243.765625 C 195.316406 243.8125 195.234375 243.855469 195.152344 243.902344 C 195.039062 243.960938 194.933594 244.019531 194.828125 244.074219 L 194.566406 244.210938 C 194.460938 244.265625 194.355469 244.320312 194.25 244.378906 L 194.140625 244.4375 C 193.949219 244.535156 193.765625 244.628906 193.582031 244.726562 L 193.4375 244.800781 C 193.339844 244.851562 193.238281 244.902344 193.140625 244.953125 C 192.988281 245.027344 192.835938 245.105469 192.683594 245.183594 L 192.601562 245.222656 C 192.445312 245.300781 192.296875 245.378906 192.144531 245.453125 C 192.019531 245.511719 191.902344 245.574219 191.78125 245.628906 L 191.503906 245.765625 C 191.375 245.828125 191.246094 245.890625 191.121094 245.953125 C 190.945312 246.039062 190.769531 246.121094 190.589844 246.207031 L 190.585938 246.207031 C 190.425781 246.28125 190.269531 246.355469 190.113281 246.429688 C 189.96875 246.496094 189.832031 246.5625 189.6875 246.628906 L 189.460938 246.734375 C 189.332031 246.792969 189.207031 246.851562 189.082031 246.910156 C 188.914062 246.984375 188.738281 247.0625 188.566406 247.140625 L 188.515625 247.164062 C 188.363281 247.230469 188.210938 247.300781 188.054688 247.367188 C 187.890625 247.441406 187.722656 247.515625 187.550781 247.585938 L 187.296875 247.695312 C 187.210938 247.734375 187.128906 247.773438 187.042969 247.808594 C 186.925781 247.859375 186.804688 247.910156 186.683594 247.960938 L 186.5 248.039062 C 186.425781 248.070312 186.347656 248.101562 186.273438 248.136719 C 186.1875 248.171875 186.101562 248.207031 186.015625 248.242188 L 186 248.25 C 185.792969 248.332031 185.589844 248.417969 185.390625 248.496094 C 185.253906 248.550781 185.125 248.605469 184.996094 248.65625 L 184.976562 248.667969 C 184.632812 248.804688 184.289062 248.941406 183.945312 249.074219 C 173.480469 253.152344 162.808594 255.273438 152.21875 255.386719 C 141.921875 255.503906 132.164062 253.71875 123.214844 250.089844 C 122.957031 249.984375 122.699219 249.882812 122.445312 249.773438 L 122.3125 249.71875 C 122.269531 249.699219 122.226562 249.679688 122.183594 249.664062 C 122.015625 249.589844 121.84375 249.515625 121.671875 249.441406 C 121.597656 249.410156 121.519531 249.375 121.441406 249.34375 L 121.195312 249.234375 C 121.085938 249.183594 120.976562 249.136719 120.867188 249.085938 L 120.605469 248.96875 C 120.492188 248.917969 120.371094 248.859375 120.25 248.804688 L 120.054688 248.714844 C 119.988281 248.683594 119.925781 248.65625 119.859375 248.625 L 119.773438 248.582031 C 119.550781 248.476562 119.332031 248.375 119.113281 248.265625 C 119.089844 248.257812 119.070312 248.246094 119.050781 248.238281 L 119.0625 248.242188 L 118.988281 248.207031 C 118.777344 248.105469 118.570312 248 118.359375 247.894531 L 118.332031 247.882812 C 118.265625 247.847656 118.199219 247.8125 118.128906 247.78125 L 118.109375 247.773438 C 117.945312 247.6875 117.78125 247.605469 117.621094 247.519531 L 117.304688 247.355469 C 117.15625 247.277344 117.003906 247.199219 116.855469 247.117188 L 116.621094 246.992188 C 116.453125 246.902344 116.292969 246.8125 116.132812 246.726562 L 115.996094 246.648438 C 115.957031 246.632812 115.917969 246.609375 115.882812 246.589844 C 115.644531 246.457031 115.402344 246.320312 115.164062 246.179688 L 115.027344 246.105469 C 114.84375 246 114.648438 245.886719 114.457031 245.773438 L 113.425781 245.148438 C 113.292969 245.066406 113.160156 244.984375 113.027344 244.90625 L 112.800781 244.761719 C 112.617188 244.644531 112.433594 244.523438 112.25 244.40625 C 112.199219 244.375 112.152344 244.34375 112.101562 244.308594 C 111.878906 244.164062 111.660156 244.019531 111.4375 243.871094 L 111.289062 243.769531 C 111.113281 243.652344 110.933594 243.527344 110.757812 243.40625 L 110.742188 243.398438 C 110.6875 243.359375 110.632812 243.324219 110.578125 243.285156 L 110.539062 243.257812 C 110.382812 243.148438 110.226562 243.039062 110.074219 242.929688 L 109.859375 242.777344 C 109.703125 242.664062 109.546875 242.550781 109.390625 242.4375 L 109.203125 242.300781 C 108.996094 242.148438 108.789062 241.992188 108.582031 241.835938 L 108.417969 241.710938 C 108.242188 241.582031 108.070312 241.445312 107.898438 241.3125 L 107.863281 241.28125 C 107.835938 241.261719 107.8125 241.242188 107.785156 241.222656 L 107.726562 241.175781 C 107.570312 241.054688 107.414062 240.929688 107.257812 240.804688 C 107.226562 240.78125 107.1875 240.75 107.148438 240.71875 L 107.085938 240.664062 C 106.917969 240.53125 106.761719 240.40625 106.609375 240.277344 L 106.484375 240.175781 L 97.53125 254.578125 C 96.144531 256.808594 96.472656 259.667969 98.332031 261.523438 L 112.179688 275.375 C 114.039062 277.230469 116.894531 277.5625 119.128906 276.171875 L 133.738281 267.089844 C 138.253906 264.285156 143.828125 263.96875 148.644531 266.253906 C 151.246094 267.488281 153.953125 268.609375 156.683594 269.582031 C 161.710938 271.371094 165.4375 275.535156 166.648438 280.722656 L 170.558594 297.476562 C 171.15625 300.035156 173.40625 301.824219 176.035156 301.820312 L 195.621094 301.820312 C 198.25 301.820312 200.503906 300.035156 201.101562 297.476562 L 205.007812 280.722656 C 206.21875 275.535156 209.945312 271.371094 214.976562 269.578125 C 217.691406 268.617188 220.394531 267.496094 223.011719 266.253906 " fill-opacity="1" fill-rule="nonzero"/></g><path fill="#6d1d2a" d="M 273.910156 260.941406 C 275.542969 259.308594 276.585938 257.140625 276.855469 254.847656 C 277.117188 252.546875 276.589844 250.199219 275.371094 248.242188 L 266.679688 234.253906 C 264.875 231.355469 264.675781 227.773438 266.144531 224.679688 C 267.40625 222.027344 268.539062 219.285156 269.515625 216.535156 C 270.667969 213.296875 273.34375 210.902344 276.667969 210.125 L 292.707031 206.382812 C 294.957031 205.859375 296.992188 204.574219 298.429688 202.761719 C 299.863281 200.949219 300.65625 198.679688 300.65625 196.367188 L 300.65625 177.625 C 300.65625 175.3125 299.863281 173.042969 298.425781 171.230469 C 296.988281 169.417969 294.957031 168.132812 292.707031 167.605469 L 276.671875 163.867188 C 273.34375 163.085938 270.671875 160.695312 269.515625 157.460938 C 268.535156 154.699219 267.398438 151.957031 266.144531 149.3125 C 265.988281 148.976562 265.847656 148.636719 265.726562 148.289062 L 264.933594 147.382812 L 264.257812 146.648438 C 264.199219 146.578125 264.128906 146.507812 264.0625 146.4375 L 264.015625 146.386719 C 263.953125 146.320312 263.890625 146.253906 263.824219 146.1875 L 263.800781 146.160156 C 263.730469 146.085938 263.652344 146.007812 263.578125 145.933594 L 263.496094 145.847656 C 263.453125 145.804688 263.40625 145.753906 263.363281 145.710938 L 263.335938 145.6875 C 263.257812 145.605469 263.179688 145.527344 263.097656 145.445312 C 263.03125 145.375 262.957031 145.308594 262.890625 145.234375 L 262.640625 144.996094 C 262.5625 144.917969 262.488281 144.84375 262.414062 144.777344 L 262.386719 144.75 C 262.316406 144.683594 262.25 144.617188 262.179688 144.550781 L 262.132812 144.507812 C 262.0625 144.441406 261.996094 144.378906 261.929688 144.3125 L 261.4375 143.859375 C 261.355469 143.789062 261.277344 143.71875 261.199219 143.648438 L 261.175781 143.628906 C 261.097656 143.554688 261.019531 143.488281 260.9375 143.417969 C 260.859375 143.34375 260.78125 143.273438 260.699219 143.207031 L 260.671875 143.183594 C 260.597656 143.113281 260.519531 143.046875 260.441406 142.976562 C 260.351562 142.902344 260.273438 142.835938 260.1875 142.765625 L 259.417969 142.117188 C 259.332031 142.050781 259.257812 141.988281 259.179688 141.929688 L 259.140625 141.894531 C 259.066406 141.835938 258.992188 141.773438 258.917969 141.71875 L 258.890625 141.695312 C 258.8125 141.632812 258.738281 141.574219 258.664062 141.515625 L 257.84375 140.886719 L 257.304688 140.484375 C 257.21875 140.421875 257.136719 140.359375 257.050781 140.300781 L 256.488281 139.898438 C 256.402344 139.839844 256.316406 139.777344 256.234375 139.71875 L 256.214844 139.707031 C 256.121094 139.644531 256.03125 139.582031 255.945312 139.523438 L 255.378906 139.140625 C 255.296875 139.085938 255.210938 139.027344 255.125 138.96875 L 255.09375 138.953125 C 255 138.890625 254.90625 138.828125 254.816406 138.769531 L 253.96875 138.234375 L 253.644531 138.035156 C 253.566406 137.984375 253.488281 137.9375 253.410156 137.894531 L 253.078125 137.695312 C 253 137.644531 252.914062 137.59375 252.824219 137.546875 L 252.378906 137.285156 C 252.320312 137.253906 252.265625 137.222656 252.207031 137.1875 C 252.113281 137.136719 252.019531 137.078125 251.921875 137.023438 L 251.632812 136.867188 C 251.578125 136.835938 251.523438 136.808594 251.46875 136.773438 L 250.714844 136.367188 C 250.628906 136.324219 250.539062 136.277344 250.445312 136.230469 L 250.410156 136.210938 C 250.308594 136.15625 250.207031 136.105469 250.105469 136.050781 L 248.25 135.148438 C 248.199219 135.121094 248.144531 135.097656 248.089844 135.074219 L 247.625 134.859375 C 247.527344 134.816406 247.429688 134.773438 247.332031 134.730469 L 246.679688 134.445312 C 246.574219 134.394531 246.460938 134.351562 246.351562 134.304688 C 246.273438 134.269531 246.207031 134.242188 246.132812 134.214844 L 245.71875 134.039062 C 245.609375 134 245.503906 133.957031 245.394531 133.914062 L 245.289062 133.867188 C 245.222656 133.839844 245.15625 133.816406 245.089844 133.789062 L 245.046875 133.773438 C 244.980469 133.746094 244.90625 133.71875 244.835938 133.6875 L 244.617188 133.605469 C 244.550781 133.582031 244.484375 133.554688 244.421875 133.53125 L 244.113281 133.414062 C 244.046875 133.390625 243.984375 133.367188 243.917969 133.34375 L 243.757812 133.285156 C 243.65625 133.246094 243.550781 133.207031 243.449219 133.171875 C 243.386719 133.148438 243.324219 133.125 243.257812 133.101562 L 242.628906 132.882812 C 242.5625 132.859375 242.496094 132.835938 242.429688 132.816406 L 242.285156 132.765625 C 242.21875 132.742188 242.15625 132.722656 242.09375 132.703125 C 241.984375 132.664062 241.875 132.628906 241.761719 132.589844 L 240.964844 132.335938 C 240.894531 132.316406 240.820312 132.292969 240.75 132.273438 L 240.617188 132.234375 C 240.554688 132.210938 240.484375 132.191406 240.417969 132.171875 L 240.394531 132.160156 C 240.285156 132.132812 240.179688 132.097656 240.074219 132.070312 L 239.226562 131.824219 C 239.160156 131.804688 239.097656 131.789062 239.03125 131.769531 C 238.964844 131.753906 238.898438 131.734375 238.835938 131.71875 L 238.664062 131.671875 C 238.5625 131.640625 238.453125 131.617188 238.347656 131.585938 L 238.316406 131.578125 C 238.246094 131.558594 238.175781 131.539062 238.105469 131.523438 L 237.648438 131.40625 C 237.523438 131.375 237.398438 131.347656 237.273438 131.3125 C 237.171875 131.289062 237.058594 131.261719 236.945312 131.234375 L 236.925781 131.230469 C 236.851562 131.210938 236.773438 131.195312 236.695312 131.175781 L 234.410156 130.683594 C 234.300781 130.664062 234.191406 130.640625 234.085938 130.621094 C 233.988281 130.601562 233.898438 130.585938 233.8125 130.566406 L 233.363281 130.488281 C 233.230469 130.464844 233.101562 130.4375 232.96875 130.417969 L 232.90625 130.40625 C 232.820312 130.390625 232.734375 130.378906 232.648438 130.363281 L 231.910156 130.242188 C 231.773438 130.222656 231.621094 130.199219 231.464844 130.175781 L 231.425781 130.171875 C 231.34375 130.15625 231.261719 130.144531 231.175781 130.132812 L 230.679688 130.0625 C 230.621094 130.054688 230.5625 130.050781 230.507812 130.039062 L 230.433594 130.027344 C 230.347656 130.019531 230.25 130.003906 230.152344 129.992188 C 230.050781 129.980469 229.953125 129.96875 229.855469 129.953125 L 229.710938 129.9375 C 229.492188 129.910156 229.273438 129.882812 229.054688 129.859375 C 229.019531 129.855469 228.984375 129.851562 228.949219 129.847656 C 228.507812 129.796875 228.039062 129.75 227.515625 129.707031 L 227.429688 129.695312 C 227.015625 129.660156 226.570312 129.625 226.070312 129.589844 L 225.941406 129.582031 C 225.875 129.578125 225.808594 129.570312 225.742188 129.570312 C 225.328125 129.542969 224.855469 129.511719 224.375 129.492188 L 224.210938 129.484375 C 223.777344 129.46875 223.367188 129.453125 222.96875 129.441406 L 222.941406 129.441406 C 222.839844 129.4375 222.742188 129.4375 222.640625 129.433594 L 222.605469 129.429688 C 222.230469 129.425781 221.796875 129.417969 221.265625 129.417969 L 221.035156 129.417969 C 220.640625 129.417969 220.242188 129.417969 219.84375 129.425781 C 219.78125 129.429688 219.71875 129.429688 219.660156 129.429688 C 219.613281 129.429688 219.570312 129.429688 219.523438 129.429688 L 219.507812 129.429688 C 219.058594 129.441406 218.601562 129.457031 218.148438 129.472656 L 217.867188 129.484375 C 217.480469 129.503906 217.085938 129.523438 216.695312 129.542969 C 216.640625 129.546875 216.585938 129.554688 216.53125 129.558594 L 216.402344 129.5625 C 215.9375 129.59375 215.480469 129.625 215.03125 129.664062 L 214.71875 129.691406 C 214.347656 129.71875 213.960938 129.757812 213.535156 129.800781 L 213.5 129.804688 C 213.433594 129.808594 213.367188 129.816406 213.296875 129.824219 L 213.269531 129.828125 C 212.835938 129.871094 212.378906 129.925781 211.90625 129.984375 L 211.578125 130.023438 C 211.171875 130.078125 210.761719 130.132812 210.347656 130.191406 L 210.324219 130.199219 C 210.273438 130.203125 210.222656 130.210938 210.171875 130.21875 L 210.15625 130.21875 C 209.65625 130.292969 209.160156 130.375 208.78125 130.433594 L 208.628906 130.460938 C 208.566406 130.472656 208.503906 130.480469 208.441406 130.492188 C 207.925781 130.582031 207.515625 130.65625 207.140625 130.722656 L 207.023438 130.742188 C 206.585938 130.828125 206.128906 130.917969 205.664062 131.015625 L 205.5625 131.035156 C 205.484375 131.054688 205.40625 131.070312 205.324219 131.085938 C 204.808594 131.199219 204.355469 131.296875 203.933594 131.390625 L 203.863281 131.410156 C 203.4375 131.507812 203.007812 131.613281 202.542969 131.726562 L 202.398438 131.765625 C 202.339844 131.78125 202.277344 131.796875 202.214844 131.808594 C 201.652344 131.953125 201.226562 132.0625 200.835938 132.171875 L 200.671875 132.21875 C 200.289062 132.324219 199.882812 132.4375 199.421875 132.570312 L 199.390625 132.578125 C 199.320312 132.601562 199.246094 132.621094 199.175781 132.640625 L 199.09375 132.664062 C 198.550781 132.828125 198.136719 132.953125 197.742188 133.078125 L 197.5 133.15625 C 197.152344 133.265625 196.785156 133.382812 196.304688 133.542969 L 196.289062 133.550781 C 196.195312 133.582031 196.101562 133.613281 196.011719 133.640625 C 195.554688 133.796875 195.097656 133.953125 194.648438 134.113281 L 194.53125 134.15625 C 194.476562 134.175781 194.421875 134.195312 194.367188 134.214844 C 193.945312 134.371094 193.558594 134.507812 193.199219 134.648438 L 192.921875 134.75 C 192.488281 134.914062 192.03125 135.089844 191.585938 135.269531 L 191.289062 135.394531 C 190.878906 135.558594 190.480469 135.722656 190.082031 135.886719 L 189.871094 135.972656 C 189.863281 135.980469 189.855469 135.984375 189.847656 135.984375 C 190.292969 136.015625 190.734375 136.050781 191.179688 136.09375 C 197.023438 136.652344 202.667969 138.179688 207.96875 140.636719 C 213.460938 143.179688 218.425781 146.65625 222.738281 150.96875 C 225.050781 153.28125 227.144531 155.8125 228.972656 158.5 C 229.074219 158.636719 229.238281 158.855469 229.34375 158.992188 C 229.476562 159.144531 229.613281 159.308594 229.742188 159.460938 L 230.269531 160.09375 C 230.351562 160.195312 230.429688 160.289062 230.511719 160.386719 C 230.636719 160.539062 230.765625 160.699219 230.898438 160.863281 L 231.015625 161.007812 C 231.09375 161.101562 231.171875 161.195312 231.246094 161.292969 C 231.378906 161.457031 231.511719 161.621094 231.640625 161.785156 L 231.726562 161.898438 C 231.816406 162.003906 231.902344 162.109375 231.984375 162.214844 C 232.109375 162.378906 232.238281 162.542969 232.363281 162.707031 L 233.097656 163.652344 C 233.199219 163.785156 233.300781 163.917969 233.402344 164.046875 L 233.414062 164.066406 C 233.480469 164.152344 233.546875 164.242188 233.613281 164.332031 C 233.671875 164.410156 233.730469 164.488281 233.789062 164.566406 L 233.8125 164.59375 C 233.855469 164.65625 233.902344 164.71875 233.949219 164.777344 C 234.007812 164.855469 234.0625 164.933594 234.117188 165.007812 C 234.246094 165.179688 234.371094 165.351562 234.5 165.523438 L 234.792969 165.925781 C 234.882812 166.050781 234.96875 166.167969 235.050781 166.285156 L 235.480469 166.882812 C 235.609375 167.0625 235.734375 167.242188 235.859375 167.421875 L 235.941406 167.535156 C 236.007812 167.632812 236.078125 167.734375 236.148438 167.828125 C 236.265625 168 236.382812 168.167969 236.5 168.34375 L 236.800781 168.78125 C 236.890625 168.910156 236.980469 169.042969 237.074219 169.179688 L 237.449219 169.742188 C 237.53125 169.867188 237.617188 169.996094 237.703125 170.125 L 237.894531 170.414062 C 237.953125 170.511719 238.019531 170.609375 238.082031 170.707031 C 238.171875 170.839844 238.253906 170.96875 238.339844 171.105469 L 238.699219 171.664062 C 238.789062 171.804688 238.878906 171.949219 238.964844 172.089844 L 239.082031 172.273438 C 239.117188 172.328125 239.152344 172.382812 239.1875 172.4375 C 239.226562 172.507812 239.273438 172.578125 239.316406 172.648438 C 239.433594 172.839844 239.5625 173.042969 239.683594 173.242188 L 239.773438 173.394531 C 239.820312 173.46875 239.863281 173.539062 239.910156 173.613281 C 240.007812 173.777344 240.105469 173.941406 240.207031 174.101562 L 240.367188 174.375 C 240.410156 174.449219 240.457031 174.523438 240.5 174.597656 C 240.617188 174.796875 240.734375 175 240.855469 175.203125 L 240.921875 175.316406 C 240.972656 175.40625 241.027344 175.492188 241.078125 175.582031 C 241.152344 175.707031 241.226562 175.839844 241.304688 175.972656 L 241.46875 176.265625 C 241.527344 176.367188 241.582031 176.464844 241.636719 176.566406 C 241.757812 176.777344 241.875 176.988281 241.996094 177.199219 L 242.1875 177.550781 C 242.285156 177.726562 242.378906 177.902344 242.476562 178.074219 L 242.621094 178.347656 C 242.65625 178.410156 242.695312 178.480469 242.730469 178.546875 C 242.796875 178.671875 242.855469 178.789062 242.917969 178.90625 L 243.164062 179.359375 C 243.195312 179.421875 243.226562 179.488281 243.261719 179.546875 C 243.328125 179.679688 243.398438 179.8125 243.460938 179.941406 L 243.769531 180.539062 C 243.890625 180.773438 244 180.992188 244.109375 181.214844 L 244.132812 181.257812 C 244.183594 181.359375 244.234375 181.460938 244.285156 181.5625 C 244.363281 181.722656 244.441406 181.886719 244.523438 182.046875 L 245.171875 183.402344 C 245.203125 183.464844 245.230469 183.527344 245.257812 183.585938 C 245.332031 183.734375 245.398438 183.882812 245.46875 184.035156 L 245.570312 184.253906 C 245.625 184.371094 245.675781 184.488281 245.730469 184.605469 C 245.796875 184.746094 245.863281 184.898438 245.929688 185.046875 L 246.089844 185.410156 C 246.125 185.480469 246.152344 185.550781 246.1875 185.621094 C 246.289062 185.847656 246.386719 186.082031 246.488281 186.3125 C 246.535156 186.421875 246.582031 186.527344 246.628906 186.632812 C 246.695312 186.800781 246.761719 186.953125 246.824219 187.101562 L 246.972656 187.445312 C 247.003906 187.527344 247.039062 187.609375 247.074219 187.691406 C 247.179688 187.949219 247.289062 188.207031 247.394531 188.46875 C 247.414062 188.519531 247.433594 188.566406 247.453125 188.617188 L 247.496094 188.714844 C 247.628906 189.054688 247.765625 189.398438 247.898438 189.742188 C 251.585938 199.207031 253.683594 208.871094 254.136719 218.46875 C 254.179688 219.46875 254.210938 220.472656 254.222656 221.457031 C 254.339844 231.742188 252.5625 241.5 248.941406 250.449219 C 248.832031 250.707031 248.726562 250.96875 248.617188 251.222656 C 248.582031 251.320312 248.542969 251.402344 248.507812 251.484375 C 248.429688 251.671875 248.355469 251.84375 248.28125 252.019531 L 248.164062 252.292969 C 248.085938 252.460938 248.011719 252.628906 247.9375 252.796875 L 247.808594 253.074219 C 247.734375 253.242188 247.65625 253.410156 247.582031 253.578125 C 247.539062 253.667969 247.496094 253.761719 247.453125 253.847656 C 247.363281 254.042969 247.265625 254.242188 247.167969 254.445312 C 247.144531 254.5 247.117188 254.554688 247.089844 254.609375 C 246.972656 254.851562 246.855469 255.09375 246.734375 255.332031 L 246.636719 255.523438 C 246.542969 255.714844 246.449219 255.898438 246.355469 256.082031 C 246.308594 256.171875 246.261719 256.257812 246.21875 256.34375 C 246.132812 256.503906 246.050781 256.664062 245.960938 256.820312 C 245.914062 256.914062 245.867188 257.007812 245.816406 257.097656 C 245.730469 257.257812 245.648438 257.414062 245.558594 257.570312 C 245.511719 257.65625 245.464844 257.742188 245.417969 257.832031 C 245.316406 258.007812 245.21875 258.1875 245.113281 258.367188 C 245.042969 258.492188 244.972656 258.617188 244.898438 258.738281 C 244.808594 258.875 244.730469 259.015625 244.652344 259.15625 C 244.613281 259.230469 244.574219 259.304688 244.527344 259.375 C 244.410156 259.574219 244.292969 259.769531 244.171875 259.964844 C 244.144531 260.011719 244.117188 260.054688 244.09375 260.097656 L 243.929688 260.363281 C 243.863281 260.46875 243.796875 260.574219 243.730469 260.683594 L 243.578125 260.921875 C 243.488281 261.0625 243.398438 261.210938 243.300781 261.355469 L 243.238281 261.457031 C 243.199219 261.515625 243.164062 261.570312 243.125 261.625 C 243.03125 261.769531 242.9375 261.910156 242.84375 262.050781 L 242.6875 262.292969 C 242.375 262.753906 242.0625 263.207031 241.746094 263.652344 L 241.71875 263.6875 C 241.695312 263.730469 241.667969 263.765625 241.640625 263.804688 L 241.105469 264.535156 C 240.996094 264.6875 240.882812 264.835938 240.773438 264.980469 L 240.605469 265.207031 C 240.492188 265.355469 240.378906 265.503906 240.261719 265.652344 L 240.082031 265.886719 C 239.941406 266.0625 239.800781 266.242188 239.660156 266.421875 L 239.648438 266.433594 C 239.628906 266.453125 239.609375 266.476562 239.59375 266.496094 C 239.425781 266.707031 239.257812 266.921875 239.078125 267.128906 L 238.839844 267.417969 C 238.792969 267.472656 238.75 267.527344 238.703125 267.582031 L 252.527344 276.171875 C 254.757812 277.5625 257.617188 277.230469 259.472656 275.375 L 262.882812 271.964844 L 267.246094 267.59375 C 267.257812 267.589844 267.269531 267.578125 267.28125 267.566406 L 273.910156 260.941406 " fill-opacity="1" fill-rule="nonzero"/><g clip-path="url(#d66b598839)"><path fill="#6d1d2a" d="M 216.246094 104.1875 C 213.011719 103.035156 210.617188 100.359375 209.839844 97.035156 L 206.097656 81 C 205.574219 78.746094 204.285156 76.714844 202.472656 75.277344 C 200.660156 73.84375 198.394531 73.046875 196.085938 73.050781 L 177.335938 73.050781 C 175.023438 73.050781 172.753906 73.84375 170.941406 75.28125 C 169.132812 76.714844 167.847656 78.746094 167.320312 81 L 163.578125 97.035156 C 162.800781 100.363281 160.40625 103.035156 157.171875 104.1875 C 154.410156 105.171875 151.667969 106.304688 149.023438 107.558594 C 148.285156 107.914062 147.511719 108.167969 146.710938 108.332031 C 146.695312 108.347656 146.679688 108.359375 146.664062 108.371094 L 146.617188 108.414062 C 146.515625 108.503906 146.410156 108.597656 146.308594 108.6875 L 146.285156 108.707031 C 146.257812 108.734375 146.230469 108.757812 146.199219 108.785156 L 146.105469 108.871094 C 146.011719 108.953125 145.917969 109.039062 145.828125 109.121094 L 145.820312 109.125 C 145.753906 109.191406 145.683594 109.253906 145.613281 109.316406 C 145.527344 109.402344 145.4375 109.480469 145.351562 109.566406 L 145.328125 109.585938 C 145.273438 109.640625 145.214844 109.695312 145.15625 109.75 L 144.660156 110.226562 C 144.570312 110.316406 144.476562 110.410156 144.386719 110.5 C 144.328125 110.558594 144.269531 110.617188 144.210938 110.675781 L 144.183594 110.703125 C 144.09375 110.792969 144.003906 110.882812 143.914062 110.972656 L 143.628906 111.269531 C 143.574219 111.324219 143.523438 111.378906 143.472656 111.433594 L 143.4375 111.46875 C 143.402344 111.503906 143.371094 111.539062 143.335938 111.574219 L 143.167969 111.753906 C 143.117188 111.808594 143.0625 111.867188 143.011719 111.921875 L 142.808594 112.144531 C 142.726562 112.234375 142.640625 112.328125 142.5625 112.414062 L 142.367188 112.632812 C 142.28125 112.726562 142.199219 112.816406 142.117188 112.910156 L 141.84375 113.226562 C 141.792969 113.285156 141.746094 113.339844 141.695312 113.398438 L 141.667969 113.433594 C 141.609375 113.5 141.554688 113.5625 141.5 113.632812 L 140.832031 114.433594 L 140.632812 114.683594 C 140.5625 114.773438 140.488281 114.863281 140.417969 114.949219 L 140.40625 114.96875 C 140.378906 115.003906 140.355469 115.03125 140.332031 115.0625 C 140.296875 115.105469 140.265625 115.148438 140.230469 115.195312 L 139.992188 115.5 C 139.9375 115.574219 139.882812 115.648438 139.824219 115.722656 L 139.597656 116.019531 C 139.539062 116.097656 139.488281 116.171875 139.433594 116.242188 L 139.199219 116.5625 C 139.144531 116.632812 139.09375 116.707031 139.039062 116.78125 C 138.964844 116.886719 138.894531 116.984375 138.828125 117.085938 L 138.8125 117.105469 C 138.761719 117.175781 138.714844 117.242188 138.664062 117.316406 L 138.640625 117.347656 C 138.574219 117.445312 138.507812 117.539062 138.441406 117.636719 L 138.058594 118.199219 C 138.003906 118.28125 137.953125 118.355469 137.902344 118.433594 L 137.886719 118.457031 C 137.816406 118.558594 137.75 118.660156 137.683594 118.765625 C 137.632812 118.84375 137.585938 118.917969 137.535156 118.996094 L 137.519531 119.023438 C 137.453125 119.121094 137.386719 119.226562 137.320312 119.328125 C 137.28125 119.390625 137.242188 119.453125 137.203125 119.515625 L 137.09375 119.691406 C 137.054688 119.753906 137.015625 119.816406 136.976562 119.878906 L 136.902344 120.003906 C 136.871094 120.058594 136.835938 120.109375 136.804688 120.164062 C 136.742188 120.261719 136.683594 120.359375 136.625 120.460938 L 136.265625 121.070312 C 136.222656 121.140625 136.175781 121.222656 136.132812 121.300781 L 136.117188 121.328125 C 136.058594 121.433594 136 121.535156 135.941406 121.636719 L 135.929688 121.65625 C 135.90625 121.699219 135.878906 121.746094 135.855469 121.792969 L 135.78125 121.925781 C 135.726562 122.023438 135.667969 122.128906 135.609375 122.234375 C 135.5625 122.320312 135.515625 122.402344 135.472656 122.484375 L 135.402344 122.621094 C 135.367188 122.683594 135.332031 122.746094 135.300781 122.808594 L 135.265625 122.871094 C 135.242188 122.917969 135.214844 122.964844 135.191406 123.011719 L 134.960938 123.449219 C 134.925781 123.523438 134.878906 123.609375 134.835938 123.695312 L 134.820312 123.730469 C 134.765625 123.832031 134.714844 123.9375 134.660156 124.039062 C 134.617188 124.136719 134.574219 124.222656 134.53125 124.308594 L 134.511719 124.347656 C 134.460938 124.445312 134.414062 124.542969 134.367188 124.640625 L 134.351562 124.671875 C 134.308594 124.757812 134.269531 124.839844 134.230469 124.921875 L 133.925781 125.570312 C 133.875 125.679688 133.828125 125.785156 133.777344 125.894531 L 133.765625 125.917969 C 133.726562 126.003906 133.683594 126.09375 133.644531 126.1875 L 133.609375 126.265625 C 133.574219 126.351562 133.535156 126.4375 133.496094 126.523438 L 133.359375 126.839844 C 133.3125 126.941406 133.265625 127.054688 133.21875 127.164062 C 133.171875 127.273438 133.132812 127.367188 133.089844 127.460938 L 133.085938 127.476562 C 133.039062 127.585938 132.992188 127.699219 132.949219 127.808594 L 132.820312 128.117188 C 132.777344 128.226562 132.734375 128.335938 132.6875 128.445312 C 132.648438 128.546875 132.613281 128.640625 132.574219 128.738281 L 132.566406 128.761719 C 132.523438 128.871094 132.476562 128.988281 132.433594 129.101562 L 132.398438 129.191406 C 132.371094 129.257812 132.347656 129.324219 132.324219 129.390625 L 132.3125 129.417969 C 132.273438 129.527344 132.230469 129.636719 132.191406 129.746094 L 132.183594 129.761719 C 132.152344 129.851562 132.113281 129.953125 132.074219 130.058594 C 132.03125 130.179688 131.988281 130.304688 131.945312 130.425781 C 131.910156 130.523438 131.871094 130.621094 131.839844 130.722656 L 131.613281 131.378906 C 131.570312 131.507812 131.527344 131.625 131.492188 131.742188 C 131.453125 131.847656 131.425781 131.945312 131.394531 132.035156 L 131.382812 132.066406 C 131.347656 132.183594 131.308594 132.300781 131.273438 132.421875 C 131.238281 132.523438 131.207031 132.617188 131.179688 132.710938 L 131.167969 132.75 C 131.132812 132.855469 131.101562 132.96875 131.066406 133.082031 L 131.027344 133.210938 C 131.007812 133.273438 130.988281 133.332031 130.972656 133.394531 L 130.960938 133.4375 C 130.941406 133.5 130.917969 133.566406 130.898438 133.636719 L 130.828125 133.875 C 130.8125 133.941406 130.792969 134 130.777344 134.0625 L 130.757812 134.125 C 130.734375 134.199219 130.714844 134.277344 130.695312 134.351562 L 130.660156 134.472656 C 130.632812 134.574219 130.601562 134.675781 130.574219 134.78125 L 130.566406 134.804688 C 130.535156 134.917969 130.503906 135.035156 130.472656 135.148438 C 130.445312 135.257812 130.417969 135.363281 130.390625 135.46875 L 130.382812 135.488281 C 130.355469 135.605469 130.324219 135.722656 130.296875 135.835938 L 130.292969 135.851562 C 130.265625 135.957031 130.238281 136.0625 130.210938 136.164062 C 130.183594 136.285156 130.15625 136.398438 130.128906 136.515625 L 130.09375 136.65625 C 130.078125 136.71875 130.0625 136.785156 130.046875 136.851562 L 130.039062 136.882812 C 130.019531 136.960938 130.003906 137.035156 129.984375 137.113281 L 129.953125 137.25 C 129.925781 137.363281 129.902344 137.464844 129.882812 137.566406 L 129.761719 138.109375 C 129.75 138.164062 129.738281 138.21875 129.726562 138.273438 L 129.722656 138.285156 C 129.695312 138.414062 129.667969 138.539062 129.644531 138.667969 L 129.554688 139.105469 C 129.535156 139.191406 129.519531 139.28125 129.503906 139.367188 L 129.496094 139.398438 C 129.476562 139.5 129.457031 139.601562 129.4375 139.699219 L 129.363281 140.113281 C 129.339844 140.21875 129.320312 140.328125 129.304688 140.433594 C 129.28125 140.5625 129.257812 140.691406 129.238281 140.824219 L 129.234375 140.84375 C 129.214844 140.953125 129.195312 141.054688 129.179688 141.160156 C 129.15625 141.292969 129.136719 141.417969 129.117188 141.539062 L 129.097656 141.65625 C 129.085938 141.730469 129.074219 141.800781 129.0625 141.875 L 129.058594 141.902344 C 129.039062 142.027344 129.023438 142.148438 129.003906 142.269531 L 128.925781 142.8125 C 128.914062 142.886719 128.90625 142.957031 128.894531 143.027344 C 128.882812 143.140625 128.867188 143.25 128.851562 143.359375 C 128.832031 143.496094 128.816406 143.632812 128.796875 143.773438 C 128.789062 143.847656 128.777344 143.925781 128.769531 144.003906 L 128.757812 144.101562 C 128.742188 144.210938 128.730469 144.316406 128.71875 144.425781 L 128.703125 144.5625 C 128.691406 144.652344 128.683594 144.742188 128.671875 144.828125 L 128.671875 144.851562 C 128.652344 145.011719 128.636719 145.171875 128.621094 145.328125 L 128.59375 145.585938 C 128.566406 145.839844 128.542969 146.09375 128.523438 146.339844 C 128.484375 146.765625 128.449219 147.21875 128.417969 147.71875 C 128.414062 147.773438 128.410156 147.835938 128.40625 147.898438 L 128.394531 148.046875 C 128.363281 148.558594 128.339844 149 128.320312 149.398438 C 128.320312 149.453125 128.316406 149.507812 128.316406 149.554688 C 128.296875 149.996094 128.28125 150.421875 128.273438 150.828125 L 128.269531 150.933594 C 128.269531 150.996094 128.265625 151.058594 128.265625 151.117188 L 128.265625 151.152344 C 128.253906 151.667969 128.25 152.097656 128.246094 152.507812 C 128.25 152.585938 128.25 152.660156 128.25 152.734375 C 128.25 153.140625 128.253906 153.558594 128.261719 153.964844 L 128.265625 154.265625 C 128.277344 154.769531 128.292969 155.21875 128.308594 155.632812 L 128.320312 155.871094 C 128.339844 156.28125 128.363281 156.695312 128.386719 157.109375 L 128.402344 157.371094 C 128.429688 157.832031 128.464844 158.296875 128.503906 158.753906 C 128.511719 158.84375 128.515625 158.925781 128.523438 159.007812 C 128.554688 159.378906 128.59375 159.777344 128.644531 160.273438 L 128.667969 160.492188 C 128.714844 160.953125 128.769531 161.417969 128.828125 161.871094 L 128.84375 162.011719 C 128.851562 162.066406 128.855469 162.113281 128.863281 162.164062 C 128.921875 162.617188 128.980469 163.035156 129.039062 163.449219 C 129.042969 163.480469 129.050781 163.515625 129.054688 163.554688 L 129.058594 163.589844 C 129.117188 163.996094 129.1875 164.425781 129.28125 164.988281 C 129.296875 165.089844 129.3125 165.191406 129.328125 165.289062 C 129.414062 165.769531 129.492188 166.210938 129.566406 166.613281 L 129.582031 166.699219 C 129.664062 167.125 129.753906 167.578125 129.867188 168.125 L 129.929688 168.414062 C 130.125 169.34375 130.34375 170.296875 130.582031 171.242188 L 130.59375 171.289062 C 130.609375 171.355469 130.625 171.425781 130.644531 171.496094 L 130.648438 171.515625 C 130.773438 172.003906 130.898438 172.480469 131.023438 172.9375 L 131.042969 173.007812 C 131.175781 173.492188 131.316406 173.988281 131.425781 174.359375 L 131.464844 174.496094 C 131.480469 174.542969 131.492188 174.589844 131.507812 174.632812 C 131.660156 175.15625 131.796875 175.59375 131.925781 176.011719 C 131.945312 176.066406 131.960938 176.121094 131.980469 176.179688 C 132.117188 176.613281 132.257812 177.046875 132.402344 177.476562 L 132.480469 177.703125 C 132.636719 178.171875 132.800781 178.640625 132.964844 179.109375 L 133.039062 179.308594 C 133.175781 179.695312 133.332031 180.113281 133.507812 180.582031 C 133.535156 180.652344 133.5625 180.722656 133.589844 180.800781 C 133.773438 181.285156 133.949219 181.730469 134.125 182.164062 L 134.21875 182.402344 C 134.394531 182.839844 134.570312 183.265625 134.746094 183.675781 L 134.78125 183.765625 C 134.792969 183.792969 134.804688 183.824219 134.816406 183.855469 C 134.847656 183.414062 134.882812 182.972656 134.925781 182.527344 C 135.484375 176.683594 137.011719 171.03125 139.46875 165.734375 C 142.015625 160.246094 145.488281 155.277344 149.800781 150.96875 C 152.183594 148.585938 154.796875 146.433594 157.574219 144.570312 C 157.683594 144.476562 157.792969 144.386719 157.902344 144.296875 L 158.410156 143.863281 C 158.53125 143.765625 158.644531 143.667969 158.761719 143.574219 L 159.101562 143.292969 C 159.21875 143.199219 159.332031 143.101562 159.449219 143.007812 C 159.554688 142.917969 159.664062 142.835938 159.769531 142.746094 L 160.117188 142.46875 C 160.242188 142.367188 160.363281 142.265625 160.488281 142.164062 L 161.128906 141.660156 C 161.261719 141.554688 161.394531 141.449219 161.527344 141.34375 L 161.992188 140.984375 C 162.191406 140.832031 162.382812 140.683594 162.574219 140.535156 L 163.265625 140.015625 C 163.386719 139.921875 163.507812 139.828125 163.632812 139.742188 C 163.730469 139.664062 163.832031 139.589844 163.933594 139.515625 L 164.261719 139.277344 C 164.402344 139.171875 164.546875 139.066406 164.6875 138.960938 C 164.785156 138.890625 164.886719 138.816406 164.988281 138.742188 L 165.175781 138.613281 C 165.367188 138.472656 165.554688 138.335938 165.746094 138.199219 L 166.257812 137.839844 C 166.445312 137.707031 166.636719 137.574219 166.828125 137.441406 C 166.898438 137.390625 166.976562 137.339844 167.058594 137.28125 C 167.121094 137.238281 167.179688 137.199219 167.238281 137.160156 L 167.425781 137.03125 C 167.585938 136.921875 167.738281 136.816406 167.898438 136.707031 C 167.972656 136.65625 168.046875 136.605469 168.121094 136.558594 L 168.609375 136.230469 C 168.730469 136.152344 168.851562 136.070312 168.96875 135.992188 L 169.386719 135.722656 C 169.605469 135.574219 169.832031 135.429688 170.0625 135.28125 C 170.152344 135.222656 170.25 135.160156 170.347656 135.101562 L 170.546875 134.972656 C 170.746094 134.84375 170.949219 134.71875 171.148438 134.589844 C 171.265625 134.515625 171.382812 134.445312 171.5 134.371094 L 171.777344 134.203125 C 171.933594 134.105469 172.089844 134.007812 172.25 133.910156 C 172.34375 133.851562 172.445312 133.792969 172.542969 133.734375 L 172.65625 133.664062 C 172.890625 133.523438 173.121094 133.382812 173.355469 133.246094 L 173.558594 133.125 C 173.621094 133.089844 173.6875 133.050781 173.753906 133.011719 L 173.820312 132.972656 C 174.03125 132.847656 174.246094 132.722656 174.457031 132.597656 L 175.042969 132.265625 C 175.214844 132.164062 175.390625 132.066406 175.566406 131.96875 C 175.65625 131.917969 175.746094 131.867188 175.835938 131.816406 L 175.972656 131.738281 C 176.210938 131.609375 176.445312 131.476562 176.683594 131.351562 C 176.753906 131.3125 176.828125 131.269531 176.898438 131.230469 C 176.960938 131.199219 177.023438 131.164062 177.082031 131.132812 L 177.921875 130.683594 C 178.019531 130.628906 178.121094 130.582031 178.21875 130.527344 L 178.40625 130.429688 C 178.582031 130.335938 178.753906 130.246094 178.929688 130.15625 C 179.011719 130.113281 179.089844 130.074219 179.167969 130.035156 C 179.230469 130.003906 179.292969 129.972656 179.355469 129.9375 L 179.460938 129.882812 C 179.660156 129.785156 179.863281 129.683594 180.0625 129.582031 L 180.710938 129.261719 C 180.871094 129.179688 181.035156 129.101562 181.199219 129.023438 C 181.296875 128.972656 181.402344 128.925781 181.503906 128.875 L 181.660156 128.800781 C 181.882812 128.695312 182.109375 128.585938 182.335938 128.484375 C 182.449219 128.425781 182.574219 128.371094 182.699219 128.3125 L 182.824219 128.253906 C 183.039062 128.152344 183.257812 128.050781 183.480469 127.949219 C 183.574219 127.910156 183.660156 127.871094 183.75 127.832031 C 183.824219 127.800781 183.898438 127.765625 183.972656 127.730469 L 184.1875 127.636719 C 184.335938 127.570312 184.484375 127.503906 184.628906 127.4375 C 184.742188 127.390625 184.855469 127.34375 184.964844 127.292969 L 185.152344 127.214844 C 185.363281 127.121094 185.574219 127.027344 185.785156 126.9375 C 185.914062 126.882812 186.046875 126.828125 186.175781 126.777344 L 186.574219 126.609375 C 186.695312 126.558594 186.816406 126.511719 186.933594 126.460938 C 187.089844 126.398438 187.230469 126.339844 187.371094 126.285156 L 187.675781 126.160156 C 187.816406 126.105469 187.960938 126.042969 188.101562 125.992188 C 188.273438 125.921875 188.445312 125.855469 188.617188 125.792969 L 188.734375 125.742188 C 188.8125 125.714844 188.875 125.691406 188.941406 125.664062 C 189.058594 125.617188 189.171875 125.574219 189.289062 125.53125 C 189.429688 125.472656 189.585938 125.417969 189.746094 125.359375 L 190.027344 125.253906 C 190.167969 125.199219 190.308594 125.148438 190.449219 125.097656 C 190.648438 125.023438 190.855469 124.949219 191.058594 124.878906 L 191.402344 124.757812 C 191.476562 124.726562 191.546875 124.703125 191.613281 124.679688 C 192.015625 124.539062 192.410156 124.402344 192.800781 124.269531 C 203.5625 120.636719 214.402344 119.058594 225.03125 119.566406 C 226.140625 119.621094 227.253906 119.695312 228.332031 119.792969 C 228.609375 119.816406 228.886719 119.839844 229.160156 119.867188 C 229.261719 119.878906 229.351562 119.890625 229.449219 119.902344 L 229.460938 119.902344 C 229.644531 119.917969 229.820312 119.9375 229.996094 119.957031 C 230.058594 119.964844 230.117188 119.972656 230.179688 119.980469 C 230.21875 119.984375 230.261719 119.988281 230.296875 119.992188 L 230.945312 120.070312 C 231.015625 120.078125 231.082031 120.085938 231.152344 120.09375 L 231.183594 120.097656 C 231.332031 120.117188 231.484375 120.136719 231.632812 120.160156 L 231.652344 120.160156 C 231.773438 120.175781 231.894531 120.191406 232.015625 120.207031 C 232.171875 120.230469 232.332031 120.25 232.484375 120.273438 C 232.605469 120.292969 232.726562 120.308594 232.847656 120.328125 C 232.996094 120.347656 233.148438 120.371094 233.300781 120.394531 C 233.390625 120.410156 233.484375 120.421875 233.570312 120.4375 L 233.660156 120.453125 C 233.761719 120.46875 233.875 120.484375 233.988281 120.503906 L 234.164062 120.535156 C 234.226562 120.546875 234.285156 120.554688 234.34375 120.5625 L 234.484375 120.585938 C 234.632812 120.613281 234.785156 120.640625 234.945312 120.667969 L 234.949219 120.667969 C 235.0625 120.6875 235.171875 120.707031 235.28125 120.726562 C 235.429688 120.753906 235.578125 120.78125 235.71875 120.808594 L 235.792969 120.824219 C 235.894531 120.839844 235.992188 120.859375 236.09375 120.878906 C 236.316406 120.921875 236.527344 120.964844 236.738281 121.007812 C 236.796875 121.015625 236.851562 121.027344 236.90625 121.039062 C 237.171875 121.09375 237.433594 121.148438 237.695312 121.207031 C 237.746094 121.214844 237.800781 121.230469 237.851562 121.242188 L 237.917969 121.257812 C 238.0625 121.285156 238.207031 121.316406 238.351562 121.351562 L 238.796875 121.453125 C 238.953125 121.492188 239.117188 121.527344 239.285156 121.570312 L 239.332031 121.582031 C 239.425781 121.601562 239.519531 121.625 239.613281 121.648438 L 239.671875 121.660156 C 239.804688 121.695312 239.941406 121.726562 240.074219 121.761719 C 240.191406 121.789062 240.304688 121.820312 240.417969 121.851562 L 241.195312 122.050781 C 241.351562 122.09375 241.507812 122.136719 241.660156 122.179688 L 242.113281 122.304688 C 242.222656 122.335938 242.332031 122.367188 242.441406 122.398438 L 242.464844 122.40625 C 242.550781 122.429688 242.640625 122.457031 242.726562 122.480469 L 242.742188 122.484375 C 242.867188 122.519531 242.992188 122.558594 243.117188 122.59375 L 243.328125 122.660156 C 243.394531 122.679688 243.460938 122.699219 243.527344 122.722656 C 243.695312 122.773438 243.867188 122.824219 244.035156 122.875 L 244.085938 122.890625 C 244.15625 122.910156 244.21875 122.933594 244.289062 122.957031 C 244.441406 123.003906 244.59375 123.050781 244.746094 123.101562 L 245.039062 123.199219 C 245.292969 123.28125 245.546875 123.367188 245.796875 123.453125 C 245.828125 123.464844 245.855469 123.472656 245.886719 123.484375 C 246.113281 123.5625 246.34375 123.640625 246.570312 123.722656 C 246.605469 123.734375 246.648438 123.75 246.695312 123.769531 L 246.761719 123.792969 C 246.945312 123.859375 247.117188 123.921875 247.292969 123.984375 L 247.328125 123.996094 C 247.414062 124.03125 247.488281 124.058594 247.566406 124.085938 C 247.730469 124.148438 247.894531 124.210938 248.0625 124.273438 L 248.136719 124.300781 C 248.1875 124.324219 248.242188 124.34375 248.292969 124.363281 L 248.328125 124.375 C 248.480469 124.433594 248.636719 124.496094 248.789062 124.554688 C 248.882812 124.59375 248.972656 124.628906 249.0625 124.664062 L 249.527344 124.851562 C 249.621094 124.890625 249.71875 124.933594 249.8125 124.972656 C 249.96875 125.035156 250.125 125.101562 250.285156 125.167969 L 250.542969 125.277344 C 250.703125 125.347656 250.863281 125.414062 251.027344 125.488281 L 251.25 125.585938 C 251.433594 125.664062 251.609375 125.746094 251.789062 125.828125 L 252.09375 125.964844 C 252.265625 126.042969 252.429688 126.117188 252.597656 126.199219 L 252.683594 126.238281 C 253.15625 126.460938 253.632812 126.691406 254.113281 126.929688 C 254.144531 126.949219 254.179688 126.964844 254.214844 126.980469 L 254.457031 127.105469 C 254.582031 127.171875 254.707031 127.230469 254.832031 127.296875 L 255.027344 127.398438 C 255.183594 127.480469 255.34375 127.566406 255.503906 127.648438 C 255.578125 127.6875 255.660156 127.734375 255.742188 127.773438 C 255.898438 127.863281 256.058594 127.945312 256.210938 128.03125 L 256.429688 128.152344 C 256.589844 128.242188 256.746094 128.328125 256.898438 128.414062 L 257.121094 128.542969 C 257.269531 128.621094 257.414062 128.707031 257.5625 128.792969 C 257.632812 128.832031 257.703125 128.871094 257.773438 128.914062 L 257.800781 128.929688 C 257.957031 129.023438 258.113281 129.113281 258.261719 129.203125 L 258.464844 129.324219 C 258.632812 129.425781 258.800781 129.527344 258.964844 129.628906 L 259.128906 129.730469 C 259.308594 129.839844 259.484375 129.949219 259.660156 130.0625 L 259.796875 130.148438 C 260.269531 130.449219 260.699219 130.730469 261.113281 131.007812 L 261.199219 131.066406 C 261.375 131.183594 261.554688 131.308594 261.734375 131.429688 C 261.769531 131.453125 261.808594 131.480469 261.84375 131.503906 L 262.617188 132.050781 C 262.742188 132.140625 262.867188 132.234375 262.996094 132.324219 C 263.074219 132.382812 263.152344 132.441406 263.230469 132.496094 C 263.367188 132.59375 263.5 132.695312 263.636719 132.796875 L 264.53125 133.476562 C 264.644531 133.566406 264.753906 133.652344 264.867188 133.738281 L 265.664062 134.378906 C 265.808594 134.496094 265.957031 134.621094 266.101562 134.738281 L 266.171875 134.796875 C 266.207031 134.828125 266.242188 134.855469 266.277344 134.886719 C 266.46875 135.042969 266.65625 135.207031 266.84375 135.367188 L 266.925781 135.4375 C 267.097656 135.585938 267.269531 135.734375 267.441406 135.882812 L 267.519531 135.953125 C 267.675781 136.097656 267.84375 136.242188 268.003906 136.394531 C 268.0625 136.441406 268.121094 136.496094 268.175781 136.546875 C 268.28125 136.644531 268.382812 136.734375 268.488281 136.832031 L 275.371094 125.753906 C 276.589844 123.792969 277.121094 121.445312 276.855469 119.148438 C 276.585938 116.847656 275.542969 114.6875 273.910156 113.050781 L 260.65625 99.796875 C 259.019531 98.160156 256.851562 97.117188 254.554688 96.851562 C 252.261719 96.585938 249.914062 97.113281 247.949219 98.335938 L 233.96875 107.027344 C 231.066406 108.828125 227.488281 109.027344 224.390625 107.558594 C 221.746094 106.304688 219.003906 105.171875 216.246094 104.1875 " fill-opacity="1" fill-rule="nonzero"/></g><g clip-path="url(#1a3edd8d5c)"><path fill="#6d1d2a" d="M 76.230469 172.605469 C 73.667969 173.203125 71.882812 175.457031 71.882812 178.082031 L 71.882812 197.667969 C 71.882812 200.296875 73.667969 202.550781 76.230469 203.148438 L 92.984375 207.058594 C 98.171875 208.269531 102.335938 211.992188 104.125 217.023438 C 105.09375 219.75 106.214844 222.453125 107.449219 225.058594 L 107.449219 225.0625 C 107.988281 226.195312 108.386719 227.386719 108.636719 228.605469 L 108.808594 228.78125 C 108.902344 228.878906 109 228.980469 109.097656 229.078125 L 109.417969 229.402344 C 109.480469 229.464844 109.546875 229.527344 109.609375 229.59375 L 109.628906 229.609375 C 109.664062 229.644531 109.699219 229.679688 109.734375 229.714844 L 109.839844 229.816406 C 109.933594 229.90625 110.027344 229.996094 110.121094 230.089844 L 110.148438 230.117188 C 110.183594 230.148438 110.21875 230.183594 110.253906 230.214844 L 110.339844 230.296875 C 110.449219 230.398438 110.554688 230.496094 110.660156 230.597656 L 110.679688 230.617188 C 110.738281 230.667969 110.796875 230.726562 110.855469 230.78125 L 110.878906 230.796875 C 110.980469 230.894531 111.085938 230.988281 111.191406 231.082031 L 111.210938 231.101562 C 111.269531 231.15625 111.332031 231.207031 111.390625 231.261719 L 111.96875 231.769531 C 112.070312 231.859375 112.175781 231.949219 112.277344 232.035156 L 112.621094 232.324219 C 112.691406 232.382812 112.761719 232.445312 112.835938 232.5 L 113.082031 232.703125 C 113.1875 232.789062 113.289062 232.875 113.394531 232.957031 L 113.429688 232.984375 C 113.488281 233.03125 113.546875 233.078125 113.605469 233.125 L 113.628906 233.140625 C 113.742188 233.230469 113.859375 233.324219 113.972656 233.414062 L 114.214844 233.601562 C 114.328125 233.6875 114.441406 233.773438 114.554688 233.859375 L 114.582031 233.878906 C 114.644531 233.925781 114.710938 233.972656 114.773438 234.023438 L 114.792969 234.039062 C 114.90625 234.121094 115.019531 234.207031 115.136719 234.292969 L 115.171875 234.316406 C 115.222656 234.355469 115.277344 234.394531 115.332031 234.433594 L 115.449219 234.515625 C 115.546875 234.589844 115.644531 234.660156 115.746094 234.730469 L 116.578125 235.3125 C 116.699219 235.394531 116.816406 235.476562 116.9375 235.554688 L 116.972656 235.578125 C 117.039062 235.625 117.105469 235.667969 117.175781 235.710938 L 117.203125 235.730469 C 117.320312 235.808594 117.441406 235.890625 117.566406 235.96875 L 118.417969 236.511719 C 118.558594 236.597656 118.6875 236.679688 118.820312 236.757812 L 118.835938 236.765625 C 118.902344 236.808594 118.972656 236.851562 119.039062 236.894531 L 119.074219 236.914062 C 119.199219 236.988281 119.324219 237.0625 119.449219 237.136719 L 119.464844 237.148438 C 119.539062 237.191406 119.613281 237.234375 119.6875 237.277344 L 119.703125 237.285156 C 119.835938 237.363281 119.964844 237.4375 120.097656 237.515625 L 120.117188 237.527344 C 120.183594 237.5625 120.25 237.601562 120.316406 237.640625 L 120.355469 237.660156 C 120.488281 237.738281 120.625 237.8125 120.757812 237.890625 L 121 238.019531 C 121.132812 238.09375 121.265625 238.167969 121.402344 238.238281 C 121.488281 238.285156 121.5625 238.324219 121.640625 238.367188 L 121.671875 238.382812 C 121.796875 238.449219 121.925781 238.519531 122.054688 238.585938 L 122.070312 238.59375 C 122.148438 238.632812 122.226562 238.671875 122.304688 238.714844 L 122.359375 238.742188 C 122.484375 238.804688 122.609375 238.871094 122.734375 238.933594 L 122.839844 238.988281 C 122.894531 239.011719 122.945312 239.039062 122.996094 239.066406 L 123.414062 239.269531 C 123.46875 239.296875 123.511719 239.316406 123.550781 239.335938 L 123.710938 239.410156 C 123.835938 239.472656 123.960938 239.535156 124.085938 239.589844 L 124.441406 239.757812 C 124.546875 239.804688 124.652344 239.851562 124.757812 239.898438 L 124.789062 239.914062 C 124.867188 239.949219 124.945312 239.988281 125.019531 240.019531 L 125.742188 240.335938 C 125.847656 240.382812 125.949219 240.429688 126.054688 240.472656 L 126.195312 240.53125 C 126.269531 240.5625 126.34375 240.59375 126.417969 240.625 L 126.878906 240.816406 C 126.953125 240.847656 127.039062 240.882812 127.125 240.914062 L 127.164062 240.929688 C 127.296875 240.984375 127.433594 241.039062 127.570312 241.089844 C 127.667969 241.128906 127.75 241.160156 127.839844 241.195312 L 127.972656 241.25 C 128.070312 241.285156 128.167969 241.324219 128.261719 241.359375 L 128.308594 241.375 C 128.359375 241.394531 128.40625 241.414062 128.457031 241.429688 L 129.03125 241.644531 C 129.113281 241.671875 129.195312 241.703125 129.28125 241.730469 L 129.304688 241.742188 C 129.394531 241.773438 129.484375 241.804688 129.574219 241.835938 L 129.734375 241.894531 C 129.828125 241.925781 129.917969 241.957031 130.007812 241.988281 C 130.160156 242.039062 130.304688 242.089844 130.453125 242.136719 L 130.472656 242.144531 C 130.5625 242.171875 130.65625 242.207031 130.746094 242.238281 L 131.1875 242.378906 C 131.289062 242.414062 131.394531 242.445312 131.496094 242.476562 C 131.578125 242.503906 131.660156 242.527344 131.742188 242.550781 L 131.941406 242.617188 C 132.023438 242.640625 132.109375 242.667969 132.199219 242.695312 L 132.246094 242.707031 C 132.339844 242.734375 132.433594 242.765625 132.527344 242.792969 L 132.972656 242.921875 C 133.121094 242.964844 133.269531 243.007812 133.417969 243.046875 L 133.433594 243.050781 C 133.535156 243.082031 133.628906 243.105469 133.722656 243.132812 C 133.875 243.171875 134.023438 243.210938 134.171875 243.253906 L 134.480469 243.335938 C 134.589844 243.363281 134.703125 243.390625 134.8125 243.421875 L 135.25 243.527344 C 135.375 243.5625 135.492188 243.589844 135.605469 243.617188 L 136.019531 243.714844 C 136.15625 243.746094 136.304688 243.78125 136.457031 243.816406 L 136.605469 243.847656 C 136.664062 243.863281 136.71875 243.875 136.773438 243.886719 C 136.929688 243.917969 137.066406 243.949219 137.207031 243.980469 L 137.554688 244.054688 C 137.628906 244.070312 137.707031 244.085938 137.785156 244.101562 L 139.125 244.363281 C 139.226562 244.378906 139.328125 244.394531 139.429688 244.414062 L 139.558594 244.4375 C 139.640625 244.449219 139.71875 244.464844 139.800781 244.480469 L 139.90625 244.496094 C 140.050781 244.523438 140.199219 244.546875 140.347656 244.570312 L 140.386719 244.574219 C 140.488281 244.59375 140.585938 244.609375 140.6875 244.628906 C 140.796875 244.640625 140.890625 244.65625 140.988281 244.671875 L 141.5 244.75 C 141.578125 244.761719 141.652344 244.769531 141.730469 244.78125 L 141.9375 244.8125 C 142.015625 244.820312 142.097656 244.832031 142.175781 244.839844 L 142.292969 244.859375 C 142.429688 244.878906 142.578125 244.894531 142.726562 244.914062 L 142.875 244.929688 C 142.941406 244.941406 143.007812 244.949219 143.078125 244.957031 C 143.167969 244.96875 143.246094 244.980469 143.324219 244.988281 L 143.539062 245.011719 C 143.652344 245.023438 143.765625 245.035156 143.878906 245.050781 L 144.402344 245.105469 C 144.496094 245.113281 144.59375 245.125 144.6875 245.132812 L 144.707031 245.132812 C 144.851562 245.148438 144.996094 245.160156 145.140625 245.171875 L 145.195312 245.179688 C 145.300781 245.1875 145.40625 245.195312 145.511719 245.207031 C 145.660156 245.21875 145.804688 245.230469 145.953125 245.242188 L 145.996094 245.242188 C 146.109375 245.253906 146.222656 245.261719 146.332031 245.269531 C 146.421875 245.277344 146.507812 245.285156 146.597656 245.289062 L 147.160156 245.324219 C 147.289062 245.332031 147.429688 245.339844 147.566406 245.34375 L 147.972656 245.371094 C 148.074219 245.375 148.175781 245.378906 148.273438 245.382812 L 148.433594 245.386719 C 148.492188 245.390625 148.550781 245.394531 148.609375 245.394531 C 148.65625 245.398438 148.707031 245.398438 148.757812 245.402344 L 148.789062 245.402344 C 148.945312 245.40625 149.105469 245.414062 149.265625 245.417969 L 149.296875 245.417969 C 149.398438 245.421875 149.496094 245.425781 149.597656 245.425781 L 149.625 245.429688 C 149.726562 245.433594 149.824219 245.433594 149.921875 245.433594 L 150.453125 245.445312 C 150.632812 245.449219 150.808594 245.449219 150.992188 245.449219 L 151.132812 245.449219 C 151.171875 245.449219 151.207031 245.449219 151.242188 245.449219 L 151.285156 245.449219 C 151.558594 245.449219 151.835938 245.449219 152.113281 245.445312 C 152.480469 245.441406 152.867188 245.433594 153.296875 245.417969 L 153.386719 245.417969 C 153.445312 245.417969 153.507812 245.417969 153.566406 245.414062 L 153.621094 245.410156 C 153.984375 245.398438 154.351562 245.382812 154.71875 245.371094 L 154.820312 245.367188 C 155.195312 245.34375 155.589844 245.324219 155.996094 245.296875 L 156.023438 245.296875 C 156.082031 245.292969 156.140625 245.289062 156.199219 245.285156 L 156.308594 245.277344 C 156.648438 245.253906 156.992188 245.230469 157.335938 245.199219 C 157.386719 245.195312 157.4375 245.191406 157.488281 245.1875 L 157.535156 245.183594 C 157.871094 245.15625 158.246094 245.121094 158.710938 245.074219 L 159.011719 245.039062 C 159.34375 245.007812 159.675781 244.96875 160.007812 244.929688 C 160.058594 244.925781 160.125 244.917969 160.1875 244.910156 L 160.253906 244.90625 C 160.640625 244.855469 161.03125 244.804688 161.421875 244.75 L 161.726562 244.710938 C 162.042969 244.664062 162.367188 244.617188 162.691406 244.566406 L 162.976562 244.523438 C 163.335938 244.464844 163.730469 244.402344 164.128906 244.332031 C 164.222656 244.316406 164.308594 244.300781 164.398438 244.285156 L 164.421875 244.28125 C 164.738281 244.222656 165.054688 244.167969 165.367188 244.105469 C 165.476562 244.085938 165.582031 244.066406 165.6875 244.042969 C 166.078125 243.96875 166.464844 243.894531 166.851562 243.8125 C 166.90625 243.800781 166.96875 243.789062 167.03125 243.773438 L 167.117188 243.753906 C 167.4375 243.6875 167.757812 243.617188 168.082031 243.542969 L 168.394531 243.472656 C 168.78125 243.386719 169.167969 243.292969 169.558594 243.195312 L 169.785156 243.140625 C 170.121094 243.058594 170.445312 242.976562 170.769531 242.890625 L 171.109375 242.800781 C 171.488281 242.699219 171.871094 242.597656 172.253906 242.492188 L 172.285156 242.480469 C 172.34375 242.464844 172.402344 242.445312 172.464844 242.429688 C 172.796875 242.335938 173.128906 242.238281 173.460938 242.136719 L 173.476562 242.136719 C 173.546875 242.113281 173.621094 242.09375 173.691406 242.070312 L 173.8125 242.035156 C 174.191406 241.921875 174.582031 241.800781 174.96875 241.679688 L 174.996094 241.671875 C 175.03125 241.65625 175.0625 241.648438 175.09375 241.640625 C 175.449219 241.523438 175.800781 241.410156 176.15625 241.289062 L 176.1875 241.28125 C 176.289062 241.246094 176.390625 241.214844 176.492188 241.175781 C 176.851562 241.058594 177.203125 240.9375 177.558594 240.808594 C 177.59375 240.796875 177.628906 240.785156 177.664062 240.773438 L 177.6875 240.765625 C 178.0625 240.632812 178.449219 240.492188 178.835938 240.347656 C 178.949219 240.304688 179.0625 240.265625 179.175781 240.222656 C 179.503906 240.101562 179.84375 239.972656 180.183594 239.839844 L 180.359375 239.773438 C 180.742188 239.621094 181.125 239.46875 181.511719 239.3125 L 181.523438 239.304688 C 181.578125 239.285156 181.632812 239.261719 181.691406 239.238281 L 181.832031 239.179688 C 182.074219 239.078125 182.316406 238.980469 182.558594 238.875 C 182.15625 238.851562 181.757812 238.816406 181.359375 238.777344 C 175.519531 238.21875 169.871094 236.691406 164.570312 234.238281 C 159.078125 231.691406 154.109375 228.214844 149.800781 223.90625 C 147.417969 221.523438 145.265625 218.90625 143.40625 216.132812 C 143.308594 216.015625 143.210938 215.902344 143.113281 215.785156 L 142.253906 214.757812 C 142.191406 214.679688 142.125 214.605469 142.0625 214.527344 C 141.988281 214.4375 141.917969 214.351562 141.84375 214.261719 L 141.425781 213.746094 C 141.285156 213.570312 141.144531 213.398438 141.007812 213.226562 C 140.921875 213.117188 140.828125 213.003906 140.738281 212.890625 L 139.371094 211.136719 L 138.996094 210.632812 C 138.859375 210.457031 138.722656 210.273438 138.585938 210.097656 C 138.457031 209.921875 138.335938 209.753906 138.210938 209.585938 C 138.078125 209.402344 137.941406 209.222656 137.808594 209.035156 C 137.71875 208.917969 137.636719 208.796875 137.550781 208.679688 L 137.382812 208.445312 C 137.269531 208.292969 137.15625 208.132812 137.042969 207.972656 C 136.96875 207.867188 136.894531 207.761719 136.820312 207.65625 L 136.664062 207.433594 C 136.539062 207.257812 136.414062 207.082031 136.292969 206.90625 L 136.269531 206.871094 L 135.558594 205.835938 C 135.441406 205.660156 135.332031 205.496094 135.222656 205.332031 C 135.09375 205.136719 134.964844 204.945312 134.835938 204.753906 C 134.734375 204.601562 134.636719 204.449219 134.539062 204.300781 L 134.507812 204.25 C 134.382812 204.0625 134.253906 203.867188 134.128906 203.667969 C 134.023438 203.503906 133.921875 203.34375 133.820312 203.183594 C 133.691406 202.976562 133.558594 202.773438 133.429688 202.570312 C 133.378906 202.484375 133.324219 202.394531 133.265625 202.300781 L 133.015625 201.898438 C 132.929688 201.757812 132.84375 201.621094 132.757812 201.480469 C 132.660156 201.316406 132.5625 201.15625 132.464844 200.992188 L 132.347656 200.800781 C 132.261719 200.65625 132.175781 200.519531 132.09375 200.378906 C 132.03125 200.273438 131.964844 200.160156 131.898438 200.046875 L 131.695312 199.703125 C 131.613281 199.558594 131.53125 199.417969 131.449219 199.277344 C 131.386719 199.167969 131.324219 199.058594 131.261719 198.949219 L 131.179688 198.808594 C 131.058594 198.59375 130.933594 198.378906 130.8125 198.164062 C 130.757812 198.066406 130.699219 197.957031 130.640625 197.847656 L 130.4375 197.492188 C 130.359375 197.34375 130.277344 197.199219 130.195312 197.050781 C 130.140625 196.953125 130.085938 196.847656 130.027344 196.742188 L 129.84375 196.402344 C 129.761719 196.246094 129.675781 196.089844 129.59375 195.933594 C 129.53125 195.820312 129.472656 195.699219 129.410156 195.578125 L 129.320312 195.40625 C 129.210938 195.203125 129.105469 195 129 194.800781 C 128.953125 194.710938 128.90625 194.617188 128.859375 194.519531 L 128.765625 194.339844 C 128.652344 194.117188 128.542969 193.898438 128.429688 193.675781 C 128.378906 193.574219 128.332031 193.476562 128.285156 193.382812 L 128.195312 193.195312 C 128.089844 192.988281 127.984375 192.769531 127.875 192.550781 C 127.8125 192.421875 127.757812 192.304688 127.699219 192.183594 L 127.605469 191.984375 C 127.511719 191.792969 127.421875 191.601562 127.332031 191.410156 C 127.28125 191.304688 127.234375 191.199219 127.183594 191.09375 L 126.796875 190.257812 C 126.761719 190.175781 126.726562 190.097656 126.6875 190.011719 C 126.65625 189.941406 126.625 189.867188 126.589844 189.792969 L 126.28125 189.101562 C 126.246094 189.019531 126.210938 188.9375 126.175781 188.855469 L 126 188.453125 C 125.929688 188.285156 125.855469 188.117188 125.785156 187.949219 L 125.695312 187.738281 C 125.660156 187.652344 125.625 187.566406 125.585938 187.480469 L 125.507812 187.292969 C 125.4375 187.128906 125.371094 186.964844 125.304688 186.800781 L 125.011719 186.078125 C 124.953125 185.933594 124.894531 185.789062 124.839844 185.648438 C 124.792969 185.53125 124.75 185.410156 124.703125 185.296875 L 124.632812 185.117188 C 124.550781 184.90625 124.46875 184.699219 124.386719 184.488281 L 124.382812 184.46875 C 124.328125 184.324219 124.273438 184.183594 124.222656 184.039062 L 124.117188 183.757812 C 124.058594 183.605469 124.003906 183.457031 123.949219 183.308594 C 123.875 183.113281 123.8125 182.929688 123.746094 182.746094 L 123.683594 182.566406 C 123.628906 182.421875 123.574219 182.273438 123.523438 182.125 C 123.402344 181.78125 123.277344 181.417969 123.117188 180.953125 C 119.105469 169.085938 117.589844 157.144531 118.617188 145.46875 C 118.640625 145.183594 118.667969 144.90625 118.695312 144.632812 L 118.828125 143.390625 C 118.84375 143.25 118.859375 143.105469 118.875 142.964844 L 118.878906 142.941406 C 118.894531 142.828125 118.90625 142.710938 118.921875 142.597656 L 118.996094 142.007812 C 119.007812 141.921875 119.019531 141.835938 119.03125 141.75 L 119.148438 140.941406 C 119.160156 140.84375 119.175781 140.746094 119.191406 140.644531 L 119.21875 140.46875 C 119.238281 140.347656 119.253906 140.222656 119.273438 140.101562 C 119.292969 139.984375 119.3125 139.871094 119.332031 139.753906 L 119.347656 139.652344 C 119.367188 139.527344 119.386719 139.410156 119.40625 139.289062 C 119.433594 139.132812 119.460938 138.984375 119.488281 138.828125 C 119.507812 138.710938 119.527344 138.59375 119.550781 138.476562 C 119.566406 138.386719 119.582031 138.296875 119.601562 138.207031 L 119.632812 138.019531 C 119.65625 137.90625 119.675781 137.792969 119.699219 137.679688 L 119.703125 137.660156 C 119.734375 137.496094 119.765625 137.335938 119.796875 137.171875 L 119.808594 137.109375 C 119.828125 137.027344 119.84375 136.941406 119.859375 136.859375 C 119.894531 136.691406 119.929688 136.523438 119.964844 136.351562 L 119.976562 136.304688 C 119.992188 136.21875 120.011719 136.136719 120.03125 136.050781 C 120.070312 135.851562 120.117188 135.65625 120.160156 135.457031 L 120.195312 135.308594 C 120.199219 135.289062 120.203125 135.265625 120.210938 135.238281 C 120.269531 134.976562 120.328125 134.71875 120.390625 134.460938 C 120.402344 134.414062 120.414062 134.367188 120.425781 134.316406 L 120.492188 134.039062 C 120.523438 133.914062 120.554688 133.785156 120.585938 133.660156 L 120.667969 133.335938 C 120.6875 133.261719 120.707031 133.191406 120.726562 133.117188 C 120.746094 133.039062 120.765625 132.960938 120.785156 132.882812 C 120.804688 132.816406 120.820312 132.746094 120.839844 132.675781 L 121 132.085938 C 121.019531 132.007812 121.039062 131.933594 121.0625 131.855469 L 121.09375 131.753906 C 121.132812 131.617188 121.171875 131.460938 121.214844 131.3125 L 121.3125 130.984375 C 121.355469 130.832031 121.398438 130.6875 121.441406 130.539062 C 121.476562 130.425781 121.511719 130.304688 121.550781 130.1875 L 121.726562 129.617188 C 121.742188 129.5625 121.761719 129.507812 121.777344 129.453125 L 121.78125 129.4375 C 121.816406 129.320312 121.855469 129.210938 121.890625 129.09375 L 122.179688 128.222656 C 122.214844 128.117188 122.25 128.011719 122.289062 127.90625 C 122.34375 127.746094 122.398438 127.582031 122.457031 127.421875 L 122.550781 127.148438 C 122.609375 126.980469 122.671875 126.8125 122.734375 126.640625 C 122.761719 126.558594 122.789062 126.488281 122.8125 126.421875 L 122.820312 126.402344 C 122.871094 126.261719 122.925781 126.117188 122.980469 125.972656 L 123.101562 125.65625 C 123.195312 125.40625 123.292969 125.15625 123.394531 124.90625 L 123.402344 124.882812 C 123.417969 124.839844 123.433594 124.804688 123.445312 124.773438 L 123.460938 124.738281 C 123.535156 124.550781 123.609375 124.363281 123.6875 124.171875 L 123.792969 123.921875 C 123.859375 123.753906 123.925781 123.59375 123.996094 123.4375 C 124.019531 123.378906 124.042969 123.320312 124.066406 123.261719 L 124.179688 123 C 124.222656 122.902344 124.261719 122.808594 124.304688 122.710938 C 124.347656 122.617188 124.390625 122.515625 124.4375 122.417969 C 124.5 122.269531 124.5625 122.128906 124.628906 121.984375 C 124.671875 121.886719 124.714844 121.789062 124.761719 121.695312 C 124.824219 121.550781 124.890625 121.410156 124.957031 121.269531 L 125.089844 120.980469 C 125.160156 120.835938 125.226562 120.699219 125.292969 120.5625 C 125.339844 120.460938 125.382812 120.363281 125.433594 120.265625 L 126.132812 118.867188 C 126.210938 118.714844 126.289062 118.566406 126.367188 118.421875 L 126.496094 118.171875 C 126.582031 118.015625 126.667969 117.859375 126.753906 117.699219 C 126.792969 117.621094 126.835938 117.542969 126.878906 117.464844 C 126.980469 117.277344 127.089844 117.082031 127.203125 116.882812 L 127.25 116.796875 C 127.363281 116.59375 127.480469 116.394531 127.59375 116.195312 L 127.816406 115.8125 C 127.890625 115.6875 127.964844 115.5625 128.039062 115.4375 L 128.59375 114.523438 C 128.675781 114.390625 128.761719 114.253906 128.851562 114.117188 L 129.015625 113.851562 C 129.082031 113.75 129.15625 113.636719 129.230469 113.523438 L 129.289062 113.429688 C 129.339844 113.347656 129.394531 113.265625 129.449219 113.183594 L 129.476562 113.144531 C 129.550781 113.03125 129.625 112.914062 129.699219 112.804688 L 129.871094 112.550781 C 129.953125 112.425781 130.039062 112.300781 130.125 112.171875 L 131.214844 110.628906 L 131.507812 110.230469 C 131.554688 110.171875 131.601562 110.109375 131.648438 110.046875 L 132.042969 109.519531 C 132.074219 109.480469 132.109375 109.4375 132.140625 109.394531 C 132.261719 109.238281 132.386719 109.078125 132.507812 108.921875 L 132.605469 108.792969 C 132.765625 108.59375 132.929688 108.390625 133.089844 108.191406 C 133.117188 108.160156 133.136719 108.132812 133.160156 108.105469 L 133.171875 108.09375 C 133.304688 107.929688 133.441406 107.761719 133.578125 107.597656 L 133.75 107.394531 C 133.851562 107.269531 133.960938 107.140625 134.074219 107.007812 L 134.574219 106.429688 C 134.644531 106.347656 134.71875 106.265625 134.792969 106.183594 L 135.925781 104.9375 C 135.945312 104.917969 135.964844 104.894531 135.988281 104.871094 L 125.46875 98.335938 C 123.507812 97.113281 121.160156 96.585938 118.859375 96.851562 C 116.566406 97.113281 114.398438 98.160156 112.765625 99.796875 L 106.136719 106.425781 C 106.125 106.4375 106.117188 106.449219 106.109375 106.460938 L 105.902344 106.800781 L 103.714844 108.847656 L 98.332031 114.230469 C 96.472656 116.089844 96.144531 118.945312 97.53125 121.179688 L 106.613281 135.785156 C 109.421875 140.304688 109.734375 145.875 107.449219 150.695312 C 106.210938 153.308594 105.09375 156.011719 104.125 158.730469 C 102.332031 163.761719 98.167969 167.488281 92.984375 168.699219 L 76.230469 172.605469 " fill-opacity="1" fill-rule="nonzero"/></g><g clip-path="url(#2f5b0f9e53)"><path fill="#6d1d2a" d="M 105.191406 58.871094 C 79.648438 58.871094 58.871094 79.648438 58.871094 105.1875 L 58.871094 269.835938 C 58.871094 295.378906 79.648438 316.15625 105.191406 316.15625 L 269.835938 316.15625 C 295.378906 316.15625 316.15625 295.378906 316.15625 269.835938 L 316.15625 105.1875 C 316.15625 79.648438 295.378906 58.871094 269.835938 58.871094 Z M 269.835938 323.257812 L 105.191406 323.257812 C 97.980469 323.257812 90.980469 321.84375 84.394531 319.058594 C 78.03125 316.367188 72.320312 312.515625 67.414062 307.609375 C 62.507812 302.703125 58.65625 296.992188 55.964844 290.628906 C 53.179688 284.042969 51.765625 277.042969 51.765625 269.835938 L 51.765625 105.1875 C 51.765625 97.980469 53.179688 90.984375 55.964844 84.394531 C 58.65625 78.03125 62.507812 72.320312 67.414062 67.414062 C 72.320312 62.511719 78.03125 58.65625 84.394531 55.964844 C 90.980469 53.179688 97.980469 51.765625 105.191406 51.765625 L 269.835938 51.765625 C 277.042969 51.765625 284.042969 53.179688 290.628906 55.964844 C 296.992188 58.65625 302.703125 62.511719 307.609375 67.414062 C 312.515625 72.320312 316.367188 78.03125 319.058594 84.394531 C 321.84375 90.984375 323.257812 97.980469 323.257812 105.1875 L 323.257812 269.835938 C 323.257812 277.042969 321.84375 284.042969 319.058594 290.628906 C 316.367188 296.992188 312.515625 302.703125 307.609375 307.609375 C 302.703125 312.515625 296.992188 316.367188 290.628906 319.058594 C 284.042969 321.84375 277.042969 323.257812 269.835938 323.257812 " fill-opacity="1" fill-rule="nonzero"/></g></svg>