<svg version="1.1" id="Layer_1" xmlns="http://www.w3.org/2000/svg" xmlns:xlink="http://www.w3.org/1999/xlink" x="0px" y="0px"
	 width="100%" viewBox="0 0 387 164" enable-background="new 0 0 387 164" xml:space="preserve">
<path fill="#FEFDFE" opacity="1.000000" stroke="none" 
	d="
M301.000000,165.000000 
	C200.666672,165.000000 100.833359,165.000000 1.000027,165.000000 
	C1.000018,110.333351 1.000018,55.666702 1.000009,1.000041 
	C129.999969,1.000028 258.999939,1.000028 387.999939,1.000014 
	C387.999939,55.666626 387.999939,110.333252 387.999969,164.999939 
	C359.166656,165.000000 330.333344,165.000000 301.000000,165.000000 
M14.327757,118.202827 
	C28.397652,122.415001 42.592049,123.726509 56.304829,117.504822 
	C75.638985,108.732635 78.340294,83.413094 61.285103,70.846214 
	C55.733112,66.755310 49.087830,64.161690 43.000019,60.779873 
	C38.658798,58.368290 34.085041,56.204636 30.205019,53.174824 
	C24.830181,48.977745 23.003534,40.449684 25.300501,34.048840 
	C27.356350,28.319910 33.508728,24.356056 40.668903,23.975273 
	C49.534088,23.503817 56.169994,26.643059 59.989655,35.064590 
	C61.716015,38.870838 63.965912,42.439636 65.978287,46.116158 
	C67.436928,41.530434 67.359528,37.341980 68.034790,33.278606 
	C68.728012,29.107203 66.746437,27.315668 63.375961,25.793869 
	C51.840195,20.585361 39.971344,19.572691 27.819330,22.913469 
	C17.333469,25.796198 9.318156,31.805086 7.218116,43.005367 
	C5.064770,54.489941 8.066493,64.669662 18.161856,71.538849 
	C23.488350,75.163155 29.383739,77.950760 35.018456,81.122902 
	C39.207783,83.481331 43.658653,85.483887 47.515709,88.298958 
	C53.679501,92.797585 54.425167,99.479324 52.871780,106.319817 
	C51.412331,112.746666 46.855366,116.517044 40.517323,118.002998 
	C28.468693,120.827789 18.796106,116.446381 12.975430,105.578949 
	C11.088003,102.055046 9.342802,98.454956 7.532546,94.889717 
	C6.991930,94.997406 6.451315,95.105095 5.910700,95.212776 
	C5.910700,99.113235 5.976555,103.015045 5.897013,106.913879 
	C5.730648,115.068420 5.699162,115.067780 14.327757,118.202827 
M322.901459,47.500614 
	C322.901398,65.816612 322.696991,84.136185 323.017365,102.446571 
	C323.122833,108.475006 321.862640,112.857193 315.643616,114.705101 
	C315.538055,114.736465 315.582611,115.272926 315.545258,115.713852 
	C338.733734,115.713852 361.907837,115.713852 385.465759,115.713852 
	C385.837708,107.339951 386.197296,99.244766 386.556854,91.149574 
	C382.917175,95.996468 380.929474,101.347343 377.832825,105.952507 
	C375.881165,108.854843 372.458679,112.251892 369.366425,112.614159 
	C361.369385,113.551033 353.189575,112.928238 344.799896,112.928238 
	C344.799896,84.919441 344.710938,57.313110 344.976898,29.710207 
	C344.997131,27.610361 347.416199,25.442204 348.954376,23.490311 
	C349.634888,22.626740 350.900116,22.223955 352.469482,21.263351 
	C339.549225,21.263351 327.512848,21.263351 315.476501,21.263351 
	C322.705048,23.279900 323.287384,28.534964 322.944672,34.514858 
	C322.716370,38.497997 322.901398,42.504826 322.901459,47.500614 
M245.213120,102.353493 
	C237.641479,94.279266 242.606445,82.207550 253.787903,81.277390 
	C255.259140,81.155014 256.987244,80.987648 258.080566,80.159851 
	C259.906158,78.777596 262.299255,77.067047 262.740784,75.108597 
	C265.726471,61.865070 263.319305,58.067932 250.153275,54.835804 
	C246.541245,53.949085 244.680130,51.984871 243.038376,48.736401 
	C241.387650,45.470169 239.065491,42.075851 236.140839,40.002708 
	C224.200974,31.539143 211.219940,31.723398 196.447998,36.723442 
	C215.540726,41.596107 224.559967,55.166149 230.777664,70.778084 
	C237.239716,87.003654 236.021591,102.948799 225.152908,118.113655 
	C230.009186,119.086662 232.728348,126.602486 238.758469,121.548935 
	C249.542938,112.511040 250.164047,110.470955 245.213120,102.353493 
M186.458832,34.869587 
	C205.897125,24.926783 225.024460,23.455631 243.346176,37.334541 
	C250.241135,27.424433 250.209610,26.775991 242.746399,19.379601 
	C235.016098,11.718516 235.016083,11.718546 224.263580,18.207376 
	C217.146713,22.502192 208.832428,19.078905 206.930405,11.066746 
	C206.546661,9.450290 206.096313,7.842811 205.833572,6.206009 
	C205.404694,3.534140 204.273315,2.222205 201.226822,2.386730 
	C196.080215,2.664670 190.901230,2.618013 185.748520,2.403643 
	C182.701309,2.276868 181.117905,3.115123 180.844391,6.376267 
	C180.271530,13.206641 177.449203,18.399607 170.122971,20.053795 
	C169.209473,20.260059 168.332779,20.937111 167.597305,21.577734 
	C157.350403,30.503180 154.249588,53.148087 160.984512,63.996819 
	C163.256668,59.431637 164.897263,53.488262 168.583542,49.380791 
	C173.491913,43.911575 179.992462,39.871262 186.458832,34.869587 
M201.877655,136.538086 
	C202.615341,133.469223 203.394699,130.409637 204.080551,127.329231 
	C205.016373,123.126068 207.185364,119.889305 211.472794,118.732170 
	C221.107468,116.131874 225.064178,108.791428 227.226990,100.041428 
	C229.547562,90.653244 228.789795,81.500282 224.538223,71.726204 
	C218.615067,104.469482 172.923462,120.796585 144.463760,101.326874 
	C136.544556,111.300293 136.544601,111.300247 145.453369,120.144569 
	C145.807541,120.496170 146.190552,120.824226 146.507782,121.206673 
	C148.554199,123.673836 150.814636,124.037407 153.465332,122.099777 
	C154.802109,121.122604 156.287338,120.349030 157.701920,119.477722 
	C168.628418,112.747589 179.167389,117.297348 182.020401,129.976669 
	C182.421570,131.759552 182.625275,133.623230 183.302597,135.294617 
	C183.742661,136.380508 184.881546,137.990936 185.697769,137.985260 
	C190.921677,137.949051 196.142914,137.530151 201.877655,136.538086 
M126.041847,77.829880 
	C127.582970,78.375618 129.090805,79.251762 130.670868,79.410896 
	C138.217407,80.170967 142.623337,84.298599 144.868484,91.424622 
	C145.511520,93.465576 147.163315,95.535027 148.916626,96.824356 
	C161.506973,106.082787 175.072006,105.786324 189.825027,100.661217 
	C155.472839,91.716064 140.976913,48.049309 161.807831,18.417376 
	C153.458344,11.552529 151.690857,11.588197 144.420792,18.927332 
	C136.232941,27.192970 136.806503,24.850777 142.855072,34.810150 
	C148.635620,44.328220 144.067856,55.330338 133.237503,57.945164 
	C131.783463,58.296219 130.075577,58.278831 128.937454,59.076939 
	C127.607361,60.009640 125.982185,61.586311 125.869202,62.994644 
	C125.497482,67.627975 125.751823,72.311531 126.041847,77.829880 
M303.681824,108.874908 
	C301.643555,101.709869 297.131836,97.899994 291.146393,98.289467 
	C285.486633,98.657745 280.750427,103.108482 280.047577,108.719269 
	C279.229218,115.252029 283.700104,121.149986 290.095001,121.973709 
	C297.552246,122.934258 302.851135,118.160507 303.681824,108.874908 
M98.227623,99.462799 
	C93.448814,101.970024 91.208588,105.991470 91.569153,111.302185 
	C91.875008,115.807091 94.220253,119.112091 98.357971,121.016884 
	C102.973709,123.141739 108.704262,121.966499 112.109726,118.267044 
	C115.516457,114.566231 116.152000,108.711052 113.621437,104.339966 
	C110.697769,99.289848 105.682526,97.512505 98.227623,99.462799 
z"/>
<path fill="#70222F" opacity="1.000000" stroke="none" 
	d="
M13.939936,118.099823 
	C5.699162,115.067780 5.730648,115.068420 5.897013,106.913879 
	C5.976555,103.015045 5.910700,99.113235 5.910700,95.212776 
	C6.451315,95.105095 6.991930,94.997406 7.532546,94.889717 
	C9.342802,98.454956 11.088003,102.055046 12.975430,105.578949 
	C18.796106,116.446381 28.468693,120.827789 40.517323,118.002998 
	C46.855366,116.517044 51.412331,112.746666 52.871780,106.319817 
	C54.425167,99.479324 53.679501,92.797585 47.515709,88.298958 
	C43.658653,85.483887 39.207783,83.481331 35.018456,81.122902 
	C29.383739,77.950760 23.488350,75.163155 18.161856,71.538849 
	C8.066493,64.669662 5.064770,54.489941 7.218116,43.005367 
	C9.318156,31.805086 17.333469,25.796198 27.819330,22.913469 
	C39.971344,19.572691 51.840195,20.585361 63.375961,25.793869 
	C66.746437,27.315668 68.728012,29.107203 68.034790,33.278606 
	C67.359528,37.341980 67.436928,41.530434 65.978287,46.116158 
	C63.965912,42.439636 61.716015,38.870838 59.989655,35.064590 
	C56.169994,26.643059 49.534088,23.503817 40.668903,23.975273 
	C33.508728,24.356056 27.356350,28.319910 25.300501,34.048840 
	C23.003534,40.449684 24.830181,48.977745 30.205019,53.174824 
	C34.085041,56.204636 38.658798,58.368290 43.000019,60.779873 
	C49.087830,64.161690 55.733112,66.755310 61.285103,70.846214 
	C78.340294,83.413094 75.638985,108.732635 56.304829,117.504822 
	C42.592049,123.726509 28.397652,122.415001 13.939936,118.099823 
z"/>
<path fill="#70212E" opacity="1.000000" stroke="none" 
	d="
M322.901428,47.000832 
	C322.901398,42.504826 322.716370,38.497997 322.944672,34.514858 
	C323.287384,28.534964 322.705048,23.279900 315.476501,21.263351 
	C327.512848,21.263351 339.549225,21.263351 352.469482,21.263351 
	C350.900116,22.223955 349.634888,22.626740 348.954376,23.490311 
	C347.416199,25.442204 344.997131,27.610361 344.976898,29.710207 
	C344.710938,57.313110 344.799896,84.919441 344.799896,112.928238 
	C353.189575,112.928238 361.369385,113.551033 369.366425,112.614159 
	C372.458679,112.251892 375.881165,108.854843 377.832825,105.952507 
	C380.929474,101.347343 382.917175,95.996468 386.556854,91.149574 
	C386.197296,99.244766 385.837708,107.339951 385.465759,115.713852 
	C361.907837,115.713852 338.733734,115.713852 315.545258,115.713852 
	C315.582611,115.272926 315.538055,114.736465 315.643616,114.705101 
	C321.862640,112.857193 323.122833,108.475006 323.017365,102.446571 
	C322.696991,84.136185 322.901398,65.816612 322.901428,47.000832 
z"/>
<path fill="#6F212D" opacity="1.000000" stroke="none" 
	d="
M245.438538,102.662888 
	C250.164047,110.470955 249.542938,112.511040 238.758469,121.548935 
	C232.728348,126.602486 230.009186,119.086662 225.152908,118.113655 
	C236.021591,102.948799 237.239716,87.003654 230.777664,70.778084 
	C224.559967,55.166149 215.540726,41.596107 196.447998,36.723442 
	C211.219940,31.723398 224.200974,31.539143 236.140839,40.002708 
	C239.065491,42.075851 241.387650,45.470169 243.038376,48.736401 
	C244.680130,51.984871 246.541245,53.949085 250.153275,54.835804 
	C263.319305,58.067932 265.726471,61.865070 262.740784,75.108597 
	C262.299255,77.067047 259.906158,78.777596 258.080566,80.159851 
	C256.987244,80.987648 255.259140,81.155014 253.787903,81.277390 
	C242.606445,82.207550 237.641479,94.279266 245.438538,102.662888 
z"/>
<path fill="#70222E" opacity="1.000000" stroke="none" 
	d="
M186.133942,35.043358 
	C179.992462,39.871262 173.491913,43.911575 168.583542,49.380791 
	C164.897263,53.488262 163.256668,59.431637 160.984512,63.996819 
	C154.249588,53.148087 157.350403,30.503180 167.597305,21.577734 
	C168.332779,20.937111 169.209473,20.260059 170.122971,20.053795 
	C177.449203,18.399607 180.271530,13.206641 180.844391,6.376267 
	C181.117905,3.115123 182.701309,2.276868 185.748520,2.403643 
	C190.901230,2.618013 196.080215,2.664670 201.226822,2.386730 
	C204.273315,2.222205 205.404694,3.534140 205.833572,6.206009 
	C206.096313,7.842811 206.546661,9.450290 206.930405,11.066746 
	C208.832428,19.078905 217.146713,22.502192 224.263580,18.207376 
	C235.016083,11.718546 235.016098,11.718516 242.746399,19.379601 
	C250.209610,26.775991 250.241135,27.424433 243.346176,37.334541 
	C225.024460,23.455631 205.897125,24.926783 186.133942,35.043358 
z"/>
<path fill="#6F202D" opacity="1.000000" stroke="none" 
	d="
M201.621338,136.887604 
	C196.142914,137.530151 190.921677,137.949051 185.697769,137.985260 
	C184.881546,137.990936 183.742661,136.380508 183.302597,135.294617 
	C182.625275,133.623230 182.421570,131.759552 182.020401,129.976669 
	C179.167389,117.297348 168.628418,112.747589 157.701920,119.477722 
	C156.287338,120.349030 154.802109,121.122604 153.465332,122.099777 
	C150.814636,124.037407 148.554199,123.673836 146.507782,121.206673 
	C146.190552,120.824226 145.807541,120.496170 145.453369,120.144569 
	C136.544601,111.300247 136.544556,111.300293 144.463760,101.326874 
	C172.923462,120.796585 218.615067,104.469482 224.538223,71.726204 
	C228.789795,81.500282 229.547562,90.653244 227.226990,100.041428 
	C225.064178,108.791428 221.107468,116.131874 211.472794,118.732170 
	C207.185364,119.889305 205.016373,123.126068 204.080551,127.329231 
	C203.394699,130.409637 202.615341,133.469223 201.621338,136.887604 
z"/>
<path fill="#6F212E" opacity="1.000000" stroke="none" 
	d="
M125.903763,77.402840 
	C125.751823,72.311531 125.497482,67.627975 125.869202,62.994644 
	C125.982185,61.586311 127.607361,60.009640 128.937454,59.076939 
	C130.075577,58.278831 131.783463,58.296219 133.237503,57.945164 
	C144.067856,55.330338 148.635620,44.328220 142.855072,34.810150 
	C136.806503,24.850777 136.232941,27.192970 144.420792,18.927332 
	C151.690857,11.588197 153.458344,11.552529 161.807831,18.417376 
	C140.976913,48.049309 155.472839,91.716064 189.825027,100.661217 
	C175.072006,105.786324 161.506973,106.082787 148.916626,96.824356 
	C147.163315,95.535027 145.511520,93.465576 144.868484,91.424622 
	C142.623337,84.298599 138.217407,80.170967 130.670868,79.410896 
	C129.090805,79.251762 127.582970,78.375618 125.903763,77.402840 
z"/>
<path fill="#70222F" opacity="1.000000" stroke="none" 
	d="
M303.723877,109.266243 
	C302.851135,118.160507 297.552246,122.934258 290.095001,121.973709 
	C283.700104,121.149986 279.229218,115.252029 280.047577,108.719269 
	C280.750427,103.108482 285.486633,98.657745 291.146393,98.289467 
	C297.131836,97.899994 301.643555,101.709869 303.723877,109.266243 
z"/>
<path fill="#70212E" opacity="1.000000" stroke="none" 
	d="
M98.575912,99.297119 
	C105.682526,97.512505 110.697769,99.289848 113.621437,104.339966 
	C116.152000,108.711052 115.516457,114.566231 112.109726,118.267044 
	C108.704262,121.966499 102.973709,123.141739 98.357971,121.016884 
	C94.220253,119.112091 91.875008,115.807091 91.569153,111.302185 
	C91.208588,105.991470 93.448814,101.970024 98.575912,99.297119 
z"/>
</svg>